<?xml version="1.0" encoding="UTF-8"?><svg xmlns="http://www.w3.org/2000/svg" xmlns:xlink="http://www.w3.org/1999/xlink" viewBox="0 0 272.94 699.47"><defs><style>.dv{fill:url(#u);}.dw{fill:url(#t);}.dx{fill:url(#v);}.dy{fill:url(#e);}.e`{fill:url(#d);}.ea{fill:url(#g);}.eb{fill:url(#f);}.ec{fill:url(#p);}.ed{fill:url(#o);}.ee{fill:url(#s);}.ef{fill:url(#q);}.eg{fill:url(#r);}.eh{fill:url(#i);}.ei{fill:url(#h);}.ej{fill:url(#k);}.ek{fill:url(#j);}.el{fill:url(#m);}.em{fill:url(#l);}.en{fill:url(#n);}.eo{fill:url(#x);}.ep{fill:url(#w);}.eq{fill:url(#y);}.er{fill:url(#aa);}.es{fill:url(#ag);}.et{fill:url(#ab);}.eu{fill:url(#ah);}.ev{fill:url(#ai);}.ew{fill:url(#ad);}.ex{fill:url(#ao);}.ey{fill:url(#aj);}.f`{fill:url(#ae);}.fa{fill:url(#ap);}.fb{fill:url(#af);}.fc{fill:url(#a`);}.fd{fill:url(#as);}.fe{fill:url(#aq);}.ff{fill:url(#ar);}.fg{fill:url(#al);}.fh{fill:url(#ax);}.fi{fill:url(#aw);}.fj{fill:url(#am);}.fk{fill:url(#ac);}.fl{fill:url(#an);}.fm{fill:url(#at);}.fn{fill:url(#ay);}.fo{fill:url(#au);}.fp{fill:url(#ak);}.fq{fill:url(#av);}.fr{fill:url(#cc);}.fs{fill:url(#cb);}.ft{fill:url(#ca);}.fu{fill:url(#cd);}.fv{fill:url(#ck);}.fw{fill:url(#cj);}.fx{fill:url(#ci);}.fy{fill:url(#c`);}.g`{fill:url(#cg);}.ga{fill:url(#cf);}.gb{fill:url(#ce);}.gc{fill:url(#be);}.gd{fill:url(#bg);}.ge{fill:url(#bf);}.gf{fill:url(#bm);}.gg{fill:url(#bd);}.gh{fill:url(#bo);}.gi{fill:url(#bn);}.gj{fill:url(#ba);}.gk{fill:url(#bh);}.gl{fill:url(#bc);}.gm{fill:url(#bb);}.gn{fill:url(#cx);}.go{fill:url(#cl);}.gp{fill:url(#cs);}.gq{fill:url(#cr);}.gr{fill:url(#cq);}.gs{fill:url(#ch);}.gt{fill:url(#co);}.gu{fill:url(#cn);}.gv{fill:url(#cm);}.gw{fill:url(#ct);}.gx{fill:url(#cy);}.gy{fill:url(#cp);}.h`{fill:url(#cw);}.ha{fill:url(#cv);}.hb{fill:url(#cu);}.hc{fill:url(#b`);}.hd{fill:url(#by);}.he{fill:url(#bu);}.hf{fill:url(#bl);}.hg{fill:url(#bw);}.hh{fill:url(#bv);}.hi{fill:url(#bi);}.hj{fill:url(#bp);}.hk{fill:url(#bk);}.hl{fill:url(#bj);}.hm{fill:url(#bt);}.hn{fill:url(#bq);}.ho{fill:url(#bx);}.hp{fill:url(#bs);}.hq{fill:url(#br);}.hr{fill:url(#d`);}.hs{fill:url(#dc);}.ht{fill:url(#db);}.hu{fill:url(#dk);}.hv{fill:url(#dn);}.hw{fill:url(#dj);}.hx{fill:url(#dh);}.hy{fill:url(#de);}.i`{fill:url(#dd);}.ia{fill:url(#dg);}.ib{fill:url(#df);}.ic{fill:url(#da);}.id{fill:url(#ds);}.ie{fill:url(#dm);}.if{fill:url(#dp);}.ig{fill:url(#do);}.ih{fill:url(#dr);}.ii{fill:url(#di);}.ij{fill:url(#dl);}.ik{fill:url(#du);}.il{fill:url(#dq);}.im{fill:url(#dt);}.in{fill:#f4eceb;}.io{fill:#fff;}.ip{fill:#f1f0f5;}.iq{fill:#95272c;}.ir{fill:#321710;}.is{fill:#ddd;}.it{fill:#c57d4e;}.iu{fill:#421f16;}.iv{fill:#185b7e;}.iw{fill:#61381f;}</style><linearGradient id="d" x1="243.2" y1="251.23" x2="254.18" y2="325.36" gradientTransform="matrix(1, 0, 0, 1, 0, 0)" gradientUnits="userSpaceOnUse"><stop offset="0" stop-color="#fff"/><stop offset=".36" stop-color="#f8f8fa"/><stop offset="1" stop-color="#f1f0f5"/></linearGradient><linearGradient id="e" x1="224.13" y1="308.19" x2="231.4" y2="357.23" gradientTransform="matrix(1, 0, 0, 1, 0, 0)" gradientUnits="userSpaceOnUse"><stop offset="0" stop-color="#c57d4e"/><stop offset="1" stop-color="#a9563f"/></linearGradient><linearGradient id="f" x1="229.98" y1="313.29" x2="234.65" y2="344.77" xlink:href="#e"/><linearGradient id="g" x1="227.49" y1="307.18" x2="262.38" y2="325.78" gradientTransform="matrix(1, 0, 0, 1, 0, 0)" gradientUnits="userSpaceOnUse"><stop offset="0" stop-color="#e1e1e5"/><stop offset="1" stop-color="#f1f0f5"/></linearGradient><linearGradient id="h" x1="233.13" y1="295.62" x2="239.22" y2="336.77" xlink:href="#d"/><radialGradient id="i" cx="603.72" cy="-270.75" fx="603.72" fy="-270.75" r="40.05" gradientTransform="translate(-999.52 768.72) scale(1.92 .3)" gradientUnits="userSpaceOnUse"><stop offset="0" stop-color="#e4e3e2"/><stop offset=".39" stop-color="#e9e8e7"/><stop offset=".85" stop-color="#f7f6f5"/><stop offset="1" stop-color="#fefdfc"/></radialGradient><linearGradient id="j" x1="3434.08" y1="749" x2="3434.08" y2="699.09" gradientTransform="translate(3679.69 54.38) rotate(-178.3) scale(1 -1)" gradientUnits="userSpaceOnUse"><stop offset="0" stop-color="#673024"/><stop offset=".34" stop-color="#52261c"/><stop offset=".68" stop-color="#462017"/><stop offset="1" stop-color="#421f16"/></linearGradient><linearGradient id="k" x1="3427.19" y1="702.4" x2="3456.62" y2="728.21" xlink:href="#j"/><linearGradient id="l" x1="3427.41" y1="728.19" x2="3428.98" y2="749.42" xlink:href="#j"/><linearGradient id="m" x1="242.3" y1="691.27" x2="159.88" y2="661.88" gradientTransform="matrix(1, 0, 0, 1, 0, 0)" xlink:href="#j"/><linearGradient id="n" x1="5289.66" y1="803.94" x2="5289.66" y2="754.04" gradientTransform="translate(-5217.25 54.38) rotate(-1.7)" xlink:href="#j"/><linearGradient id="o" x1="5282.78" y1="757.34" x2="5312.2" y2="783.16" gradientTransform="translate(-5217.25 54.38) rotate(-1.7)" xlink:href="#j"/><linearGradient id="p" x1="5283" y1="783.13" x2="5284.57" y2="804.36" gradientTransform="translate(-5217.25 54.38) rotate(-1.7)" xlink:href="#j"/><linearGradient id="q" x1="87.64" y1="687.18" x2="125.42" y2="665.08" gradientTransform="matrix(1, 0, 0, 1, 0, 0)" xlink:href="#j"/><linearGradient id="r" x1="157.45" y1="305.89" x2="159.16" y2="263.5" xlink:href="#g"/><linearGradient id="s" x1="107.12" y1="323.55" x2="110.97" y2="934.49" gradientTransform="matrix(1, 0, 0, 1, 0, 0)" gradientUnits="userSpaceOnUse"><stop offset="0" stop-color="#343336"/><stop offset=".29" stop-color="#302f32"/><stop offset="1" stop-color="#2b2a2e"/></linearGradient><linearGradient id="t" x1="204.37" y1="331.13" x2="218.81" y2="926.95" xlink:href="#s"/><linearGradient id="u" x1="70.98" y1="96.99" x2="88.69" y2="91.61" gradientTransform="translate(9.4 9.98) rotate(-1.52)" xlink:href="#e"/><linearGradient id="v" x1="90.16" y1="84.76" x2="93.5" y2="60.83" xlink:href="#e"/><linearGradient id="w" x1="84.79" y1="77.05" x2="82.57" y2="66.89" xlink:href="#e"/><linearGradient id="x" x1="11.4" y1="26.38" x2="31.48" y2="26.38" gradientTransform="translate(77.03 54.99) rotate(-10.1) scale(.96)" gradientUnits="userSpaceOnUse"><stop offset="0" stop-color="#474650"/><stop offset=".1" stop-color="#3f3f47"/><stop offset=".44" stop-color="#2a2b2e"/><stop offset=".75" stop-color="#1d201f"/><stop offset="1" stop-color="#191c1a"/></linearGradient><linearGradient id="y" x1="13.78" y1="26.32" x2="33.87" y2="26.32" xlink:href="#x"/><linearGradient id="a`" x1="91.24" y1="85.25" x2="92.34" y2="44.37" gradientTransform="translate(9.4 9.98) rotate(-1.52)" gradientUnits="userSpaceOnUse"><stop offset="0" stop-color="#40b7e8"/><stop offset=".02" stop-color="#3eb6e7"/><stop offset=".39" stop-color="#25ace4"/><stop offset=".73" stop-color="#16a7e2"/><stop offset="1" stop-color="#11a5e2"/></linearGradient><linearGradient id="aa" x1="101.26" y1="52.85" x2="93.12" y2="67.95" xlink:href="#a`"/><linearGradient id="ab" x1="74.22" y1="63.12" x2="106.09" y2="58.67" xlink:href="#e"/><linearGradient id="ac" x1="70.96" y1="67" x2="101.86" y2="63.38" xlink:href="#e"/><linearGradient id="ad" x1="91.92" y1="94.23" x2="85.52" y2="115.11" gradientTransform="matrix(1, 0, 0, 1, 0, 0)" gradientUnits="userSpaceOnUse"><stop offset="0" stop-color="#c57d4e"/><stop offset="1" stop-color="#cd8653"/></linearGradient><linearGradient id="ae" x1="84.03" y1="97.07" x2="79.84" y2="86.16" gradientTransform="translate(9.4 9.98) rotate(-1.52)" xlink:href="#ad"/><linearGradient id="af" x1="91.85" y1="84.62" x2="76.4" y2="74.32" xlink:href="#e"/><linearGradient id="ag" x1="101.27" y1="113.89" x2="75.15" y2="118.05" xlink:href="#e"/><linearGradient id="ah" x1="93.76" y1="95.74" x2="103.65" y2="78.35" gradientTransform="translate(9.4 9.98) rotate(-1.52)" xlink:href="#ad"/><linearGradient id="ai" x1="77.91" y1="83.48" x2="61.36" y2="85.16" gradientTransform="translate(9.4 9.98) rotate(-1.52)" xlink:href="#e"/><linearGradient id="aj" x1="33.39" y1="150.73" x2="70.68" y2="92.84" xlink:href="#e"/><linearGradient id="ak" x1="76.83" y1="85.39" x2="64.58" y2="115.45" xlink:href="#ad"/><linearGradient id="al" x1="79.51" y1="53.88" x2="63.25" y2="84.39" gradientTransform="translate(9.4 9.98) rotate(-1.52)" xlink:href="#e"/><linearGradient id="am" x1="61.5" y1="85.31" x2="79.66" y2="46.86" gradientTransform="translate(9.4 9.98) rotate(-1.52)" xlink:href="#ad"/><linearGradient id="an" x1="91.79" y1="52.17" x2="64.28" y2="54.97" gradientTransform="translate(9.4 9.98) rotate(-1.52)" xlink:href="#ad"/><linearGradient id="ao" x1="92.89" y1="48.56" x2="68.26" y2="51.07" gradientTransform="translate(9.4 9.98) rotate(-1.52)" xlink:href="#ad"/><linearGradient id="ap" x1="100.83" y1="64.66" x2="75.64" y2="75.94" xlink:href="#e"/><linearGradient id="aq" x1="154.19" y1="808.32" x2="157.36" y2="441.99" xlink:href="#s"/><linearGradient id="ar" x1="159.68" y1="231.65" x2="158.86" y2="532.6" gradientTransform="matrix(1, 0, 0, 1, 0, 0)" gradientUnits="userSpaceOnUse"><stop offset="0" stop-color="#252426"/><stop offset="1" stop-color="#2b2a2e"/></linearGradient><linearGradient id="as" x1="98.59" y1="313.58" x2="217.93" y2="313.58" xlink:href="#ar"/><linearGradient id="at" x1="98.7" y1="312.38" x2="217.78" y2="312.38" gradientTransform="matrix(1, 0, 0, 1, 0, 0)" xlink:href="#j"/><linearGradient id="au" x1="155.17" y1="211.5" x2="155.17" y2="96.9" gradientTransform="matrix(1, 0, 0, 1, 0, 0)" gradientUnits="userSpaceOnUse"><stop offset="0" stop-color="#f1f0f5"/><stop offset=".64" stop-color="#f8f8fa"/><stop offset="1" stop-color="#fff"/></linearGradient><linearGradient id="av" x1="149.57" y1="326.21" x2="165.65" y2="390.56" xlink:href="#ar"/><linearGradient id="aw" x1="139.14" y1="306.44" x2="137.29" y2="324.48" xlink:href="#s"/><linearGradient id="ax" x1="107.4" y1="303.34" x2="105.84" y2="318.11" gradientTransform="translate(-30.14 11.98) rotate(-5.64)" gradientUnits="userSpaceOnUse"><stop offset="0" stop-color="#2b2a2e"/><stop offset=".71" stop-color="#302f32"/><stop offset="1" stop-color="#343336"/></linearGradient><linearGradient id="ay" x1=".1" y1="245.16" x2="-.61" y2="226.98" gradientTransform="translate(170.58 216.66) rotate(-6.8)" xlink:href="#s"/><linearGradient id="b`" x1="209.29" y1="317.77" x2="210.43" y2="297.61" gradientTransform="translate(38.39 -22.62) rotate(6.8)" xlink:href="#s"/><linearGradient id="ba" x1="219.32" y1="105.54" x2="130.9" y2="112.83" gradientTransform="matrix(1, 0, 0, 1, 0, 0)" gradientUnits="userSpaceOnUse"><stop offset="0" stop-color="#a9563f"/><stop offset="1" stop-color="#c57d4e"/></linearGradient><linearGradient id="bb" x1="154.71" y1="112.06" x2="156.17" y2="157.72" xlink:href="#ba"/><linearGradient id="bc" x1="154.55" y1="113.79" x2="158.01" y2="172.1" xlink:href="#g"/><linearGradient id="bd" x1="22.43" y1="234.19" x2="29.7" y2="234.19" gradientTransform="translate(135.99 -100.52) rotate(2.52)" gradientUnits="userSpaceOnUse"><stop offset="0" stop-color="#114a6f"/><stop offset="1" stop-color="#185b7e"/></linearGradient><linearGradient id="be" x1="35.05" y1="244.91" x2="33.6" y2="277.95" xlink:href="#bd"/><linearGradient id="bf" x1="29.7" y1="233.53" x2="38.5" y2="233.53" xlink:href="#bd"/><linearGradient id="bg" x1="31.37" y1="251.58" x2="31.07" y2="240.02" xlink:href="#bd"/><linearGradient id="bh" x1="135.82" y1="127.08" x2="137.32" y2="153.39" xlink:href="#au"/><linearGradient id="bi" x1="177.12" y1="124.74" x2="178.61" y2="151.05" xlink:href="#au"/><linearGradient id="bj" x1="221.07" y1="330.72" x2="235.51" y2="926.55" xlink:href="#s"/><linearGradient id="bk" x1="93.9" y1="323.63" x2="97.75" y2="934.57" xlink:href="#s"/><linearGradient id="bl" x1="167.12" y1="146.14" x2="267.89" y2="88.83" xlink:href="#d"/><linearGradient id="bm" x1="170.66" y1="114.01" x2="170.23" y2="173.76" xlink:href="#au"/><linearGradient id="bn" x1="160.44" y1="119.17" x2="184.06" y2="119.17" xlink:href="#d"/><linearGradient id="bo" x1="234.22" y1="102.47" x2="258.04" y2="263.24" xlink:href="#d"/><linearGradient id="bp" x1="224.11" y1="114.13" x2="213.84" y2="261.73" xlink:href="#g"/><linearGradient id="bq" x1="225.5" y1="318.8" x2="248.6" y2="117.29" xlink:href="#g"/><linearGradient id="br" x1="34.09" y1="177.65" x2="83.42" y2="177.65" xlink:href="#g"/><linearGradient id="bs" x1="50.39" y1="157.65" x2="211.32" y2="66.11" xlink:href="#d"/><linearGradient id="bt" x1="1160.45" y1="115.55" x2="1160.03" y2="175.3" gradientTransform="translate(1300.42) rotate(-180) scale(1 -1)" xlink:href="#au"/><linearGradient id="bu" x1="126.24" y1="129.81" x2="171.61" y2="104.01" xlink:href="#d"/><linearGradient id="bv" x1="72.85" y1="135.69" x2="49.33" y2="124.78" xlink:href="#e"/><linearGradient id="bw" x1="66.07" y1="147.68" x2="34.58" y2="132.63" gradientTransform="matrix(1, 0, 0, 1, 0, 0)" gradientUnits="userSpaceOnUse"><stop offset="0" stop-color="#f1f0f5"/><stop offset="1" stop-color="#e1e1e5"/></linearGradient><linearGradient id="bx" x1="123.81" y1="150.15" x2="27.1" y2="221.34" xlink:href="#bw"/><linearGradient id="by" x1="99.69" y1="246.7" x2="75.05" y2="98.86" xlink:href="#bw"/><linearGradient id="c`" x1="122.68" y1="146.74" x2="24.4" y2="219.09" xlink:href="#bw"/><linearGradient id="ca" x1="-38.99" y1="324.65" x2="58.55" y2="128.59" xlink:href="#d"/><linearGradient id="cb" x1="38.91" y1="164.74" x2="59.36" y2="123.65" xlink:href="#d"/><linearGradient id="cc" x1="195.49" y1="51.92" x2="193.96" y2="78.62" xlink:href="#e"/><linearGradient id="cd" x1="201.55" y1="89.72" x2="194.58" y2="59.63" xlink:href="#e"/><radialGradient id="ce" cx="2114.45" cy="31.73" fx="2114.45" fy="31.73" r="16.65" gradientTransform="translate(2288.59 -71.86) rotate(176.98) scale(1 -1)" gradientUnits="userSpaceOnUse"><stop offset="0" stop-color="#cb784d"/><stop offset="1" stop-color="#c57d4e"/></radialGradient><linearGradient id="cf" x1="155.09" y1="106.16" x2="155.09" y2="112.91" xlink:href="#ad"/><linearGradient id="cg" x1="110.33" y1="52.63" x2="113.05" y2="78.99" xlink:href="#e"/><radialGradient id="ch" cx="119.56" cy="-10.56" fx="119.56" fy="-10.56" r="16.61" gradientTransform="translate(9.63 93.82) rotate(-5.28)" xlink:href="#ce"/><linearGradient id="ci" x1="159.78" y1="90.83" x2="161.09" y2="78.09" gradientTransform="matrix(1, 0, 0, 1, 0, 0)" gradientUnits="userSpaceOnUse"><stop offset="0" stop-color="#c57d4e"/><stop offset="1" stop-color="#a9563f"/></linearGradient><linearGradient id="cj" x1="179.3" y1="64.36" x2="150.44" y2="29.87" xlink:href="#e"/><linearGradient id="ck" x1="120.25" y1="66.77" x2="162.8" y2="34.86" xlink:href="#e"/><linearGradient id="cl" x1="146.69" y1="89.49" x2="148" y2="76.74" xlink:href="#ci"/><linearGradient id="cm" x1="154.03" y1="66.92" x2="154.63" y2="84.75" xlink:href="#e"/><linearGradient id="cn" x1="155.16" y1="71.41" x2="147.1" y2="2.73" xlink:href="#e"/><linearGradient id="co" x1="178.16" y1="67.23" x2="192.22" y2="63.58" xlink:href="#ad"/><linearGradient id="cp" x1="132.12" y1="71.46" x2="114.97" y2="67.27" gradientTransform="translate(-1.54 -2.92) rotate(-.02)" xlink:href="#ad"/><linearGradient id="cq" x1="171.08" y1="83.82" x2="180.5" y2="82.54" xlink:href="#e"/><linearGradient id="cr" x1="138.26" y1="84.63" x2="127.98" y2="82.92" xlink:href="#e"/><linearGradient id="cs" x1="155.2" y1="93.18" x2="154.99" y2="103.46" xlink:href="#e"/><linearGradient id="ct" x1="148.2" y1="95.55" x2="160.56" y2="95.55" xlink:href="#ad"/><linearGradient id="cu" x1="141.7" y1="93.31" x2="171.09" y2="93.81" gradientTransform="translate(-1.54 -2.92) rotate(-.02)" gradientUnits="userSpaceOnUse"><stop offset="0" stop-color="#e8d8d7"/><stop offset=".14" stop-color="#efe4e4"/><stop offset=".39" stop-color="#faf8f7"/><stop offset=".57" stop-color="#fff"/><stop offset="1" stop-color="#e8d2d1"/></linearGradient><linearGradient id="cv" x1="154.88" y1="93.17" x2="154.66" y2="103.45" xlink:href="#e"/><linearGradient id="cw" x1="153.82" y1="79.22" x2="154.29" y2="90.22" gradientTransform="matrix(1, 0, 0, 1, 0, 0)" gradientUnits="userSpaceOnUse"><stop offset="0" stop-color="#e8d8d7"/><stop offset=".4" stop-color="#efe4e3"/><stop offset="1" stop-color="#fff"/></linearGradient><linearGradient id="cx" x1="156.52" y1="125.58" x2="155.74" y2="78.28" gradientTransform="translate(-1.54 -2.92) rotate(-.02)" xlink:href="#e"/><linearGradient id="cy" x1="155.5" y1="100.94" x2="155.31" y2="118.95" gradientTransform="translate(-1.54 -2.92) rotate(-.02)" xlink:href="#e"/><linearGradient id="d`" x1="174.68" y1="115.21" x2="194.57" y2="74.3" gradientTransform="translate(-1.54 -2.92) rotate(-.02)" xlink:href="#ad"/><linearGradient id="da" x1="1534.94" y1="58.4" x2="1553.84" y2="19.53" gradientTransform="translate(1661.62 -68.95) rotate(175.46) scale(1 -1)" xlink:href="#e"/><linearGradient id="db" x1="112.94" y1="81.51" x2="110.88" y2="64.45" xlink:href="#e"/><linearGradient id="dc" x1="102.28" y1="5.66" x2="124.15" y2="5.66" gradientTransform="translate(20.6 44.35) rotate(-1.88)" gradientUnits="userSpaceOnUse"><stop offset="0" stop-color="#42231c"/><stop offset=".36" stop-color="#3e211a"/><stop offset=".66" stop-color="#341b16"/><stop offset=".93" stop-color="#23120e"/><stop offset="1" stop-color="#1e100c"/></linearGradient><linearGradient id="dd" x1="1250.18" y1="35.12" x2="1272.05" y2="35.12" gradientTransform="translate(1432.41 34) rotate(-178.95) scale(1 -1) skewX(.01)" xlink:href="#dc"/><linearGradient id="de" x1="150.18" y1="-.13" x2="154.11" y2="69.02" gradientTransform="matrix(1, 0, 0, 1, 0, 0)" xlink:href="#dc"/><linearGradient id="df" x1="152.14" y1="62.45" x2="154.79" y2="74.3" xlink:href="#ad"/><linearGradient id="dg" x1="153.47" y1="15.62" x2="149.88" y2=".41" gradientTransform="matrix(1, 0, 0, 1, 0, 0)" gradientUnits="userSpaceOnUse"><stop offset="0" stop-color="#3f2119"/><stop offset=".41" stop-color="#43231b"/><stop offset=".87" stop-color="#502b24"/><stop offset="1" stop-color="#562f28"/></linearGradient><linearGradient id="dh" x1="120.47" y1="65.94" x2="144.1" y2="51.96" xlink:href="#e"/><linearGradient id="di" x1="145.8" y1="62.8" x2="130.88" y2="59.2" gradientTransform="translate(-1.54 -2.92) rotate(-.02)" gradientUnits="userSpaceOnUse"><stop offset="0" stop-color="#fff"/><stop offset=".47" stop-color="#fcfcfc"/><stop offset=".77" stop-color="#f5f3f3"/><stop offset="1" stop-color="#ece7e7"/></linearGradient><linearGradient id="dj" x1="149.28" y1="72.22" x2="130.15" y2="53.03" gradientTransform="matrix(1, 0, 0, 1, 0, 0)" gradientUnits="userSpaceOnUse"><stop offset="0" stop-color="#b89c8c"/><stop offset="1" stop-color="#715241"/></linearGradient><linearGradient id="dk" x1="149.63" y1="71.24" x2="134.01" y2="55.36" xlink:href="#dj"/><radialGradient id="dl" cx="2718.58" cy="-50.56" fx="2718.58" fy="-50.56" r="9.83" gradientTransform="translate(2745.98 -16.48) rotate(177.19) scale(.96 -1.02) skewX(.41)" gradientUnits="userSpaceOnUse"><stop offset="0" stop-color="#2a3a3b"/><stop offset="1" stop-color="#1c2727"/></radialGradient><linearGradient id="dm" x1="1253.46" y1="73.33" x2="1277.09" y2="59.35" gradientTransform="translate(1440.78 8.18) rotate(-179.31) scale(1 -1)" xlink:href="#e"/><linearGradient id="dn" x1="1278.75" y1="70.5" x2="1263.84" y2="66.9" gradientTransform="translate(1442.33 5.31) rotate(-179.29) scale(1 -1)" xlink:href="#di"/><linearGradient id="do" x1="186.65" y1="73.07" x2="167.33" y2="55.53" xlink:href="#dj"/><linearGradient id="dp" x1="193.84" y1="88.99" x2="173.31" y2="60.94" xlink:href="#dj"/><radialGradient id="dq" cx="1541.41" cy="10.66" fx="1541.41" fy="10.66" r="9.84" gradientTransform="translate(-1304.47 -40.72) rotate(3.5) scale(.96 1.02) skewX(.41)" xlink:href="#dl"/><linearGradient id="dr" x1="1499.38" y1="68.19" x2="1517.04" y2="67.35" gradientTransform="translate(-1336.96 -9.74) rotate(-.07)" xlink:href="#dc"/><linearGradient id="ds" x1="1260.54" y1="110.48" x2="1264.18" y2="72.41" gradientTransform="translate(1440.78 8.18) rotate(-179.31) scale(1 -1)" gradientUnits="userSpaceOnUse"><stop offset="0" stop-color="#cd8845"/><stop offset="1" stop-color="#b25e38"/></linearGradient><linearGradient id="dt" x1="2632.25" y1="76.87" x2="2649.9" y2="76.03" gradientTransform="translate(2777.65 14.69) rotate(-179.24) scale(1 -1)" xlink:href="#dc"/><linearGradient id="du" x1="127.59" y1="103.06" x2="131.24" y2="65.02" gradientTransform="matrix(1, 0, 0, 1, 0, 0)" xlink:href="#ds"/></defs><g id="a"/><g id="b"><g id="c"><g><path class="it" d="M79.81,122.21s-14.94,27.71-16.13,30.28c-1.19,2.57-12.55,37.76-15.32,43.56-2.78,5.8-15.05,27.28-19.93,27.85-4.88,.58-21.96,.62-24.43-3.36-1.07-1.73-2.87-7.28-2.74-10.15,.54-11.65,8.93-25.51,10.93-29.87,2.87-6.24,34.1-49.48,35.47-51.79,1.37-2.31,11.19-16.94,11.19-16.94l20.96,10.41Z"/><path class="ip" d="M219.47,132.38c8.42,4.47,18.46,10.03,20.61,12.29,13.25,13.9,20.97,69.76,22.18,71.09,1.2,1.33,10.65,41.14,10.68,47.19,.04,6.05-15.7,58.69-16.99,60.94-1.29,2.25-22.46-10.22-22.46-10.22,0,0,9.21-47.69,10.51-50.3s-25.53-61.55-25.53-61.55c0,0-5.63-72.96,1-69.44Z"/><path class="e`" d="M257.92,278.31c8.98,0,7.39,3.69,2.89,16.81-8.66,25.25-8.98,27.8-19.98,26.2-9.76-1.41-2.37-18.68,1.64-30.06,3.03-8.62,10.53-12.96,15.44-12.96Z"/><path class="it" d="M222.36,327.75s14.38-4.77,22.2,11.81l-14.55,17.1-7.66-28.91Z"/><path class="dy" d="M232.4,353.86l2.69-3.16s-4.97-17.77-9.09-22.81l-3.64-.14,10.04,26.11Z"/><path class="eb" d="M242.94,341.47l1.63-1.91s-7.38-14.18-21.72-12.83l-1.24,2.21s15.01,1.85,21.33,12.53Z"/><path class="ea" d="M230.02,311.81l.35-1.3s12.28-2.42,26.44,11.07l-.63,1.8-26.16-11.57Z"/><path class="ip" d="M230.02,311.81s9.2-2.66,26.51,11.27l-11.96,16.48s-8.88-12.49-22.2-11.81l7.66-15.94Z"/><path class="ei" d="M233.83,311.7s7.52,.68,13.67,5.08c0,0-5.12,11.85-8.23,17.27-4.5-4.74-12.59-6.07-12.59-6.07l7.15-16.28Z"/><path class="ip" d="M162.36,369.54s-5.53-40.84-5.32-47.15c.48-14.51,.48-143.38,.48-143.38,0,0-1.32-40.42,.09-41.55,11.41-9.14,12.87-6.29,22.3-22,0,0,34.56,14.44,48.57,22.57,3.26,1.89-5.26,44.37-5.26,44.37,0,0-5.91,63.53-6.65,68.7-.44,3.07,1.37,35.68-.81,52.08-.73,5.47,7.79,55.93,7.79,55.93,0,0-45.73,8.5-61.21,10.43Z"/><ellipse class="eh" cx="159.21" cy="686.55" rx="90.45" ry="12.92"/><g><path class="ek" d="M234.32,654.66s-.35,6.06,.7,8.93c1.55,4.24,14.81,19.15,15.11,22.98,.52,6.62-2.41,5.99-2.41,5.99,0,0-12.42,1.97-22.37,1.41-6.67-.38-11.88-2.91-12.41-3.7-1.58-2.36-3.59-6.45-3.59-6.45l-8.89-1.31s-.12-9.97,1.04-10.53l2.56-13.56s27.98-5.24,30.25-3.76Z"/><path class="ej" d="M209.37,683.82s-.24-8.09-3.97-9.93c-2.36-1.16-2.96-1.41-3.88-1.96-1.28,.69-1.09,10.6-1.09,10.6,0,0,2.21,.38,8.94,1.29Z"/><path class="em" d="M249.11,692.04s-28.38,4.05-36.18-1.79c0,0,2.54,4.62,16.93,5,15.95,.42,19.26-3.2,19.26-3.2Z"/><path class="el" d="M241.02,685.01s-14.46,.44-22.54-3.69c-8.07-4.12-6.33,9.73,5.11,9.64,11.43-.09,31.05-6.85,17.43-5.96Z"/></g><path class="ir" d="M202.51,666.27l-.52,3.12s18.75-7.1,22.5-6.88c3.76,.22,10.92,1.92,10.92,1.92,0,0-.56-1.82-.99-3.86,0,0-9.38-2.37-11.92-2.15-2.54,.22-20,7.84-20,7.84Z"/><g><path class="en" d="M84.59,654.66s.35,6.06-.7,8.93c-1.55,4.24-14.81,19.15-15.11,22.98-.52,6.62,2.41,5.99,2.41,5.99,0,0,12.42,1.97,22.37,1.41,6.67-.38,11.88-2.91,12.41-3.7,1.58-2.36,3.59-6.45,3.59-6.45l8.89-1.31s.12-9.97-1.04-10.53l-2.56-13.56s-27.98-5.24-30.25-3.76Z"/><path class="ed" d="M109.53,683.82s.24-8.09,3.98-9.93c2.36-1.16,2.96-1.41,3.88-1.96,1.28,.69,1.09,10.6,1.09,10.6,0,0-2.21,.38-8.94,1.29Z"/><path class="ec" d="M69.79,692.04s28.38,4.05,36.19-1.79c0,0-2.54,4.62-16.93,5-15.95,.42-19.25-3.2-19.25-3.2Z"/><path class="ef" d="M77.89,685.01s14.46,.44,22.54-3.69c8.07-4.12,6.33,9.73-5.11,9.64-11.43-.09-31.04-6.85-17.43-5.96Z"/></g><path class="ir" d="M84.63,657.88l-.31,3.96s18.94-.11,31.66,2.6l-.73-3.86-30.62-2.7Z"/><path class="ip" d="M159.21,196.9s.06-54.93-2.16-56.41c-2.22-1.48-22.45-13.36-26.88-25.92,0,0-28.88,8.56-44.03,17.21-6.77,3.87,1.19,23.07,1.19,23.07,0,0,7.14,93.3,7.35,96.24,1.63,23.32,5.02,52.31,5.02,52.31,0,0,4.98,42.44,3.45,52.16,0,0,26.05,14.43,55.8,12.99-.47-10.86,.26-171.66,.26-171.66Z"/><path class="eg" d="M99.7,303.4s-.22-1.91-.41-3.62c0,0,34.84,9.97,116.79,.75,0,0-.09,1.27-.3,2.65,0,0-32.45,6.73-60.3,5.57-27.86-1.16-55.77-5.35-55.77-5.35Z"/><path class="ee" d="M90.14,365.15l-2.59,171.6-1.51,89.47-4.48,12.61,2.9,21.02c4.62-.03,8.23-.34,17.64,.73-7.53-1.87-12.47-3.1-12.47-3.1,0,0,6.7-40.36,10.15-56.75,3.45-16.38,4.15-110.83,4.15-114.28s19.26-137.11,27.02-169.02c1.02-4.19,2.22-7.79,3.58-10.88-11.59-.47-30.49-2.92-34.85-3.14,.08,2.81-.37,7.53-1.11,13.15-2.53,19.1-8.45,48.59-8.45,48.59Z"/><path class="dw" d="M229.84,566.07l-.86-64.68-.86-138.84s-10.07-39.99-12.35-59.38c-12.16,1.15-25.53,2.33-36.78,3.19l13.77,62.23s12.36,106.64,12.36,116.13,4.39,86.74,5.25,93.64c.86,6.9,10.29,80.14,10.29,80.14,0,0-8.34,4.36-18.48,9.09l.07,.23s14.66-5.17,18.97-6.9c4.31-1.72,13.73,1.79,13.73,1.79l1.79-18.17-.86-20.7-6.04-57.78Z"/><g><path class="it" d="M88.76,85.12c.03-1.21,1.76-9.53,1.88-10.68,.11-1.13,10.89-9.73,10.89-9.73l-20.61,4.95-5.83,10.13c4.2,2.75,13.67,5.55,13.67,5.33Z"/><path class="it" d="M116.5,87.2c-1.82-1-4.19-1.35-7.15,.5-2.96,1.85-14.16,10.68-14.16,10.68l-7.2-6.87s.48-3.34,.63-5.48c-4.97-1.51-6.4-8.51-10.6-11.26l-3.18,5.08-13.29,35.85,17.11,8.38s2.67-4.43,3.44-4.7c2.11-.73,15.41-9.89,17.09-11.93,0,0,.36-.92,.92-1.46,.56-.54,15.32-13.75,16.2-14.35,.88-.6,2.02-3.45,.2-4.44Z"/><path class="dv" d="M95.18,98.39s9.35-7.65,10.47-8.73c0,0-.47,7.69-4.06,14.99-.52,.46-1.23,1.06-2.41,2.81,0,0-3.03-7.15-4-9.07Z"/><path class="dx" d="M88.84,84.35s1.75-8.35,1.79-9.35c.04-1,6.64-7.63,6.64-7.63l-8.75,1.56-.92,3.25s.69,3.22,.42,4.81c-.27,1.59-2.09,4.31-2.09,4.31,0,0,1.28,1.62,2.9,3.05Z"/><path class="ep" d="M79.65,76.39s3.59,1.16,4.09,1.51c.5,.35,3.53-6.39,4.3-8.85l-3.93,.7-4.46,6.64Z"/><g><path class="eo" d="M111.83,77.23c-.1-.27-4.61-14.64-6.88-21.14,.48-1.36,1.15-3.35,1.02-3.54-.09-.12-2.27,.4-2.27,.4-.3,.08-2.5,4.37-5.23,8.94-3.16,5.28-6.86,10.84-7.04,11.25-.1,.25,2.37,7.14,4.89,13.9,2.41,6.46,4.67,12.76,4.85,12.73,0,0,1.26,.18,2.27-.4,.6-.35,.23-1.89-.21-3.27,1.19-2.46,2.73-5.83,4.26-9.12,2.18-4.72,4.39-9.6,4.34-9.75Z"/><path class="eq" d="M93.71,72.75c.17-.41,3.87-5.96,7.04-11.25,2.74-4.57,4.99-9,5.23-8.94,.53,.13,7.99,23.93,8.12,24.27,.06,.15-2.15,5.03-4.34,9.75-2.87,6.21-5.82,12.71-6.32,12.79-.19,.03-2.44-6.27-4.85-12.73-2.52-6.75-4.99-13.65-4.89-13.9Z"/><path class="fc" d="M110.03,84.57c-2.51,5.4-5.65,11.95-5.94,12.04-.22,.07-1.96-5.85-3.88-11.51-2.22-6.57-4.64-13.05-4.5-13.38,.05-.13,.41-.8,.97-1.8l13.35,14.65Z"/><path class="er" d="M96.69,69.92c2.45-4.43,8.69-15.35,9.03-15.11,.42,.29,7.43,22.41,7.48,22.69,.02,.12-1.42,3.32-3.16,7.07l-13.35-14.65Z"/></g><path class="it" d="M82.73,60.16c.92-.38,10.45-4.73,11.2-4.86,.74-.13,9.42-.05,9.93,.31,.5,.36,1.17,1.02,1.6,1.6,.43,.58-.21,3.12-.9,3.58-.69,.45-30.23,8.34-30.23,8.34,0,0,4.46-6.5,5.41-7.33,.95-.83,3-1.64,3-1.64Z"/><path class="et" d="M79.38,62.16c-.36,.41-2.16,2.67-2.16,2.67l27.53-4.15s.73-1.13,.78-2.18c0,0-13.56-.3-16.06,.4-2.5,.7-7.51,2.17-10.09,3.25Z"/><path class="it" d="M103.09,59.95c1.99,.09,2.92,.36,3.11,1.43,.19,1.07,.02,4.41-2,4.77-2.02,.36-8.91-.14-8.91-.14l-22.88,6.03s4.88-8.35,5.91-8.75c1.02-.4,10.67-3.13,11.52-3.29,.85-.15,13.26-.05,13.26-.05Z"/><path class="fk" d="M73.7,69.85c.88-1.75,3.19-4.96,3.19-4.96,0,0,7.01-2.4,9.21-2.85,1.6-.33,12.79-.6,13.35-.54,.56,.06,2.21,.78,2.47,1.57,.26,.78,.28,2.23-.24,3.2-.78,.08-6.07,.29-6.07,.29,0,0-18.9,3.09-21.91,3.29Z"/><path class="ew" d="M79.51,112.94c-1.19-2.1,4.25-15.95,6.75-16.98,2.5-1.03,8.45,3.78,9.39,5.92,2.19,4.98-2.51,7.31-5.92,8.95-4.07,1.95-9.03,4.21-10.22,2.11Z"/><path class="f`" d="M87.98,91.51s5.92,5.33,7.2,6.87c1.16,1.4,3.95,7.2,4,9.07l-.93,.77s-1.4-5.87-2.63-7.47c-1.23-1.6-7.64-9.24-7.64-9.24Z"/><path class="fb" d="M79.93,76.77s3.5,1.55,3.83,1.99c.33,.45,4.91,6.98,4.91,6.98l.37-2.28s-3.46-6.5-4.3-6.83c-.84-.32-4.54-.43-4.54-.43l-.27,.57Z"/><path class="es" d="M78.71,124.25s2.08-3.15,2.78-3.91c1.34-1.45,10.42-6.07,11.18-6.6,3.62-2.54,5.77-4.81,6.51-6.29-1.7,1.71-7.73,4.74-9.13,5.52-1.4,.79-9.6,2.02-11.45,7.76-.31,.95,.11,3.52,.11,3.52Z"/><path class="eu" d="M110,88.21c.9-.53,3.52-1.39,4.76-.95,1.24,.44,2.24,1.05,1.9,2.36-.34,1.31-11.1,10.05-11.1,10.05,0,0,3.55-10.93,4.44-11.46Z"/><path class="it" d="M58.85,111.65s2.65-12.45,2.77-13.57c.13-1.13,4.28-16.6,5.08-17.64,.8-1.04,9.23-13.9,9.55-13.95,.32-.06,9.93-3.53,11.63-3.83,1.7-.3,8.84-.25,10.81-.27,1.97-.02,2.07,.56,2.61,2.34,.54,1.78-3.02,3.39-5.82,3.65,0,0-4.36,.78-5.77,.24l-5.61,2.74-4.88,6.07-3.81,6.96s2.24,3.35,2.61,7.25c.37,3.9,.79,13.67,0,16.61-.79,2.93-1.4,6.9-3.28,7.45-1.88,.55-13.11-.49-15.89-4.04Z"/><path class="ev" d="M73.02,84.26s4.49,2.29,4.54,3.05c.05,.76,.65,13.29,.49,13.95-.16,.65,.22,7.75,.22,7.75,0,0,1.58-8.11,1.52-9.2-.06-1.09,7.74-7.44,8.2-8.29,.41-.77,1.13-6.59,.59-7.16-.54-.57-3.94-6-4.88-6.51-3.51-1.91-5.3-1.25-5.3-1.25,.49,.72,2.48,7.49-5.38,7.66Z"/><path class="ey" d="M31.27,151.3s33.31-34.34,34.12-36.4c.82-2.06-3.49-16.87-1.59-25.27-1.72,3.56-4.04,18.98-4.95,22.02l-27.58,39.65Z"/><path class="fp" d="M70.69,112.75c2.37,2.86,5.53-3.19,5.91-12.74,.29-7.4-2.59-14.02-6.64-14.67-4.05-.65-4.26,21.41,.73,27.41Z"/><path class="fg" d="M73.02,84.26l6.82-.67c.44-.12,3.52-1.18,4.46-5.69-.58,7.51-1.27,11.22-4.65,17.09,0,0-.7-5.81-1.54-7.18-.83-1.37-5.1-3.54-5.1-3.54Z"/><path class="fj" d="M64.64,86.67s1.67-5.47,1.87-5.85c.2-.38,8.41-13.19,9.71-14.33,1.3-1.14,9-3.7,12.23-3.91s10.7-.19,10.7-.19c0,0-8.61,.29-11.3,1.17-2.69,.88-10.2,3.29-10.82,4.02-.62,.73-8.85,12.69-12.39,19.09Z"/><path class="fl" d="M77.27,64.39s.54-.81,.95-1.11c.41-.3,10.35-3.23,11.64-3.42,1.29-.19,12.82,.08,12.82,.08,0,0-11.5,.47-12.8,.68-3.98,.66-12.61,3.76-12.61,3.76Z"/><path class="ex" d="M81.01,60.96s10.76-5.04,12.92-5.66c1.19-.34,8.63,.01,9.64,.23-2.02,.14-8.14,.24-9.29,.58-1.15,.35-13.27,4.85-13.27,4.85Z"/><path class="fa" d="M89.33,67.31c-.35-.04-5.9,3.19-6.7,2.99,0,0-.2,1.6-.78,2.5-2.52,3.37-5.13,3.07-5.13,3.07,1.14,1.12,3.2,.69,3.2,.69,0,0,2.96-2.99,4.18-5.21,1.56-.51,4.39-1.93,5.36-2.58,1.26,.07,7.72,.53,11.01-2.21,0,0-7.93,1.14-11.14,.75Z"/></g><path class="fe" d="M131.16,306.37c-.02,3.24-1.75,6.47-2.72,10.49-7.76,31.91-25.87,165.57-25.87,169.02s-2.59,94.86-6.04,111.24c-3.45,16.38-7.21,62.67-7.21,62.67,0,0,6.18,.31,14.32,1,8.27,.94,12.13,1.97,12.13,1.97,0,0,2.81-7,6.27-13.04,3.45-6.04,3.45-17.25,3.45-17.25l4.31-25.87,4.31-88.82s12.11-66.4,13.83-68.99c1.73-2.59,12.9-57.26,12.9-57.26,12.07,39.67,19.83,106.41,19.83,106.41l6.04,75.89,9.49,39.67-1.72,19.83-.86,9.48,4.31,10.35,4.33,14.73c10.46-3.59,19.35-7.1,19.35-7.1,0,0-3.49-76.61-4.35-83.51-.86-6.9-11.21-83.65-11.21-93.13s-7.76-117.28-7.76-117.28l-19.3-60.5c-9.62,.73-15.88,1.47-47.82,0Z"/><path class="ff" d="M134.12,517.78s15.23-72.15,16.1-73.59c.86-1.44,10.64-50.59,10.64-50.59,0,0,14.15,66.85,14.73,72.31,.58,5.46,5.87,38.79,7.82,66.15,0,0,.73-72.63,.16-75.79-.57-3.16-22.13-79.05-22.13-79.05,0,0-9.77,20.7-10.92,27.02-1.15,6.32-16.38,113.54-16.38,113.54Z"/><path class="fd" d="M215.73,305.37c-9.38,.85-42.83,3.5-50.43,4.15-16.23,1.4-65.59-3.88-65.59-3.88l-1.12,10.92s19.75,3.45,56.06,5.17c12.44,.59,50.36-2.93,63.27-4.95-.86-5.68-2.25-10.86-2.2-11.41Z"/><path class="fm" d="M215.87,304.01c-9.38,.85-42.97,3.82-50.57,4.48-16.23,1.4-65.59-3.88-65.59-3.88l-1.01,10.91s19.64,3.46,55.96,5.18c12.44,.59,50.21-2.85,63.12-4.87-.86-5.68-1.8-11.24-1.9-11.81Z"/><path class="iw" d="M165.45,319.04s.19,1.31,.05,1.86c-.14,.56-14.19,1.22-15.33-.76-1.14-1.98-.95-10.01,.03-11.23,.98-1.22,15.12-1.55,15.3-.67,.08,.4,0,1.84,0,1.84,0,0-12.02-.1-12.83,.46-.82,.56-.51,3.36-.51,3.36h4.53v1.95l-4.58-.04s-.33,2.75,.39,3.27c.72,.52,12.95-.02,12.95-.02Z"/><path class="fo" d="M105.29,163.53c16.44-9.67,24.67-7.01,50.29-6.29,25.62,.72,42.07-4.35,51.26,4.84,9.19,9.19-7.74,48.36-45.94,50.78-38.2,2.42-72.05-39.65-55.61-49.33Z"/><path class="fq" d="M152.75,323.08s-1.29,33.78,1.61,37c2.9,3.22,8.69,4.18,8.69,4.18,0,0-5.47-2.9-6.76-5.79-1.29-2.9-3.54-35.39-3.54-35.39Z"/><polygon class="iu" points="108.64 305.47 110.44 305.67 109.57 317.05 107.72 316.82 108.64 305.47"/><polygon class="iu" points="140.75 308.09 142.13 308.16 140.92 319.92 139.44 319.84 140.75 308.09"/><polygon class="fi" points="140.12 321.68 135.14 321.19 136.56 306.81 141.58 306.86 140.12 321.68"/><rect class="fh" x="104" y="304.38" width="5" height="14.89" transform="translate(31.17 -8.96) rotate(5.64)"/><polygon class="ir" points="177.43 307.49 178.99 307.36 180.8 319.66 178.76 319.81 177.43 307.49"/><polygon class="ir" points="210.37 304.52 212.06 304.35 213.73 316.4 211.69 316.66 210.37 304.52"/><polygon class="fn" points="179.85 321.12 174.88 321.72 173.12 306.93 178.13 306.7 179.85 321.12"/><rect class="hc" x="207.13" y="304.38" width="5" height="14.89" transform="translate(-35.44 27.01) rotate(-6.8)"/><path class="gj" d="M155.54,129.7c6.5-.59,16.57-9.56,22.13-15.37,0,0-1.16-20.45-1.37-22.31,0,0-16.19,11.68-44.55,1.82,0,0,.02,11.66,.18,19.8,7.5,8.22,18.3,16.54,23.62,16.05Z"/><path class="gm" d="M131.85,108.67s-.11,3.68,.71,5.48c.66,1.45,2.52,7.25,8.44,10.66,5.92,3.4,12.52,6.22,14.55,6.29,2.03,.07,11.5-2.89,13.13-4.07,1.63-1.18,8.29-7.25,8.44-9.62,.15-2.37,.6-5.98,.14-10.64,0,0-2.38,10.06-7.39,13.6-5.03,3.55-11.69,6.81-13.62,7.1-1.92,.3-14.21-5.48-16.72-7.4-2.52-1.92-6.34-8.58-7.67-11.4Z"/><path class="gl" d="M184.8,118.16l-9.96,22.86c-5.85-5.54-11.02-9.82-11.02-9.82,0,0-13.1-.22-15.21,.67-.97,.41-3.89,4.25-6.74,8.27l-16.5-23.97s-2.69,10.2,0,16.16c2.69,5.96,11.92,22.53,11.92,22.53,0,0,13.15-16.17,14.04-16.51,.89-.33,8.89-2.36,11.03,.3,1.44,1.8,16.81,16.07,16.81,16.07,0,0,6.61-17.52,7.15-22.39,.86-7.64-1.52-14.16-1.52-14.16Z"/><g><path class="iv" d="M148.37,135.02s3.66-4.41,7.1-3.93c2.83,.39,8.27,2.38,8.45,3.08,.18,.7-1.26,11.21-2.45,13.11-1.2,1.9-7.32,1.91-9.35,.56-2.03-1.34-3.75-12.82-3.75-12.82Z"/><path class="gg" d="M148.91,138.11l-.77-4.07s3.53-2.63,7.4-2.94c0,0-6,5.24-6.63,7.02Z"/><path class="iv" d="M168.59,184.11c-.22-4.16-6.37-30.19-6.55-30.82-.18-.63-1.13-7.56-1.13-7.56l-7.31,.1s-1.59,2.85-2.49,9.28c-.91,6.43-4.83,29.21-4.83,29.21l-.15,59.16-1.62,52.45,13.78,15.69,12.92-16.84s-1.31-24.94-1.89-51.23c-.59-26.44-.46-54.25-.73-59.44Z"/><path class="gc" d="M152.12,147.84s7.18,1.29,9.35-.56l5.32,26.9-7.44-21.22s-9.34,10.26-9.85,12.32l2.63-17.44Z"/><path class="ge" d="M163.63,137.43l.61-3.98s-3.7-1.51-8.71-2.36c0,0,5.89,2.62,8.1,6.33Z"/><path class="gd" d="M162.86,142.22s-.35,4.15-1.61,5.45c-1.57,1.63-4.07,1.63-5.02,1.55-.85-.07-3.47-.1-4.64-1.96-1.17-1.86-1.54-4.09-1.54-4.09,0,0,2.38,4.12,5.69,4.68,3.31,.56,5.77-3.34,7.13-5.65Z"/></g><path class="gk" d="M128.22,134.37l8.67,15.82,7.68-10.31s-8.52,8.85-16.35-5.51Z"/><path class="hi" d="M171.06,141.45l7.75,8.74,5.75-17.81s-4.83,12.02-6.97,11.7c-2.14-.32-6.54-2.63-6.54-2.63Z"/><path class="hl" d="M217.93,316.78s9.95,17.83,14.47,37.08c0,0-3.11,8.78-4.26,12.3-2.94-4.28-17.42-17.48-17.42-17.48l7.2-31.9Z"/><polygon class="hk" points="90.08 369.54 89.33 351.27 98.59 316.56 96.16 343.05 90.08 369.54"/><path class="hf" d="M182.52,116.17s23.39,8.19,41.67,18.74l-41.56-15.02-.11-3.72Z"/><path class="gf" d="M155.53,131.1s18.62-7.77,20.62-15.32c1.58-5.99,1.15-8.53,1.15-8.53,0,0,2.63,3.28,4.65,5.93,4.21,5.53,3.63,8.38,3.63,13.54s-6.76,23.47-6.76,23.47c0,0-12.82-14.71-14.43-15.65-1.61-.94-4.63-2.78-8.85-3.44Z"/><path class="gi" d="M155.54,131.1s7.89-3.77,13.44-7.7c2.79-1.97,6.35-4.65,7.89-11.17,.56-2.34,.42-5,.42-5,0,0,3.83,2.86,.54,9.72-3.15,6.57-10.83,12.44-22.29,14.14Z"/><path class="gh" d="M244.57,164.31c2.2-4.34,25.33,88.12,20.21,87.33-8.66-1.33-39.49-49.32-20.21-87.33Z"/><path class="hj" d="M219.63,220.59c.21-2.87,8.03-52.76,4.32-43.53-9.03,22.46-12.07,29.92-11.89,34.93,.24,6.75,4.5,45.21,4.5,45.21,0,0,1.84-25.41,3.08-36.61Z"/><path class="hn" d="M224.93,176.94c-1.67,5.33-4.9,23.15-4.1,29.05,.81,5.9,7.44,21.91,7.44,21.91l14.25,37.28-12.16,45.33s1.27-.25,3.98-.11c.19-.54,17.22-48.81,16.24-51.88-.98-3.08-20.76-44.5-25.66-81.57Z"/><path class="ip" d="M89.01,130.39c-8.9,3.69-39.93,25.97-39.93,25.97L15.37,224.08s16.22-.22,21.01-3.65c4.79-3.43,54.58-42.19,54.58-42.19,0,0,1.45-43.44-1.95-47.85Z"/><path class="hq" d="M55.86,150.3l27.56-16.97s-16.94,38.06-21.72,52.06c-3.27,9.6-12.06,29.67-27.61,36.58l21.77-71.67Z"/><path class="hp" d="M127.56,115.16s-25.05,6.98-42.83,17.41l43.48-13.63-.66-3.78Z"/><path class="hm" d="M155.54,131.1s-20.45-9.7-22.24-15.63c-1.59-5.25-1.45-6.8-1.45-6.8,0,0-2.83,3.29-5.38,5.9-4.86,4.97,1.06,18.54,1.06,18.54l9.36,17.08s9.77-13.32,11.99-15.76c2.22-2.44,6.66-3.33,6.66-3.33Z"/><path class="he" d="M131.85,108.67s.61,5.03,2.72,8.38c2.71,4.31,12.88,10.01,20.97,14.04,0,0-6.72-.38-17.23-8-2.25-1.63-4.86-3.89-6.07-7.1-2.06-5.49-.4-7.32-.4-7.32Z"/><path class="hh" d="M72.93,135.1l1.01-1.95s-6.82-2.21-12.38-4.89-10.15-5.9-10.15-5.9l-1.42,2.02,8.88,8.18,14.07,2.53Z"/><path class="ip" d="M50.4,123.57s10.75,8.99,22.85,10.85c0,0-5.88,11.82-8.75,17.98-2.56,5.52-14.01,42.72-14.7,45.01-2.53,8.45-11.14,19.63-18.61,25.64-4.62,3.73-28.24,2.79-30.36-3.46-2.72-8.04,1.12-21.27,12.05-40.8,8.05-14.38,37.51-55.22,37.51-55.22Z"/><path class="hg" d="M39.61,138.73l4.81-6.79,24.42,11.46-3.94,8.15s-6.97-1.82-14.36-5.79c-7.39-3.97-10.93-7.04-10.93-7.04Z"/><path class="ip" d="M50.4,123.57s3.32,2.61,10.42,6.15c6.95,3.47,12.66,4.69,12.66,4.69l-7.6,15.1s-7.75-2.4-13.85-5.32-11.14-7.29-11.14-7.29l9.5-13.34Z"/><g><polygon class="ho" points="87.18 170.6 70.6 186.69 71.57 195.13 88.68 182.35 87.18 170.6"/><path class="hd" d="M91.27,209.01c-1.45-15.46-5.39-43.14-3.66-38.41,.67,1.83,9,15.7,9.47,25.42,.26,5.27-2.2,57.67-2.2,57.67,0,0-1.32-20.24-3.61-44.68Z"/><path class="fy" d="M70.6,186.69s-29.35,25.56-31.61,27.15c-8.09,5.71-20.25,10.74-35.25,8.57,0,0,5.96,3.32,16.55,3.32,3.53,0,9.4-1.24,16.12-4.29,6.72-3.05,39.81-30.06,39.81-30.06l-5.63-4.68Z"/></g><path class="ft" d="M6.79,218.29c4.06,3.78,23.02-8.53,27.56-13.07s22.84-52.4,22.84-52.4c0,0-14.59-7.62-16.29-9.08,0,0-23.84,39.93-27.69,46.99-3.85,7.06-10.59,23.67-6.42,27.56Z"/><path class="fs" d="M44.89,139.96l9.34-13.85s5.74,3.34,8.1,4.33l-8.79,14.45s-5.03-2.1-8.65-4.93Z"/><g><path class="fr" d="M196.08,53.73c4.63,.52,3.79,3.26,2.06,8.07-1.2,12.62-5.09,18.65-6.72,17.96-2.99-1.26-.95-26.65,4.66-26.03Z"/><path class="fu" d="M193.43,71.41s2.01-2.45,.89-6.81c-2.64-10.29,4.69-11.67,3.71-4.4,0,0-1.35-3.27-2.19-2.18-1.03,1.34,1.42,1.8,.73,7.3-.36,2.86-3.13,6.09-3.13,6.09Z"/><path class="it" d="M191.83,53.35c1.35-33.91-12.76-47.98-43.73-46.09,0,0-21.1,.75-26.38,12.31-5.64,12.36-7.69,23.51-7.27,39.44,.88,33.27,7.24,33.92,12.42,40.37,3.52,4.38,12.92,13.4,15.95,15.03,4.9,2.64,19.86,2.25,24.52-.7,4.09-2.59,9.17-8.89,15.1-16.58,4.84-6.27,9.46-7.61,8.93-25.55-.32-10.93,.08-8.81,.45-18.23Z"/><path class="gb" d="M170.79,82.94c6.67,.63,18.35,3.29,20.22-8.01,1.77-10.65-.19-15.38-3.48-16.25-8.1-2.13-17.43,2.77-21.21,5.54-8.83,6.48-7.34,17.6,4.48,18.72Z"/><path class="ga" d="M155.39,106.31c-2.32,.01-8.12,1.58-7.95,2.43,.51,2.57,5.89,3,8.2,2.98,2.32-.01,7-.6,7.1-2.79,.04-.86-5.03-2.63-7.35-2.62Z"/><path class="g`" d="M109.51,54.27c-4.6,.76-3.61,3.45-1.63,8.16,1.87,12.54,6.59,17.56,8.19,16.78,2.92-1.42-.99-25.87-6.56-24.95Z"/><path class="gs" d="M138.47,63.21c-1.24-.66-15.57-6.13-20.74-3.98-2.33,.97-3.96,9.61-.69,20.27,3.74,12.18,14.32,5.87,18.62,3.52,10.42-5.69,12.48-14.67,2.81-19.81Z"/><path class="fx" d="M158,77.29c4.59-1.14,6.4-.46,6.4-.46-2.67-2.34-6.4,.46-6.4,.46Z"/><path class="fw" d="M185.45,59.88c2.9-21.93-23.7-12.57-23.7-12.57-2.1,1.96-3.32,13.31-1.4,14.45,11.98,7.06,25.09-1.88,25.09-1.88Z"/><path class="fv" d="M122.31,60.47c-1.92-22.83,22.54-12.93,22.54-12.93,1.56,2.35,4.31,12.35,2.44,13.56-12.25,7.88-24.98-.63-24.98-.63Z"/><path class="go" d="M144.98,76.5s2.38-.39,5.99,.84c0,0-3.52-2.67-5.99-.84Z"/><path class="gv" d="M161.55,69.65c1.05,2.66-.17,4.58-2.02,5.72-1.97,1.29-7.73,1.67-9.89,.47-1.84-.94-3.27-2.84-2.77-6.53,0,0-1.15,.86-2.17,1.87-2.19,1.98-2.39,5.42,.02,5.46,0,0,1.44-.87,3.25-.55,2.17,.38,1.74,2.61,6.79,2.66,4.4,.04,2.99-2.06,5.79-2.46,2.79-.4,3.16,.32,3.79,.6,1.4,0,2.77-4.34-2.8-7.24Z"/><path class="gu" d="M150.39,7.23c-26.71,3.08-34.35,16.72-35.75,29.46-.45,4.14,.56,31.75,.74,35.64,.94-9,4.03-12.16,5.55-16.66,2.44-6.94,4.15-9.82,4.01-19.1,.19-16.98,17.14-19.56,26.43-19.73,19.87-.36,28.84,5.01,29.1,18.75,.19,9.75,3.29,12.79,5.16,18.47,2.35,5.92,5.33,10.79,6.08,17.35,0,0-.82-33.76-1.49-40.96-.88-9.43-8.69-26.82-39.84-23.23Z"/><path class="gt" d="M188.14,62.94c-1.2-.68-2.1,.31-4.59,1.13-2.45,.81-9.15,2.07-6,3.79,3.48,1.89,8.34-.7,8.93-1.19,.59-.49,3.15-2.89,1.66-3.73Z"/><path class="gy" d="M123.09,64.87c-2.54-.69-3.48-1.62-4.65-.89-1.44,.91,1.24,3.18,1.85,3.63,.61,.46,5.6,2.79,8.98,.73,3.06-1.87-3.7-2.79-6.19-3.47Z"/><g><path class="gr" d="M168.42,77.08c10.43,8.43,2.44,13.88,2.44,13.88,3.21-2.83,8.3-6.22,7.99-7.5-1.03-4.27-10.42-6.38-10.42-6.38Z"/><path class="gq" d="M130.06,84.11c.19,1.31,3.89,4.54,6.32,7.06,0,0-6.49-6.98,2.54-13.27,0,0-9.5,1.8-8.86,6.21Z"/><path class="gp" d="M145.59,101.39c11.27-1.25,18.89,.14,18.89,.14-8.55-5.32-18.89-.14-18.89-.14Z"/><path class="iq" d="M133.29,83.37c.23,.24,.4,.56,.69,.7,5.41,2.4,5.49,4.68,7.81,5.94,8.23,4.43,17.82,3.36,24.28-.21,3.71-2.05,4.19-4.44,8.64-6.17,.59-.23,.71-.7,.71-.7-23.75,5.81-42.12,.44-42.12,.44Z"/><path class="gw" d="M154.56,94.68c-3.2,0-6.36-.63-6.36,0s2.78,2.02,5.99,2.02,6.37-1.39,6.37-2.02-2.79,0-5.99,0Z"/><path class="hb" d="M143.13,88.4c-1-.18-1.43,1.57-1.43,1.57,3.02,2.2,6.65,3.04,12.45,3.08,7.75,.05,12.03-3.3,12.03-3.3,0,0-1.09-1.69-2.36-1.43-2.18,.44-6.28,1.26-10.04,1.26-4.15,0-8.35-.76-10.64-1.17Z"/><path class="ha" d="M142.74,95.49c12.37,9.84,24.2-.67,24.2-.67-12.5,6.65-24.2,.67-24.2,.67Z"/><path class="h`" d="M138.66,84.51s.08,2.03,2.15,2.93c1.2,.52,3.89,2.56,14.34,2.24,10.45-.32,12.51-2.84,12.99-3.28,.89-.82,1.29-2.21,1.29-2.21,0,0-15.74,3.08-30.76,.32Z"/><path class="in" d="M138.62,84.31s.07,.92,.41,1.47c.29,.46,8.63,1.67,14.94,1.71,6.3,.04,14.53-1.59,14.82-1.95,.45-.57,.7-1.57,.7-1.57,0,0-7.09,2.38-30.87,.33Z"/><path class="gn" d="M132,82.73s1.52,.88,1.29,.64c0,0,18.38,5.37,42.12-.44l1.29-.65c-12.89,2.15-44.7,.44-44.7,.44Z"/></g><path class="gx" d="M134.89,107.77s6.92,10.06,20.05,10.01c12.88-.05,17.94-8.95,17.94-8.95,0,0-6.62,7.01-18.72,6.83-11.68-.17-19.26-7.89-19.26-7.89Z"/><path class="hr" d="M191.68,64.27s.56,17.71-2.32,24.5c-1.74,4.11-13.7,16.67-15.49,18.91,0,0,1.55-8.16,5.05-12.49,3.5-4.33,12.37-8.03,12.76-30.93Z"/><path class="ic" d="M115.15,66.66s0,17.8,3.7,23.56c3.35,5.2,13.92,15.55,15.34,16.86,0,0-.37-6-4.2-10.04-3.83-4.03-13.41-9.61-14.84-30.39Z"/><path class="ht" d="M113.48,71.87s-2.14-2.34-1.24-6.75c2.09-10.42-5.3-11.41-3.93-4.19,0,0,1.18-3.33,2.08-2.29,1.1,1.28-1.32,1.88-.35,7.33,.52,2.83,3.45,5.91,3.45,5.91Z"/><path class="hs" d="M127.57,44.44c4.98-1.77,11.48-.87,16.01,.94,1.72,.69,1.5,3.38-.51,3.4-3.79,.03-8.09-1.34-12.57-1.13-5.25,.24-7.54,1.84-7.54,1.84,0,0,2.7-4.37,4.61-5.05Z"/><path class="i`" d="M178.72,44.09c-5-1.69-11.49-.71-16,1.17-1.71,.71-1.45,3.4,.56,3.39,3.79-.02,8.07-1.46,12.55-1.31,5.26,.17,7.56,1.73,7.56,1.73,0,0-2.76-4.33-4.68-4.98Z"/><path class="hy" d="M115.16,67.33s.78-7.64,2.61-14.31c1.69-6.14,3.42-8.06,3.24-12.48-.27-6.45,3.56-18.45,5.81-19.76,16.71-9.74,45.99-4.69,52.11-.47,2.62,1.81,5.61,14.58,5.81,19.69,.19,4.78,2.76,7.16,4.45,13.17,1.61,5.72,2.53,12.66,2.53,12.66,0,0,.73-9.52,2.41-11.2-.14-5.89-.44-21.99-2.46-32.33-1.22-6.23-8.06-19.95-28.68-21.57-12.02-.95-23.16,.2-29.99,2.25-6.41,1.92-17.25,11.55-18.75,23.11-1.22,9.43-2.05,29.7-2.05,29.7,0,0,3.03,3.84,2.95,11.54Z"/><path class="ib" d="M154.4,65.24c3.37,0,4.42,5.9,3.95,7.59-.47,1.69-7.96,3.61-8.49-.7-.46-3.8,2.41-6.89,4.53-6.89Z"/><path class="ia" d="M119.6,13.61s4.07-6.37,10.71-9.74c7.67-3.9,32.69-5.7,44.33-1.29,6.21,2.36,11.13,8.42,11.13,8.42,0,0-8.35-7.13-24.62-7.99-16.28-.86-30.41-.11-41.54,10.6Z"/><g><path class="hx" d="M145.64,60.56c.82-.93,.07-3.02-.33-4.31-1.26-4.05-4.23-5.49-10.48-5.85-2.05-.12-5.61,.2-7.85,2.14-1.73,1.5-2.78,4.4-2.64,5.8,.07,.71,1.29,4.16,8.1,4.61,4.45,.29,11.49-.45,13.2-2.39Z"/><path class="ii" d="M139.03,53.67c3.28,.47,5.25,6.6,5.25,6.6-.37,.66-1.58,1.05-2.48,1.2-2.55,.42-6.3,1.27-11.97-.21-2.04-.53-3.71-2.88-3.71-2.88,3.86-4.6,1.9-6.3,12.91-4.71Z"/><path class="is" d="M144.27,60.24s-1.83-2.36-11.76-2.6c-2.9-.07-4.75,1.5-5.41,1.94-.57-.46-.8-.89-.98-1.2,0,0,4.68-5.94,8.24-5.54,3.56,.41,9.19,2.88,9.91,7.4Z"/><path class="hw" d="M135.7,54.24c3.02-.15,5.86,1.42,5.68,4.7-.07,1.25-.69,2.61-.82,2.75-1.59,.33-3.4,.45-4.87,.47-1.64,.03-3.83-.4-4.39-.57-.75-.89-.83-1.74-.91-2.41-.38-3.18,2.3-4.8,5.31-4.94Z"/><path class="hu" d="M141.37,58.78s-6.24-1.94-10.97-.89c0,0,.74-3.88,4.23-3.87,3.81,.01,6.72,.69,6.73,4.76Z"/><path class="ij" d="M135.71,54.69c1.85-.04,3.37,1.46,3.4,3.33,.03,1.88-1.45,3.42-3.3,3.46-1.85,.03-3.38-1.46-3.4-3.34-.03-1.88,1.45-3.42,3.3-3.46Z"/><path class="io" d="M137.2,59.72c-.34-.69-.03-1.56,.7-1.94,.72-.37,1.58-.11,1.92,.59,.34,.7,.03,1.56-.7,1.94-.72,.37-1.58,.11-1.92-.59Z"/><path class="ie" d="M161.45,60.66c-.81-.94-.03-3.02,.39-4.31,1.31-4.04,4.3-5.44,10.55-5.72,2.05-.09,5.61,.27,7.83,2.24,1.71,1.52,2.72,4.43,2.57,5.83-.08,.71-1.34,4.14-8.16,4.51-4.45,.24-11.49-.59-13.17-2.55Z"/><path class="hv" d="M168.15,53.84c-3.29,.44-5.33,6.54-5.33,6.54,.36,.66,1.57,1.07,2.46,1.23,2.54,.46,6.28,1.34,11.98-.06,2.05-.5,3.74-2.83,3.74-2.83-3.81-4.65-1.82-6.33-12.86-4.87Z"/><path class="is" d="M162.83,60.35s1.86-2.34,11.79-2.45c2.9-.03,4.73,1.56,5.39,2,.57-.45,.81-.88,.99-1.19,0,0-4.61-6-8.17-5.64-3.57,.36-9.23,2.77-10,7.28Z"/><path class="ig" d="M171.47,54.45c-3.02-.18-5.88,1.35-5.73,4.63,.05,1.25,.69,2.62,.82,2.76,.51,.18,3.4,.51,4.87,.56,1.63,.05,3.8-.37,4.36-.54,.76-.88,.85-1.73,.94-2.4,.42-3.18-2.24-4.82-5.25-5.01Z"/><path class="if" d="M165.75,58.93s6.26-1.86,10.98-.75c0,0-.7-3.89-4.19-3.93-3.81-.03-6.73,.61-6.79,4.68Z"/><path class="il" d="M171.45,54.91c-1.85-.06-3.39,1.42-3.44,3.29-.05,1.88,1.41,3.44,3.26,3.5,1.85,.05,3.39-1.42,3.44-3.3,.05-1.88-1.41-3.44-3.26-3.49Z"/><path class="io" d="M175.41,59.74c.35-.69,.04-1.56-.68-1.94-.72-.38-1.58-.13-1.93,.56-.35,.69-.05,1.56,.67,1.94,.72,.38,1.58,.13,1.93-.56Z"/><path class="io" d="M171.98,57.94c.28-.54,.04-1.23-.53-1.52-.57-.3-1.25-.1-1.53,.44-.28,.54-.04,1.23,.53,1.52,.57,.3,1.25,.1,1.53-.44Z"/><path class="ih" d="M162.83,60.37s.12-4.04,3.15-6.22c3.17-2.28,9.31-2.17,12.51-.25,1.93,1.15,2.52,4.81,2.52,4.81,0,0-1.97-1.36-4.07-2.34-2.64-1.24-3.7-1.15-5.35-1.15-2.38,0-3.28,.4-4.35,.68-2.78,.74-4.4,4.47-4.4,4.47Z"/><path class="id" d="M181,58.73s-1.74,2.29-4.15,2.87c-1.5,.36-3.63,.95-6.96,.71,0,0,2.53,.98,7.38-.26,2.61-.67,3.73-3.31,3.73-3.31Z"/><path class="io" d="M134.35,57.93c-.27-.55-.02-1.23,.55-1.52,.57-.29,1.25-.09,1.52,.46,.27,.55,.02,1.23-.55,1.52-.57,.29-1.25,.09-1.52-.46Z"/><path class="im" d="M144.27,60.26s-.07-4.04-3.07-6.25c-3.14-2.32-9.28-2.28-12.5-.4-1.94,1.13-2.58,4.78-2.58,4.78,0,0,1.99-1.33,4.1-2.29,2.66-1.21,3.72-1.1,5.36-1.08,2.38,.03,3.28,.44,4.34,.73,2.77,.78,4.35,4.52,4.35,4.52Z"/><path class="ik" d="M126.12,58.39s1.72,2.31,4.11,2.92c1.5,.38,3.7,.99,7.04,.79,0,0-2.63,.95-7.46-.35-2.6-.7-3.69-3.35-3.69-3.35Z"/></g></g></g></g></g></svg>