<?xml version="1.0" encoding="UTF-8"?><svg xmlns="http://www.w3.org/2000/svg" xmlns:xlink="http://www.w3.org/1999/xlink" viewBox="0 0 221.03 700.41"><defs><style>.eg{fill:url(#u);}.eh{fill:url(#t);}.ei{fill:url(#v);}.ej{fill:url(#e);}.ek{fill:url(#d);}.el{fill:url(#g);}.em{fill:url(#f);}.en{fill:url(#p);}.eo{fill:url(#o);}.ep{fill:url(#s);}.eq{fill:url(#q);}.er{fill:url(#r);}.es{fill:url(#i);}.et{fill:url(#h);}.eu{fill:url(#k);}.ev{fill:url(#j);}.ew{fill:url(#m);}.ex{fill:url(#l);}.ey{fill:url(#n);}.f`{fill:url(#x);}.fa{fill:url(#w);}.fb{fill:url(#y);}.fc{fill:url(#aa);}.fd{fill:url(#ag);}.fe{fill:url(#ab);}.ff{fill:url(#ah);}.fg{fill:url(#ai);}.fh{fill:url(#ad);}.fi{fill:url(#ao);}.fj{fill:url(#aj);}.fk{fill:url(#ae);}.fl{fill:url(#ap);}.fm{fill:url(#af);}.fn{fill:url(#a`);}.fo{fill:url(#as);}.fp{fill:url(#aq);}.fq{fill:url(#ar);}.fr{fill:url(#al);}.fs{fill:url(#ax);}.ft{fill:url(#aw);}.fu{fill:url(#am);}.fv{fill:url(#ac);}.fw{fill:url(#an);}.fx{fill:url(#at);}.fy{fill:url(#ay);}.g`{fill:url(#au);}.ga{fill:url(#ak);}.gb{fill:url(#av);}.gc{fill:url(#cc);}.gd{fill:url(#cb);}.ge{fill:url(#ca);}.gf{fill:url(#cd);}.gg{fill:url(#ck);}.gh{fill:url(#cj);}.gi{fill:url(#ci);}.gj{fill:url(#c`);}.gk{fill:url(#cg);}.gl{fill:url(#cf);}.gm{fill:url(#ce);}.gn{fill:url(#be);}.go{fill:url(#bg);}.gp{fill:url(#bf);}.gq{fill:url(#bm);}.gr{fill:url(#bd);}.gs{fill:url(#bo);}.gt{fill:url(#bn);}.gu{fill:url(#ba);}.gv{fill:url(#bh);}.gw{fill:url(#bc);}.gx{fill:url(#bb);}.gy{fill:url(#cx);}.h`{fill:url(#cl);}.ha{fill:url(#cs);}.hb{fill:url(#cr);}.hc{fill:url(#cq);}.hd{fill:url(#ch);}.he{fill:url(#co);}.hf{fill:url(#cn);}.hg{fill:url(#cm);}.hh{fill:url(#ct);}.hi{fill:url(#cy);}.hj{fill:url(#cp);}.hk{fill:url(#cw);}.hl{fill:url(#cv);}.hm{fill:url(#cu);}.hn{fill:url(#b`);}.ho{fill:url(#by);}.hp{fill:url(#bu);}.hq{fill:url(#bl);}.hr{fill:url(#bw);}.hs{fill:url(#bv);}.ht{fill:url(#bi);}.hu{fill:url(#bp);}.hv{fill:url(#bk);}.hw{fill:url(#bj);}.hx{fill:url(#bt);}.hy{fill:url(#bq);}.i`{fill:url(#bx);}.ia{fill:url(#bs);}.ib{fill:url(#br);}.ic{fill:url(#d`);}.id{fill:url(#dc);}.ie{fill:url(#db);}.if{fill:url(#dk);}.ig{fill:url(#dn);}.ih{fill:url(#dj);}.ii{fill:url(#dh);}.ij{fill:url(#de);}.ik{fill:url(#dd);}.il{fill:url(#dg);}.im{fill:url(#df);}.in{fill:url(#da);}.io{fill:url(#dy);}.ip{fill:url(#ds);}.iq{fill:url(#dv);}.ir{fill:url(#dm);}.is{fill:url(#dp);}.it{fill:url(#do);}.iu{fill:url(#dr);}.iv{fill:url(#di);}.iw{fill:url(#dl);}.ix{fill:url(#dx);}.iy{fill:url(#du);}.j`{fill:url(#dw);}.ja{fill:url(#dq);}.jb{fill:url(#dt);}.jc{fill:url(#ec);}.jd{fill:url(#ea);}.je{fill:url(#e`);}.jf{fill:url(#ef);}.jg{fill:url(#ee);}.jh{fill:url(#ed);}.ji{fill:url(#eb);}.jj{fill:#f4d6b0;}.jk{fill:#f0f0f4;}.jl{fill:#f6d3aa;}.jm{fill:#f497a1;}.jn{fill:#fff;}.jo{fill:#f0c499;}.jp{fill:#f0c498;}.jq{fill:#f16d79;}.jr{fill:#951c27;}.js{fill:#dddddc;}.jt{fill:#daa279;}.ju{fill:#5a5b63;}</style><radialGradient id="d" cx="124.01" cy="-2031.43" fx="124.01" fy="-2031.43" r="41.01" gradientTransform="translate(-109.86 1306.16) scale(1.92 .3)" gradientUnits="userSpaceOnUse"><stop offset="0" stop-color="#e3e2e1"/><stop offset=".36" stop-color="#e7e6e6"/><stop offset=".78" stop-color="#f5f4f4"/><stop offset="1" stop-color="#fff"/></radialGradient><linearGradient id="e" x1="179.82" y1="609.46" x2="187.09" y2="668.63" gradientTransform="matrix(1, 0, 0, 1, 0, 0)" gradientUnits="userSpaceOnUse"><stop offset="0" stop-color="#f0c498"/><stop offset=".52" stop-color="#f0c69a"/><stop offset=".85" stop-color="#f3cda3"/><stop offset="1" stop-color="#f6d3aa"/></linearGradient><linearGradient id="f" x1="202.93" y1="675.09" x2="202.93" y2="629.81" xlink:href="#e"/><linearGradient id="g" x1="193.7" y1="685.41" x2="187.14" y2="618.99" gradientTransform="matrix(1, 0, 0, 1, 0, 0)" gradientUnits="userSpaceOnUse"><stop offset="0" stop-color="#2b2828"/><stop offset=".5" stop-color="#1f1d1d"/><stop offset="1" stop-color="#1b191a"/></linearGradient><linearGradient id="h" x1="67.31" y1="621.4" x2="74.44" y2="679.38" xlink:href="#e"/><linearGradient id="i" x1="51.7" y1="676.42" x2="56.63" y2="644.5" xlink:href="#e"/><linearGradient id="j" x1="70.02" y1="697.62" x2="63.5" y2="631.62" xlink:href="#g"/><linearGradient id="k" x1="91.82" y1="284.74" x2="116.69" y2="655.81" gradientTransform="matrix(1, 0, 0, 1, 0, 0)" gradientUnits="userSpaceOnUse"><stop offset="0" stop-color="#2b2a2e"/><stop offset=".71" stop-color="#302f32"/><stop offset="1" stop-color="#343336"/></linearGradient><linearGradient id="l" x1="109.07" y1="869.73" x2="76.95" y2="621.21" xlink:href="#k"/><linearGradient id="m" x1="199.65" y1="867.87" x2="167.62" y2="620.07" xlink:href="#k"/><linearGradient id="n" x1="59.06" y1="193.34" x2="80.21" y2="336.85" gradientTransform="matrix(1, 0, 0, 1, 0, 0)" gradientUnits="userSpaceOnUse"><stop offset="0" stop-color="#2b2a2e"/><stop offset=".99" stop-color="#252426"/></linearGradient><linearGradient id="o" x1="154.69" y1="574.03" x2="139.9" y2="349.21" gradientTransform="matrix(1, 0, 0, 1, 0, 0)" gradientUnits="userSpaceOnUse"><stop offset="0" stop-color="#39393d"/><stop offset="1" stop-color="#3b3b3f"/></linearGradient><linearGradient id="p" x1="-160.48" y1="271.01" x2="135.61" y2="271.77" gradientTransform="matrix(1, 0, 0, 1, 0, 0)" gradientUnits="userSpaceOnUse"><stop offset="0" stop-color="#2b2a2d"/><stop offset="1" stop-color="#343336"/></linearGradient><linearGradient id="q" x1="161.9" y1="868.14" x2="79.19" y2="344.73" xlink:href="#n"/><linearGradient id="r" x1="47.23" y1="581.1" x2="32.44" y2="356.28" xlink:href="#o"/><linearGradient id="s" x1="26.46" y1="268.6" x2="41.97" y2="270.12" gradientTransform="matrix(1, 0, 0, 1, 0, 0)" gradientUnits="userSpaceOnUse"><stop offset="0" stop-color="#39383c"/><stop offset=".1" stop-color="#38373b"/><stop offset="1" stop-color="#343336"/></linearGradient><linearGradient id="t" x1="133.3" y1="267.02" x2="111.25" y2="273.6" xlink:href="#s"/><linearGradient id="u" x1="76.97" y1="106.81" x2="79.24" y2="131.86" gradientTransform="matrix(1, 0, 0, 1, 0, 0)" gradientUnits="userSpaceOnUse"><stop offset="0" stop-color="#5a5b63"/><stop offset="0" stop-color="#595a62"/><stop offset=".65" stop-color="#38383e"/><stop offset=".99" stop-color="#2c2b31"/></linearGradient><linearGradient id="v" x1="79.09" y1="147.06" x2="77.39" y2="102.69" gradientTransform="matrix(1, 0, 0, 1, 0, 0)" gradientUnits="userSpaceOnUse"><stop offset="0" stop-color="#5a5b63"/><stop offset=".39" stop-color="#5e5f68"/><stop offset=".87" stop-color="#6b6c77"/><stop offset="1" stop-color="#70717d"/></linearGradient><linearGradient id="w" x1="104.07" y1="74.06" x2="86.36" y2="124.81" xlink:href="#e"/><linearGradient id="x" x1="146.54" y1="-81.61" x2="137.38" y2="-93.66" gradientTransform="translate(-19.31 182.04) rotate(9.31) scale(.77 .85)" gradientUnits="userSpaceOnUse"><stop offset="0" stop-color="#ffd8b2"/><stop offset=".65" stop-color="#fcd6af"/><stop offset="1" stop-color="#f6d3aa"/></linearGradient><linearGradient id="y" x1="49.67" y1="130.63" x2="74.56" y2="130.63" gradientTransform="translate(-5.12 -1.3) rotate(-.62)" xlink:href="#x"/><linearGradient id="a`" x1="47.19" y1="-159.58" x2="45.24" y2="-176.03" gradientTransform="translate(4.75 292.97) rotate(9.9)" xlink:href="#e"/><linearGradient id="aa" x1="89.81" y1="57.22" x2="72.44" y2="177.28" xlink:href="#e"/><linearGradient id="ab" x1="103.62" y1="119.42" x2="105.74" y2="176.16" xlink:href="#e"/><linearGradient id="ac" x1="51.85" y1="120.99" x2="53.7" y2="170.47" xlink:href="#e"/><linearGradient id="ad" x1="85.38" y1="264.15" x2="79.35" y2="158.31" gradientTransform="matrix(1, 0, 0, 1, 0, 0)" gradientUnits="userSpaceOnUse"><stop offset="0" stop-color="#fff"/><stop offset=".36" stop-color="#f8f8f9"/><stop offset="1" stop-color="#f0f0f4"/></linearGradient><linearGradient id="ae" x1="124.64" y1="242.4" x2="120.78" y2="348.45" xlink:href="#n"/><linearGradient id="af" x1="115.81" y1="127.99" x2="150.37" y2="127.99" gradientTransform="matrix(1, 0, 0, 1, 0, 0)" gradientUnits="userSpaceOnUse"><stop offset="0" stop-color="#70717d"/><stop offset=".08" stop-color="#6d6e79"/><stop offset=".6" stop-color="#5f6069"/><stop offset="1" stop-color="#5a5b63"/></linearGradient><linearGradient id="ag" x1="80.64" y1="284.7" x2="106.4" y2="-9.13" gradientTransform="matrix(1, 0, 0, 1, 0, 0)" gradientUnits="userSpaceOnUse"><stop offset="0" stop-color="#e0e0e4"/><stop offset="1" stop-color="#f0f0f4"/></linearGradient><linearGradient id="ah" x1="81.2" y1="285.4" x2="80.79" y2="296.8" xlink:href="#n"/><linearGradient id="ai" x1="41.85" y1="240.64" x2="37.89" y2="349.57" xlink:href="#n"/><linearGradient id="aj" x1="80.93" y1="156.76" x2="81.51" y2="300.74" xlink:href="#ag"/><linearGradient id="ak" x1="101.77" y1="286.65" x2="127.6" y2="-8" xlink:href="#ag"/><linearGradient id="al" x1="59.59" y1="282.85" x2="85.34" y2="-10.98" xlink:href="#ag"/><linearGradient id="am" x1="35.35" y1="122.79" x2="12.53" y2="137.44" xlink:href="#af"/><linearGradient id="an" x1="130.15" y1="274.39" x2="103.56" y2="231.24" xlink:href="#u"/><linearGradient id="ao" x1="31.76" y1="279.91" x2="59.22" y2="236.32" xlink:href="#u"/><linearGradient id="ap" x1="-4534.06" y1="706.7" x2="-4412.94" y2="711.03" gradientTransform="translate(-4424.22 429.45) rotate(168.71) scale(1 -1)" xlink:href="#e"/><linearGradient id="aq" x1="6.88" y1="99.78" x2="13.43" y2="211.07" xlink:href="#af"/><linearGradient id="ar" x1="3.73" y1="206.23" x2="167.13" y2="281.51" xlink:href="#u"/><linearGradient id="as" x1="26.86" y1="128.9" x2="30.89" y2="288.52" xlink:href="#u"/><linearGradient id="at" x1="116.55" y1="190.9" x2="115.54" y2="237.1" xlink:href="#u"/><linearGradient id="au" x1="46.61" y1="189.38" x2="45.6" y2="235.58" xlink:href="#u"/><linearGradient id="av" x1="55.86" y1="214.42" x2="60.55" y2="148.28" xlink:href="#ag"/><linearGradient id="aw" x1="99.49" y1="217.51" x2="104.17" y2="151.37" xlink:href="#ag"/><linearGradient id="ax" x1="117.85" y1="124.33" x2="117.85" y2="329.78" xlink:href="#u"/><linearGradient id="ay" x1="41.32" y1="124.33" x2="41.32" y2="329.78" xlink:href="#u"/><linearGradient id="b`" x1="108.09" y1="216.03" x2="116.02" y2="99.33" xlink:href="#v"/><linearGradient id="ba" x1="45.6" y1="211.78" x2="53.54" y2="95.01" xlink:href="#v"/><linearGradient id="bb" x1="53.84" y1="198.25" x2="52.21" y2="260.43" xlink:href="#u"/><linearGradient id="bc" x1="-4472.87" y1="580.64" x2="-4394.89" y2="512.04" gradientTransform="translate(-4455.54 332.37) rotate(171.32) scale(1 -1)" gradientUnits="userSpaceOnUse"><stop offset="0" stop-color="#f6d3aa"/><stop offset=".54" stop-color="#f4cfa6"/><stop offset="1" stop-color="#f1c69c"/></linearGradient><linearGradient id="bd" x1="-4550.24" y1="588.02" x2="-4451.46" y2="591.56" gradientTransform="translate(-4455.54 332.37) rotate(171.32) scale(1 -1)" xlink:href="#e"/><linearGradient id="be" x1="90.97" y1="229.61" x2="26.37" y2="207.72" gradientTransform="matrix(1, 0, 0, 1, 0, 0)" xlink:href="#x"/><linearGradient id="bf" x1="-4466.41" y1="536.77" x2="-4436.34" y2="537.85" gradientTransform="translate(-4455.54 332.37) rotate(171.32) scale(1 -1)" xlink:href="#e"/><linearGradient id="bg" x1="-4469.65" y1="545.73" x2="-4421.17" y2="547.46" gradientTransform="translate(-4455.54 332.37) rotate(171.32) scale(1 -1)" xlink:href="#e"/><linearGradient id="bh" x1="-4469.38" y1="553.4" x2="-4419.13" y2="555.2" gradientTransform="translate(-4455.54 332.37) rotate(171.32) scale(1 -1)" xlink:href="#e"/><linearGradient id="bi" x1="-4493.15" y1="567.57" x2="-4416.81" y2="570.3" gradientTransform="translate(-4455.54 332.37) rotate(171.32) scale(1 -1)" xlink:href="#e"/><linearGradient id="bj" x1="68.77" y1="241.4" x2="69.74" y2="221.8" xlink:href="#e"/><linearGradient id="bk" x1="124.86" y1="126.43" x2="128.89" y2="286.05" xlink:href="#u"/><linearGradient id="bl" x1="139.45" y1="210.1" x2="71.47" y2="240.56" xlink:href="#u"/><linearGradient id="bm" x1="-5201.88" y1="1016.43" x2="-5197.61" y2="1026.54" gradientTransform="translate(-5143.57 747.08) rotate(162.93) scale(1 -1)" gradientUnits="userSpaceOnUse"><stop offset="0" stop-color="#f6d3aa"/><stop offset="1" stop-color="#f1c69c"/></linearGradient><linearGradient id="bn" x1="-4583.65" y1="683.22" x2="-4596.16" y2="671.63" gradientTransform="translate(-4497.59 522.46) rotate(167.6) scale(1 -1)" xlink:href="#e"/><linearGradient id="bo" x1="-5195.13" y1="1025.98" x2="-5196.88" y2="1032.59" xlink:href="#bm"/><linearGradient id="bp" x1="-4588.02" y1="685.36" x2="-4599.02" y2="675.17" gradientTransform="translate(-4497.59 522.46) rotate(167.6) scale(1 -1)" xlink:href="#e"/><linearGradient id="bq" x1="-5201.42" y1="1029.49" x2="-5193.18" y2="1035.96" xlink:href="#bm"/><linearGradient id="br" x1="-4577.13" y1="693.68" x2="-4596.28" y2="682.77" gradientTransform="translate(-4497.59 522.46) rotate(167.6) scale(1 -1)" xlink:href="#e"/><linearGradient id="bs" x1="-5194.81" y1="1035.17" x2="-5193.22" y2="1041.19" gradientTransform="translate(-5143.57 747.08) rotate(162.93) scale(1 -1)" gradientUnits="userSpaceOnUse"><stop offset="0" stop-color="#f6d3aa"/><stop offset="1" stop-color="#f1c69c"/></linearGradient><linearGradient id="bt" x1="106.32" y1="199.63" x2="104.68" y2="261.82" xlink:href="#u"/><linearGradient id="bu" x1="144.44" y1="91.69" x2="150.98" y2="202.98" xlink:href="#af"/><linearGradient id="bv" x1="99.8" y1="242.78" x2="99.3" y2="194.69" gradientTransform="matrix(1, 0, 0, 1, 0, 0)" gradientUnits="userSpaceOnUse"><stop offset="0" stop-color="#5a5b63"/><stop offset="1" stop-color="#70717d"/></linearGradient><linearGradient id="bw" x1="164.86" y1="275.07" x2="125.84" y2="232.78" gradientTransform="matrix(1, 0, 0, 1, 0, 0)" gradientUnits="userSpaceOnUse"><stop offset="0" stop-color="#70717d"/><stop offset=".58" stop-color="#60616a"/><stop offset="1" stop-color="#5a5b63"/></linearGradient><linearGradient id="bx" x1="31.26" y1="238.5" x2="-10.29" y2="266.2" gradientTransform="matrix(1, 0, 0, 1, 0, 0)" gradientUnits="userSpaceOnUse"><stop offset="0" stop-color="#5a5b63"/><stop offset=".42" stop-color="#60616a"/><stop offset="1" stop-color="#70717d"/></linearGradient><linearGradient id="by" x1="98.31" y1="110.12" x2="-43.68" y2="60.84" gradientTransform="matrix(1, 0, 0, 1, 0, 0)" gradientUnits="userSpaceOnUse"><stop offset="0" stop-color="#f0c498"/><stop offset=".52" stop-color="#e3af85"/><stop offset="1" stop-color="#daa279"/></linearGradient><linearGradient id="c`" x1="115.2" y1="-9.5" x2="112.07" y2="88.53" gradientTransform="matrix(1, 0, 0, 1, 0, 0)" gradientUnits="userSpaceOnUse"><stop offset="0" stop-color="#4a302b"/><stop offset=".29" stop-color="#392420"/><stop offset=".61" stop-color="#2f1e1a"/><stop offset="1" stop-color="#2c1c18"/></linearGradient><linearGradient id="ca" x1="42.5" y1="-8.5" x2="39.38" y2="88.97" xlink:href="#c`"/><linearGradient id="cb" x1="39.87" y1="65.77" x2="40.73" y2="95.94" gradientTransform="matrix(1, 0, 0, 1, 0, 0)" gradientUnits="userSpaceOnUse"><stop offset="0" stop-color="#dba379"/><stop offset=".49" stop-color="#e3b086"/><stop offset="1" stop-color="#f0c499"/></linearGradient><linearGradient id="cc" x1="-1401.81" y1="164.08" x2="-1400.95" y2="194.25" gradientTransform="translate(-1290.53) rotate(-180) scale(1 -1)" xlink:href="#cb"/><linearGradient id="cd" x1="96.28" y1="74.13" x2="95.09" y2="55.9" gradientTransform="matrix(1, 0, 0, 1, 0, 0)" gradientUnits="userSpaceOnUse"><stop offset="0" stop-color="#f6d3aa"/><stop offset=".52" stop-color="#f5d0a7"/><stop offset=".85" stop-color="#f2c99e"/><stop offset="1" stop-color="#f0c498"/></linearGradient><radialGradient id="ce" cx="119.5" cy="77.13" fx="119.5" fy="77.13" r="12.88" gradientTransform="translate(-13.45) scale(.95 1)" gradientUnits="userSpaceOnUse"><stop offset="0" stop-color="#f9b28d"/><stop offset=".61" stop-color="#f7c49d"/><stop offset="1" stop-color="#f6d3aa"/></radialGradient><linearGradient id="cf" x1="57.02" y1="51.22" x2="59.67" y2="75.76" gradientTransform="matrix(1, 0, 0, 1, 0, 0)" gradientUnits="userSpaceOnUse"><stop offset="0" stop-color="#f0c498"/><stop offset=".15" stop-color="#f2c99e"/><stop offset=".48" stop-color="#f5d0a7"/><stop offset="1" stop-color="#f6d3aa"/></linearGradient><radialGradient id="cg" cx="71.99" cy="78.37" fx="71.99" fy="78.37" r="12.04" xlink:href="#ce"/><linearGradient id="ch" x1="100.7" y1="71.37" x2="107.3" y2="71.37" gradientTransform="matrix(1, 0, 0, 1, 0, 0)" gradientUnits="userSpaceOnUse"><stop offset="0" stop-color="#ffd8b2"/><stop offset="1" stop-color="#f6d3aa"/></linearGradient><linearGradient id="ci" x1="46.1" y1="71.65" x2="52.69" y2="71.65" xlink:href="#ch"/><linearGradient id="cj" x1="80.84" y1="-30.01" x2="75.16" y2="78.19" gradientTransform="matrix(1, 0, 0, 1, 0, 0)" gradientUnits="userSpaceOnUse"><stop offset="0" stop-color="#f6d3aa"/><stop offset=".48" stop-color="#f2c99e"/><stop offset="1" stop-color="#f0c498"/></linearGradient><linearGradient id="ck" x1="69.28" y1="101.57" x2="81.25" y2="101.57" gradientTransform="matrix(1, 0, 0, 1, 0, 0)" xlink:href="#x"/><linearGradient id="cl" x1="89.75" y1="83.7" x2="111.08" y2="83.7" gradientTransform="matrix(1, 0, 0, 1, 0, 0)" xlink:href="#x"/><linearGradient id="cm" x1="77.42" y1="109.59" x2="78.11" y2="126.03" gradientTransform="matrix(1, 0, 0, 1, 0, 0)" gradientUnits="userSpaceOnUse"><stop offset="0" stop-color="#daa279"/><stop offset=".48" stop-color="#e3af85"/><stop offset="1" stop-color="#f0c498"/></linearGradient><linearGradient id="cn" x1="66.82" y1="90.08" x2="62.54" y2="86.54" xlink:href="#cd"/><linearGradient id="co" x1="88.35" y1="93.15" x2="93.2" y2="84.85" xlink:href="#cd"/><linearGradient id="cp" x1="68.13" y1="90.69" x2="87.1" y2="90.69" gradientTransform="matrix(1, 0, 0, 1, 0, 0)" gradientUnits="userSpaceOnUse"><stop offset="0" stop-color="#e7d7d6"/><stop offset=".14" stop-color="#efe4e4"/><stop offset=".4" stop-color="#faf8f7"/><stop offset=".57" stop-color="#fff"/><stop offset="1" stop-color="#e7d1d0"/></linearGradient><linearGradient id="cq" x1="61.98" y1="88.53" x2="91.86" y2="88.53" gradientTransform="matrix(1, 0, 0, 1, 0, 0)" gradientUnits="userSpaceOnUse"><stop offset="0" stop-color="#e7d7d6"/><stop offset=".05" stop-color="#eadddc"/><stop offset=".21" stop-color="#f6f0ef"/><stop offset=".39" stop-color="#fcfbfb"/><stop offset=".57" stop-color="#fff"/><stop offset=".69" stop-color="#fbf7f7"/><stop offset=".87" stop-color="#f0e3e3"/><stop offset="1" stop-color="#e7d1d0"/></linearGradient><linearGradient id="cr" x1="67.43" y1="91.89" x2="89.27" y2="91.89" gradientTransform="matrix(1, 0, 0, 1, 0, 0)" gradientUnits="userSpaceOnUse"><stop offset="0" stop-color="#f16e7f"/><stop offset="0" stop-color="#f16e7f"/><stop offset=".23" stop-color="#f17785"/><stop offset=".53" stop-color="#f27b87"/><stop offset=".78" stop-color="#f17784"/><stop offset="1" stop-color="#f16d7d"/></linearGradient><linearGradient id="cs" x1="66.25" y1="88" x2="89.38" y2="88.06" gradientTransform="matrix(1, 0, 0, 1, 0, 0)" gradientUnits="userSpaceOnUse"><stop offset="0" stop-color="#e7d7d6"/><stop offset=".05" stop-color="#e9dbda"/><stop offset=".31" stop-color="#f5eeed"/><stop offset=".48" stop-color="#faf5f5"/><stop offset="1" stop-color="#e7d1d0"/></linearGradient><linearGradient id="ct" x1="69.49" y1="87.01" x2="86.04" y2="87.01" xlink:href="#cr"/><linearGradient id="cu" x1="67.15" y1="60.02" x2="50.43" y2="66.51" xlink:href="#by"/><linearGradient id="cv" x1="63.01" y1="64.25" x2="68.8" y2="64.25" gradientTransform="matrix(1, 0, 0, 1, 0, 0)" gradientUnits="userSpaceOnUse"><stop offset="0" stop-color="#fff"/><stop offset=".45" stop-color="#fcfcfc"/><stop offset=".75" stop-color="#f5f3f3"/><stop offset="1" stop-color="#eae5e5"/></linearGradient><linearGradient id="cw" x1="52.42" y1="64.08" x2="57.24" y2="64.08" xlink:href="#cv"/><linearGradient id="cx" x1="68.59" y1="71.58" x2="54.72" y2="61.72" gradientTransform="matrix(1, 0, 0, 1, 0, 0)" gradientUnits="userSpaceOnUse"><stop offset="0" stop-color="#b69b8b"/><stop offset="1" stop-color="#725342"/></linearGradient><linearGradient id="cy" x1="79.01" y1="72.66" x2="64.6" y2="64.96" xlink:href="#cx"/><radialGradient id="d`" cx="58.94" cy="64.56" fx="58.94" fy="64.56" r="4.16" gradientTransform="matrix(1, 0, 0, 1, 0, 0)" gradientUnits="userSpaceOnUse"><stop offset="0" stop-color="#2a3a3b"/><stop offset="1" stop-color="#1c2727"/></radialGradient><linearGradient id="da" x1="47.17" y1="63.59" x2="68.81" y2="63.59" gradientTransform="matrix(1, 0, 0, 1, 0, 0)" gradientUnits="userSpaceOnUse"><stop offset="0" stop-color="#2c1c18"/><stop offset=".39" stop-color="#2f1e1a"/><stop offset=".71" stop-color="#392420"/><stop offset="1" stop-color="#4a302b"/></linearGradient><linearGradient id="db" x1="58.11" y1="61.59" x2="66.5" y2="79.63" gradientTransform="matrix(1, 0, 0, 1, 0, 0)" gradientUnits="userSpaceOnUse"><stop offset="0" stop-color="#2c1c18"/><stop offset=".36" stop-color="#301e1a"/><stop offset=".74" stop-color="#3c2722"/><stop offset="1" stop-color="#4a302b"/></linearGradient><linearGradient id="dc" x1="103.85" y1="59.55" x2="84.66" y2="67" xlink:href="#cm"/><linearGradient id="dd" x1="85.04" y1="63.89" x2="90.83" y2="63.89" xlink:href="#cv"/><linearGradient id="de" x1="97.99" y1="63.72" x2="102.82" y2="63.72" xlink:href="#cv"/><linearGradient id="df" x1="100.91" y1="68.86" x2="87.37" y2="60.4" xlink:href="#cx"/><linearGradient id="dg" x1="112.14" y1="64.03" x2="94.55" y2="61.95" xlink:href="#cx"/><radialGradient id="dh" cx="93.14" cy="64.19" fx="93.14" fy="64.19" r="4.16" xlink:href="#d`"/><linearGradient id="di" x1="85.04" y1="63.24" x2="106.69" y2="63.24" gradientTransform="matrix(1, 0, 0, 1, 0, 0)" gradientUnits="userSpaceOnUse"><stop offset="0" stop-color="#4a302b"/><stop offset=".29" stop-color="#392420"/><stop offset=".61" stop-color="#2f1e1a"/><stop offset="1" stop-color="#2c1c18"/></linearGradient><linearGradient id="dj" x1="89.74" y1="78.57" x2="94.47" y2="64.3" gradientTransform="matrix(1, 0, 0, 1, 0, 0)" gradientUnits="userSpaceOnUse"><stop offset="0" stop-color="#4a302b"/><stop offset=".26" stop-color="#3c2722"/><stop offset=".64" stop-color="#301e1a"/><stop offset="1" stop-color="#2c1c18"/></linearGradient><linearGradient id="dk" x1="77.1" y1="84.68" x2="77.05" y2="79.5" xlink:href="#cd"/><linearGradient id="dl" x1="78.62" y1="79.52" x2="74.23" y2="68.18" xlink:href="#ch"/><linearGradient id="dm" x1="83.86" y1="78.57" x2="79.52" y2="80.72" xlink:href="#cm"/><linearGradient id="dn" x1="70.44" y1="78.8" x2="75.08" y2="80.69" xlink:href="#cm"/><linearGradient id="do" x1="47.56" y1="50.89" x2="67.68" y2="50.89" gradientTransform="matrix(1, 0, 0, 1, 0, 0)" gradientUnits="userSpaceOnUse"><stop offset="0" stop-color="#2c1c18"/><stop offset=".36" stop-color="#301e1a"/><stop offset=".74" stop-color="#3c2722"/><stop offset="1" stop-color="#4a302b"/></linearGradient><linearGradient id="dp" x1="85.77" y1="51" x2="105.75" y2="51" gradientTransform="matrix(1, 0, 0, 1, 0, 0)" gradientUnits="userSpaceOnUse"><stop offset="0" stop-color="#4a302b"/><stop offset=".26" stop-color="#3c2722"/><stop offset=".64" stop-color="#301e1a"/><stop offset="1" stop-color="#2c1c18"/></linearGradient><linearGradient id="dq" x1="109.66" y1="35.67" x2="111.11" y2="80.63" gradientTransform="matrix(1, 0, 0, 1, 0, 0)" gradientUnits="userSpaceOnUse"><stop offset="0" stop-color="#6b342a"/><stop offset=".29" stop-color="#592b22"/><stop offset=".71" stop-color="#472319"/><stop offset="1" stop-color="#412017"/></linearGradient><linearGradient id="dr" x1="78.56" y1="-1.76" x2="75.8" y2="84.92" xlink:href="#c`"/><linearGradient id="ds" x1="74.45" y1="26.54" x2="59.31" y2=".85" gradientTransform="matrix(1, 0, 0, 1, 0, 0)" gradientUnits="userSpaceOnUse"><stop offset="0" stop-color="#4a302b"/><stop offset=".38" stop-color="#4e332e"/><stop offset=".8" stop-color="#5b3d38"/><stop offset="1" stop-color="#65443f"/></linearGradient><linearGradient id="dt" x1="53.2" y1="-2.61" x2="44.56" y2="59.53" xlink:href="#dj"/><linearGradient id="du" x1="57.87" y1="18.53" x2="54.45" y2="43.14" xlink:href="#dj"/><linearGradient id="dv" x1="69.16" y1="29.06" x2="66.68" y2="46.9" xlink:href="#dj"/><linearGradient id="dw" x1="83.87" y1="23.46" x2="80.23" y2="49.7" xlink:href="#dj"/><linearGradient id="dx" x1="96.91" y1="20.4" x2="92.27" y2="53.83" xlink:href="#dj"/><linearGradient id="dy" x1="88.26" y1="16.51" x2="105.95" y2="55.03" xlink:href="#dj"/><linearGradient id="e`" x1="64.89" y1="7.17" x2="200.74" y2="69.57" gradientTransform="matrix(1, 0, 0, 1, 0, 0)" gradientUnits="userSpaceOnUse"><stop offset="0" stop-color="#4a302b"/><stop offset=".28" stop-color="#3b2621"/><stop offset=".63" stop-color="#2f1e1a"/><stop offset="1" stop-color="#2c1c18"/></linearGradient><linearGradient id="ea" x1="61.04" y1="9.09" x2="161.1" y2="66.92" xlink:href="#e`"/><linearGradient id="eb" x1="55.93" y1="19.23" x2="145.79" y2="71.17" xlink:href="#e`"/><linearGradient id="ec" x1="53.21" y1="22.63" x2="116.53" y2="59.23" xlink:href="#e`"/><linearGradient id="ed" x1="50.38" y1="25.16" x2="98.63" y2="53.05" xlink:href="#e`"/><linearGradient id="ee" x1="38.38" y1="27.78" x2="57.66" y2="38.92" xlink:href="#e`"/><linearGradient id="ef" x1="48.14" y1="24.47" x2="58.96" y2="30.72" xlink:href="#e`"/></defs><g id="a"/><g id="b"><g id="c"><g><path class="jk" d="M53.64,185.63l57.38,.94-.51,36.27s-61.31,1.97-61.13,1.13c.19-.84,4.26-38.34,4.26-38.34Z"/><g><ellipse class="ek" cx="128.41" cy="687.17" rx="92.62" ry="13.23"/><g><g><path class="jl" d="M168.67,607.17s1.58,7.73,1.58,10.29-1.66,8.75-1.09,11.59c.57,2.84,5.07,12.07,5.35,14.9,.28,2.84,3.72,23.67,4.57,24.8,.85,1.13,12.25,6.08,15.36,6.44,13.94,1.61,14.39-5.55,12.97-9.23-1.42-3.69-3.64-10.68-5.11-13.9-1.51-3.31-5.39-20.99-6.81-26.09-1.42-5.11-4.41-23.62-4.41-27.87l-22.41,9.08Z"/><path class="ej" d="M169.13,610.55s1.1,6.75,1.1,8.27-1.63,7.8-1.07,10.23c.56,2.43,7.74,18.53,9.7,38.76,0,0,1.53-15.65,.56-21.48-.81-4.9-1.35-5.26-2.65-20.49,0,0,10.2,.68,10.66,.22,.65-.65,6.78-6.01,6.78-6.01l-3.1-20.08-21.98,10.58Z"/><path class="em" d="M196.92,631.69s6.8,24.64,12.02,36.61c0,0-.95,2.24-2.91,2.24l-9.11-38.85Z"/><path class="el" d="M170.23,618.56s-.83,6.55,.02,9.95c.85,3.4,2.23,7.96,5.13,14.78,2.48,5.83,2.65,20.31,4.35,23.43,.68,1.24,7.18,4.86,14.43,4.86,7.63,0,13.18-.4,13.85-5.51,8.05,11.97,9.64,19.59,2.39,22.7-9.14,3.92-26.78-4.14-29.88-6.16-7.54-4.93-4.03-23.16-4.93-27.13-1.99-8.8-8.42-18.99-8.7-21.61-.26-2.39,1.07-11.62,3.34-15.3Z"/></g><g><path class="jl" d="M51.69,609.96s4.82,15.19,4.82,17.46-2.55,32.05-3.12,34.32c-.57,2.27-2.15,10.18-1.96,11.29,.87,4.93,9.07,7.01,11.46,6.63,3.2-.52,14.28-3.28,15.65-10.14,.48-2.39,.09-16.29,.09-18.27s3.48-22.15,2.63-24.42c-.85-2.27-5.47-9.33-5.75-11.03-.28-1.7-1.7,.13-1.13-10.37l-22.69,4.54Z"/><path class="et" d="M54.44,616.34s2.05,10.36,2.06,11.07c0,.72-.12,2.33-.12,2.33,0,0,3.7,1.49,5.01,1.49s11.32-.83,12.09-1.14c.9,8.65,1.45,40.03-4.64,44.97-1.97,1.6,8.48,.48,9.57,2.03,0,0,.58-26.4,1.89-37.57,1.76-15.05-2.64-18.7-3.93-21.97s-1.51-2.62-1.72-4.36c-.22-1.74-20.2,3.15-20.2,3.15Z"/><path class="es" d="M55.64,639.09s-1.31,9.72-1.6,11.17c-.29,1.45-3.63,19.44-2.61,21.32,1.02,1.89,2.76,.87,2.76,.87,0,0,.54-15.41,1.45-33.36Z"/><path class="ev" d="M81.17,625.6c-1.04-2.4-4.65-7.68-4.65-7.68,4.26,8.96,4.25,14.96,2.97,21.13-2.92,14.08-1.62,18.53-1.38,26.72,.22,7.5-16.67,8.13-20.58,7.26-3.19-.71-4.73-1.92-5.43-3.12-.36-2.71,3.16-27.83,3.16-27.83l-5.31,29.28c-2.23,7.75-.12,16.81,6.86,18.2,5.8,1.16,12.23,.32,16.97-.43,7.25-1.16,7.11-11.64,7.11-13.05s-3.63-23.06,1.44-39.02c.34-1.08,.73-7.09-1.15-11.46Z"/></g></g><path class="eu" d="M157.75,437.64c-4.64-24.49-16.3-112.03-19.74-133.52l-6.8-35.53s-33.83,2.28-41.29,2.28-53.91-8.29-53.91-8.29c0,0-11.35,31.74-11.61,31.52,0,0-10.94,30.37-9.95,43.96,1.51,20.76,6.74,66.21,8.4,77.82,1.66,11.61,27.43,207.37,27.43,207.37l14.32,4.37s11.61-1.66,16.59-4.98c0,0-22.71-282.52,.44-265.78l42.16,106.04,41.57,158.46,21.23,1.06,8.29-7.61s-32.61-153.26-37.14-177.15Z"/><path class="ex" d="M35.49,263.91c-6.81,17.6-20.56,56.97-20.77,69.01-.36,20.61,14.53,116.31,34.8,290.31l15.08,4.37s-17.33-256.16-16.76-265.33c.57-9.17,5.72-51.25,11.16-94.22l-23.51-4.14Z"/><path class="ew" d="M186.59,622.4l8.29-7.61s-35.98-172.51-38.88-193.41c-9.07-65.32-15.25-109.36-16.83-116.1-3.44-14.61-10.29-41.8-10.29-41.8l-34.61,5.22s20.61,56.61,25.77,81.54c5.16,24.93,66.55,272.16,66.55,272.16Z"/><path class="ey" d="M70.4,273.53s4.94,54.36,5.8,55.65c.86,1.29,9.88,7.74,9.88,7.74,0,0-11.17-6.02-12.46-6.45-1.29-.43-5.37-56.73-5.37-56.73l2.15-.21Z"/><path class="eo" d="M123.9,268.59s8.17,42.26,9.46,46.56c1.29,4.3,21.39,97.31,21.39,97.31,0,0-7.49-86.39-10.07-95.42-2.58-9.02-13.9-50.6-13.9-50.6l-6.88,2.15Z"/><path class="en" d="M34.71,261.65s25.9,5.61,42.27,5.61c15.69,0,26.37-1.46,41.39-4.08,4.78-.83,9-1.72,11.97-2.6l2.61,14.37s-51.97,17.42-101.87,.38l3.63-13.68Z"/><path class="eq" d="M81.63,356.85s-6.32,11.54-6.32,20.99,3.31,143.32,5.87,244.78c0,0-3.1,2.18-9.48,3.56,0,0-7.14-108.96-8-115.4-.86-6.45-8.71-132.94,10.35-166.99,0,0,5.16,3.87,12.89,8.59,7.74,13.75,17.47,48.01,24.5,71.34,7.3,24.26,63.5,198.1,63.5,198.1l-9.58-.48L81.63,356.85Z"/><path class="er" d="M35.52,262s-10.76,27.69-12.18,31.94c-.94,2.83-3.7,11.23-5.92,20.3-1.83,7.45-3.29,15.34-3.1,20.96,.37,10.65,4.2,41.26,7.07,69.37-1.92-37.2,.66-66.37,3.24-81.41,2.58-15.04,18.48-59.74,18.48-59.74l-7.59-1.43Z"/><path class="ep" d="M30.46,275.1s3.43,1.37,7.77,2.44c0,0,3.82-10.94,5.06-14.17-6.2-1.23-8.54-1.74-8.54-1.74l-4.29,13.47Z"/><path class="eh" d="M122.21,262.48l8.13-1.91,2.73,14.32s-3.09,1.07-7.52,2.14c-.16-.61-3.33-14.54-3.33-14.54Z"/></g><path class="eg" d="M48.69,119c-.16-.77,2.13-5.64,3.45-6.04,2.18-.65,3.68-1.03,5.84-1.51,22.79-5.05,43.72-.83,46.68,1.85,3.24,2.93,3.7,16.48,3.7,16.48l-57.04,1.39-2.62-12.17Z"/><path class="ei" d="M52.48,117.36s.88-4.64,11.09-5.17c10.21-.53,33.4-3.81,39.56,4.52l1.06-3.7s-4.17-2.7-12.74-3.17c-6.04-.33-28.82,.41-31.46,1-2.64,.59-6.26,1.29-7.91,2.05-1.65,.76,.4,4.46,.4,4.46Z"/><path class="fa" d="M131.24,133.2c-2.84-.12-36.59-14.43-37.58-20.36-1.71-10.25,.25-18.33,.25-18.33l-27.64-9.3c1.27,10.19-3.22,24.85-6.29,30.98-1.95,3.91-11.66,9.92-23.09,13.3,2.08,2.08,26.49,39,42.4,51.5,1.33,1.33,49.19-36.53,51.96-47.79Z"/><path class="f`" d="M87.4,126.75s21.02-1.58,25.21-.89c4.19,.69-19.34,7.09-25.21,.89Z"/><path class="fb" d="M71.06,126.75s-19.57,1-23.73,1.83c-4.17,.83,18.07,4.57,23.73-1.83Z"/><path class="fn" d="M80.81,134.65c1.72-1.9,3.81-7.76,3.81-7.76-1.31,.66-4.48,4.44-5.36,4.03-.88-.41-4.81-5.38-4.67-4.21,.14,1.18,4.5,9.84,6.22,7.94Z"/><path class="fc" d="M119.74,124.94c-14.56-2.82-23.97-10.55-24.57-11.04-1.02-.85-1.78-5-1.78-9.15,0-1.8,.14-4.39,.31-6.73-.55,.56-13,4.03-14.23,4.03-2.84,0-16.83-9.44-17.85-11.31l-.72-.03s.81,19.25-2.9,26.68c-.42,.84-11.04,7.79-19.25,10.14-3.76,2.15,13.72,31.26,15.73,40.62,2.62,12.18,52.59,1.64,52.59,1.64,0,0,18.2-43.77,12.68-44.84Zm-7.04,1.88c2.45,5.04-5.18,29.56-33.57,27.94-28.4-1.62-29.58-16.43-32.16-25.12,1.04-2.38,16.45,.38,17.1-9.31l26.11-6.76c-1.15,15.86,20.99,10.3,22.53,13.25Z"/><path class="fe" d="M102.11,118.5l.58,28.33-.59,6.43s4.73-3.04,5.43-3.53l-1.87-29.46-3.55-1.77Z"/><path class="ju" d="M54.94,208.75c-3.19-26.17-8.68-51.18-10.21-77.13-1.25-4.39-1.76-7.39-1.76-7.39-28.1,6.85-31.69,8.45-31.69,8.45,3.01,1.72,11.76,19.94,15.2,24.67,3.44,4.73,4.73,27.1,5.59,43.02,.86,15.92-.59,30.19,1.72,46.46,2.38,16.74-5.59,38.29-5.59,38.29,3.87,5.34,10.58,8.79,18.47,11.15,13.55-26.94,10.91-57.85,8.27-87.53Z"/><path class="ju" d="M125.41,221.02c-1.72-12.91,.86-44.74,3.01-52.91,2.15-8.17,21.89-35.72,21.89-35.72-.48-.66-10.92-2.64-20.19-5.17-7.06-1.92-13.44-3.46-13.44-3.46-.68,.85-1.71,7.09-4.58,14.56,.32,8.87,1.17,18.05,.59,26.76-5.27,42.79-7.45,85.57,3.78,126.06,10.84-5.57,19.26-11.18,19.26-11.18-6.45-13.77-8.6-46.03-10.32-58.94Z"/><polygon class="fv" points="49.37 122.87 54.37 120.04 54.35 147.36 54.73 150.34 51.01 148.77 49.37 122.87"/><path class="fh" d="M34.52,147.47s-.1,23.65,7.3,36.91c5.97,10.7,23.72,15.52,37.31,15.11,16.18-.48,33.84-3.36,40.09-18.19,7.4-17.58,.92-19.06,3.7-36.64l-10.92-1.64s-11.75,16.76-33.81,14.32c-22.06-2.44-29.11-11.97-29.11-11.97l-14.56,2.11Z"/><path class="fk" d="M97.93,266.44s6.85,55.24,10.46,66.57c3.61,11.33,7.82,14.56,8.36,15.11s19.94-2.13,30.32-11.89l-42.43-70.86s-4.18,1.06-6.7,1.07Z"/><path class="fm" d="M115.81,123.64s21.59,4.12,34.56,8.7c0,0-26.11-4.18-34.56-8.7Z"/><path class="fd" d="M35.34,255.4l90.79-23.61,7.24,29.63s-23.41-4.42-25.06-3.95c-23.58,6.65-77.04,12.17-77.04,12.17l4.07-14.24Z"/><path class="ff" d="M56.71,290.21l-1.26,5.31s38.81,2.93,50.76,0c-.07-1.03-.98-6.7-.98-6.7l-48.52,1.38Z"/><path class="fg" d="M56.71,265.52l8.44,1.04s-6.31,54.37-7.21,59.09c-.9,4.72-4.9,22.85-8.57,23.98-3.66,1.13-30.54-3.81-34.96-12.06-4.42-8.24,42.29-72.05,42.29-72.05Z"/><path class="fj" d="M81.57,211.24c-4.25,0-16.29-.9-26.45-3.7,.31,12.94-.67,25.39-4.41,37.84-4.64,15.25-7.41,29.26-11.25,44.95,16.51,2.33,40.13,3.48,49.63,3.27,11.6-.25,24.09-1.66,34.38-3.34-8.61-27.04-14.53-54.62-16.06-83.18-9.13,4.1-20.83,4.15-25.84,4.15Z"/><path class="ga" d="M94.5,251.95s5.37,31.55,9.32,40.79l7.8-.75-8.08-41.8-9.04,1.76Z"/><path class="fr" d="M60.34,260.17l7.16-1.06s-6.15,28-8.03,33.28l-6.52-.44,7.38-31.78Z"/><path class="ju" d="M97.13,236.31s9.32,76.58,10.51,82.19c1.29,6.09,6.13,27.9,10.96,27.9,4.01,0,31.62-8.37,36.15-16.65,0,0-19.97-87.77-20.72-92.29l-36.9-1.14Z"/><path class="fu" d="M11.3,132.68s7.7-4.36,29.25-7.68c0,0-13.58,4.69-29.25,7.68Z"/><path class="fw" d="M98.65,248.73l1.33,10.79s11.31-2.4,13.65-2.4,23.34,3.96,25.69,4.43l-2.03-9.64-38.64-3.18Z"/><path class="ju" d="M65.74,234.88s-10.02,81.87-11.18,87.49c-3.83,18.57-4.71,25.72-8.25,25.75-5.56,.05-36.87-9.61-41.41-17.88,0,0,27.23-98.17,27.97-102.69l32.87,7.33Z"/><path class="fi" d="M63.11,256.25l-1.23,9.91s-21.42,1.95-39.56,.9l2.67-10.47,38.12-.33Z"/><g><path class="jl" d="M105.62,231.84s-27.01,.97-35.83,.54c-10.96-.54-41.19-4.85-49.78-1.26-8.59,3.6-19.8,28.09-5.47,29.93,14.33,1.84,60.97-3.64,91.21-10.62l-.14-18.59Z"/><path class="fl" d="M109.88,246.08c.74,.46,1.1,3.69,1.13,4.16-6.46,.49-12.33,1.85-17.67,3.05-10.03,2.26-38.62,6.18-38.62,6.18l-1.28-3.38c1.7,.09,54.56-11.18,56.44-10.01Z"/></g><path class="ju" d="M11.27,132.68c5.66-3.15,17.59,20.56,17.9,26.72,.31,6.17,3.08,35.77,3.08,39.16s.62,17.88,.62,28.99c0,0,19.02,7.4,39.06,6.48,20.04-.93,23.02,.62,23.02,.62l.49,22.53s-24.01,3.24-46.12,5.43c-20.76,2.06-39.26-1.13-42.35-2.67-3.08-1.54-4.93-27.75-4.63-33.92,.31-6.17,2.47-29.29,3.39-35.77,.93-6.48-3.27-49.81,5.54-57.56Z"/><path class="fp" d="M8.92,141.49c5.82-15.87,9.46,49.06,7.3,54.92-2.91,7.9-8.94-.62-9.87-16.34-.52-8.81-.83-29.32,2.56-38.57Z"/><path class="fq" d="M95.44,243.79c-13.62-6.86-46.86-23.08-48.69-23.95-2.93-1.39-32.99-35.92-33.61-36.54l-.62-.62s-2,2,1.23,6.47c1.98,2.74,6.32,7.25,6.32,7.25,0,0-14.95,3.47-15.57,4.93-.13,.3-.22,2.09-.22,2.09,0,0,2.17,.12,5.16-2.19,.45-.35,1.9,.41,4.98,.36,.47,0,1.85,3.24,7.04,5.09,4.98,1.77-9.4-1.03-10.64-.57-1.23,.46-7.28,5.24-7.28,5.24l-.22,2.4s3.09,.74,8.12-3.63c.49-.42,4.21,2.52,10.74,4.21,6.53,1.7-9.82-.51-11.51,.56-1.7,1.08-7.91,6.58-7.14,7.5,0,0,2.88,.57,8.22-3.8,0,0,6.94,2.78,9.56,2.78,0,0,3.08,5.09,4.01,5.86,.93,.77-10.18,15.88-5.86,13.1,4.32-2.78,8.17-6.94,10.79-6.63,2.62,.31,9.56,1.7,12.33,1.39,1.85-.21,21.51,6.4,23.8,7.63,.53,2.82,.7,4.05,.7,4.05l28.17,5.63s.02-5.34,.18-8.63Z"/><path class="fo" d="M32.72,205.35s-2.62-42.86-4.16-50.11c-1.28-6.03-4.01,37.31-4.01,37.31l8.17,12.8Z"/><path class="fx" d="M124.14,204.35l.18-11.97s-4.58,11.21-16.08,17.78l1.47,11.62,8.81-1.35,5.63-16.08Z"/><path class="g`" d="M31.46,186.56s5.63,14.09,25.83,22.19l3.64,21.13-28.76-24.77-.7-18.55Z"/><polygon class="gb" points="50.74 147.18 54.68 150.02 65.16 222.84 61.63 221.96 50.74 147.18"/><polygon class="ft" points="102.25 151.83 106.21 149.12 99.84 221.43 97.38 222.13 102.25 151.83"/><path class="fs" d="M116.4,123.97l2.76,.91s5.16,3.67,7.63,13.62l-6.34,3.17,7.75,2.99s-.88,15.85-3.08,28.53c-2.2,12.68-7.04,35.51-12.41,48.72,0,0-5.05,1.29-5.19-1.35-.09-1.58,8.89-96.58,8.89-96.58Z"/><path class="fy" d="M39.71,125.2l-1.78,.47s-4.56,2.07-7.84,14.55l6.5,2.83-7.58,3.39s1.71,15.82,4.57,28.36c2.86,12.55,8.5,34.29,14.55,47.2,0,0,5.5,1.83,5.51-.82,0-1.59-13.93-95.98-13.93-95.98Z"/><path class="hn" d="M102.56,112.59c-.3,.08-.87,.2-.61,.98,0,0,.63,2.22,1.27,5.65,.65,3.43,1.41,27.37,1.41,27.37,0,0-5.59,74.14-6.72,83.71l10.26-.57s8.03-23.61,10.26-32.03c1.93-7.28,4.94-14.31,7.77-54.29l-6.81-2.47,5.17-3.36s-2.28-10.63-6.36-13.06c-3.68-2.2-12.87-12.66-15.66-11.92Z"/><path class="gu" d="M52.99,112.81c.31,.06,.56,.53,.44,1.27,0,0-.46,1.99-.92,5.45-.46,3.46,.03,27.41,.03,27.41,0,0,9.49,73.75,11.12,83.24l-10.28-.03s-9.36-22.79-11.94-31.45c-2.15-7.22-5.69-14.03-10.62-53.8l6.67-2.82-5.34-3.09s1.72-10.73,5.66-13.38c3.56-2.39,12.34-13.37,15.17-12.79Z"/><path class="gx" d="M44.34,207.07s6.37,6.17,8.4,6.97c2.02,.79,8.91,2.29,8.91,2.29l.83,5.76s-8.6,.5-10.44-.74c-1.85-1.23-4.67-4.05-4.67-4.05l-3.03-10.22Z"/><polygon class="jl" points="51.48 220.46 105.23 225.29 104.1 248.73 49.22 233.21 51.48 220.46"/><g><path class="gw" d="M55.73,221.92s-12.81-8.98-16.26-13.93c-3.45-4.95-10.2-11.78-11.78-14.02-1.58-2.24-14.45-13.07-15.6-11.74-1.15,1.33,2.56,6.28,6.62,9.28,1.33,2.63,8.61,9.69,8.61,9.69,0,0-8.17-4.89-10.17-6.22-1.36-.91-7.11,.26-8.97,.47-1.86,.21-7.48,5.49-6.52,6.92,.91,1.36,2.88,.04,7.69-2.66,1.71,.55,4.04,.67,5.49-.02,1.28,2.59,5.35,5.17,5.35,5.17,0,0-7.78-1.63-10.62-.54-2.83,1.09-9.17,7.48-8.9,7.92,1.49,2.39,7.46-.74,10.86-3.81l9.65,4.34s-8.47-.27-10.35,.25c-1.88,.52-7.29,6.5-8.83,8.26,1.12,2.17,2.34,1.32,9.89-4.56,0,0,6.2,2.26,10.15,3.35,0,0,9.24,11.96,17.9,12.01,6.25,.04,13.59,2.66,13.59,2.66l2.2-12.82Z"/><path class="gr" d="M41.71,232.14s6.84-.62,15.02,1.39c8.18,2.01,34.9,9.88,34.9,9.88,0,0-2.97,4.16-4.75,3.61-6.55-2.02-11.96-3.18-21.28-7.37-10.13-4.56-21.12-7.21-23.89-7.5Z"/><path class="gn" d="M92.24,223.17s-25.36-.53-39.38-3.68c-1.85-.42-14.02-12.89-18.99-18.3-3.04-3.32-12.83,13.77-1.63,17.76,11.2,3.99,17.59,4.06,24.07,5.06,8.02,1.23,35.29,5.02,35.29,5.02l.64-5.86Z"/><path class="jj" d="M12.37,181.26c-.62,.66,.86,1.8,3.03,3.3,1.38,.96,1.67,.17,1.67,.17,0,0-2.28-2.46-4.7-3.48Z"/><path class="jj" d="M.6,201.94c.57,.69,1.89-.62,3.67-2.57,1.13-1.24,.39-1.64,.39-1.64,0,0-2.74,1.94-4.06,4.21Z"/><path class="jj" d="M0,212.24c.54,.72,1.92-.55,3.77-2.42,1.19-1.19,.46-1.62,.46-1.62,0,0-2.81,1.83-4.23,4.04Z"/><path class="jj" d="M1.5,221.92c.49,.55,1.51-.57,2.89-2.21,.88-1.05,.26-1.34,.26-1.34,0,0-2.16,1.67-3.15,3.55Z"/><path class="gp" d="M30.1,202.5l-2.78-1.3s-7.18-6.7-8.61-9.69c0,0-6.5-4.22-6.84-8.65,0,0,3.09,4.65,7.34,8.08,4.26,3.42,10.89,11.56,10.89,11.56Z"/><path class="go" d="M25.86,206.35s-9.58-7.03-9.93-7.52c-.35-.49-6.53-.09-6.86-.04-.33,.05-5.05,3.68-7.42,3.57,0,0,.44,.99,2.4,.45,2.28-.62,4.64-2.33,5.17-2.82,0,0,3.19,.79,5.64-.05,0,0,1.17,2.73,5.3,4.88l5.69,1.52Z"/><path class="gv" d="M25.78,212.91l-4.61-.14s-6.98-2.22-9.65-4.34c0,0-6.78,5.93-10.05,4.48,0,0,3.35-.56,9.99-5.51,0,0,11.38,4.44,14.31,5.52Z"/><path class="ht" d="M23.93,218.79s-11.53-3.06-12.16-3.17c-.63-.11-5.02,5.13-8.72,6.71,0,0,1.7,.81,8.54-5.19,0,0,6.79,2.89,10.44,2.92,0,0,9.36,13.95,19.8,12.08,0,0-10.75,.22-17.91-13.35Z"/></g><path class="hw" d="M65.43,239.57c.53-13.29,1.67-17.94,1.67-17.94l6.06,.42-1.76,20.25s-4.3-1.94-5.98-2.73Z"/><path class="ju" d="M125.38,175.75s2.16-15.73,7.09-20.35c4.93-4.62,10.95-24.67,17.91-23.07,0,0,6.69,8.8,4.6,51.74-.75,15.51,4.32,32.38,1.54,54.58-2.02,16.15-1.23,16.96-11.41,17.58-4.05,.25-30.83-1.52-76.61-11.73,0,0-1.41-13.21,.14-23.42,0,0,41.01-.92,56.74-.62,0,0-2.77-12.64-1.54-18.5,1.23-5.86,1.54-26.21,1.54-26.21Z"/><path class="hv" d="M127.23,162.49s-1.39,9.3-2,15.26c-1.5,14.52-.98,24.51-1.9,30.17,0,0,6.37-7.19,6.58-9.05,.2-1.85-.21-60.44-2.67-36.39Z"/><path class="hq" d="M141.26,220c-4.16-1.08-10.87-1.57-13.41-1.39,6.17-3.08,6.32-5.7,6.32-5.7l-4.32,.92c8.17-6.48,6.47-11.1,6.47-11.1,3.08-2,2.16-5.55,2.16-5.55l-4.93,1.7c2-2.78,.28-6.24,.28-6.24l-17.08,28.29s9.51,.15,9.94,.15c4.86,.31,8.61,2.88,10.41,4.01,2.47,1.54,6.1,6.92,4.93,1.54-.6-2.77-2-4.48-3.67-5.53,3.52-.11,5.55-.41,2.9-1.1Z"/><g><path class="gq" d="M132.59,191.99c-.98-.03-3.71,5.14-8.06,9.28-.84,.8-4.23,9.44-5.47,13.46l7.2-8.54s11.6-14.07,6.33-14.21Z"/><path class="gt" d="M129.51,202.17s5.41-7.24,4.32-9.54c0,0-3.11,7.38-8.65,12.81l4.33-3.27Z"/><path class="gs" d="M115.7,220.14c2.26-4.08,6.97-12.66,8.82-14.27,4.66-4.07,12.94-11.52,13.84-10.29,2.49,3.42-10.65,12.01-12.23,13.73-1.11,1.2-4.73,7.33-6.92,11.07-1.08-.1-2.44-.14-3.51-.23Z"/><path class="hu" d="M138.6,196.05s1.24,2.56-6.12,8.36l-3.08,1.78s6.7-5.49,9.2-10.14Z"/><path class="hy" d="M114.92,220.29c2.05-2.1,8.34-9.67,9.14-10.24,7.92-5.65,12.44-9.6,13.04-8.35,.73,1.52,.58,3.3-10.75,11.9-3.08,3.25-3.01,4.8-5,6.82-2.19-.08-4.33,.03-6.44-.13Z"/><path class="ib" d="M137.32,202.33s.53,1.53-2.47,4.37c-3.13,2.96-8.5,6.89-8.5,6.89l-1.58,2.19-2.78,1.72,4.01-5.2s10.41-6.89,11.32-9.97Z"/><path class="jj" d="M132.8,191.49c.77,.5-.41,1.99-2.17,4.03-1.13,1.3-1.61,.59-1.61,.59,0,0,1.65-3,3.79-4.61Z"/><path class="jj" d="M138.33,194.89c.41,.68-.95,1.8-3.21,3.26-1.44,.93-1.71,.11-1.71,.11,0,0,2.42-2.42,4.92-3.37Z"/><path class="jj" d="M137.11,201.17c.39,.75-1.04,1.75-3.37,3.09-1.49,.86-1.72,.03-1.72,.03,0,0,2.54-2.3,5.09-3.12Z"/><path class="ia" d="M126.36,218.61c1.24-.93,9.67-4.65,8.29-7.13-.56-1-10.82,2.78-16.13,8.95l5.71,.15s.42-.69,2.14-1.98Z"/><path class="jj" d="M134.86,211.49c-.24,.63-.66,1.25-2.56,2.2-1.36,.68-2.22-.22-1.87-.88,.51-.95,4.8-2.45,4.43-1.32Z"/></g><path class="hx" d="M99.18,216.7s10.21-.07,13.73-.9l-1.8,5.81-12.4,.39,.47-5.29Z"/><path class="hp" d="M151.57,140.08c1.51,4.33,4.88,15.94,3.41,45.39-.92,18.54-9.56,19.89-10.49,17.42-.93-2.47,2.14-76.99,7.07-62.81Z"/><path class="hs" d="M68.56,221.08s49.3-1.72,59.16-.18c9.87,1.54-2.29,13.79-12.01,13.33-9.71-.46-38.64-.4-47.8-1.73-.04-6.41,.64-11.42,.64-11.42Z"/><path class="hr" d="M157.05,216.79s.51,6.19,.32,14c-.26,10.29-1,21.77-4.74,24.36-5.7,3.94-39.11-.46-56.81-5.09,0,0,36.65,1.85,44.98-.92,8.33-2.78,15.64-23.02,16.26-32.35Z"/><path class="i`" d="M2.35,226.01s-1.23,31.14,4.63,33.92c5.86,2.78,24.82,3.85,35,3.2,0,0-15.26-5.67-24.21-10.29-8.94-4.62-15.42-18.5-15.42-26.83Z"/><path class="ho" d="M59.2,114.05s2.61-13.6,0-23.08c9.16,1.79,34.88,.18,34.88,.18l-.75,15.81s-10.32,12.44-34.13,7.09Z"/><g><polygon class="gj" points="109.62 69.37 114.07 66.91 116.39 49.1 110.29 50.2 109.62 69.37"/><polygon class="ge" points="37.54 44.65 39.29 63.74 43.51 61.74 42.81 43.67 37.54 44.65"/><g><path class="jo" d="M43.63,65.19c1.31,10.65,1.68,18.75,1.68,18.75-4.26,0-5.1-4.57-6.76-8.59-2.54-6.15-3.92-12.78,2.78-13.36,1.13-.1,2.3,3.19,2.3,3.19Z"/><path class="gd" d="M42.86,80.37s-2.09-2.36-1.44-7c1.52-10.95-5.42-11.7-3.84-4.23,0,0,.96-3.52,1.84-2.47,1.08,1.29-1.16,2.01-.02,7.66,.6,2.94,3.46,6.03,3.46,6.03Z"/><path class="jo" d="M110.32,65.18c-1.31,10.65-1.68,18.75-1.68,18.75,4.26,0,5.1-4.57,6.76-8.59,2.54-6.15,4.05-12.75-1.75-13.1-1.13-.07-3.33,2.94-3.33,2.94Z"/><path class="gc" d="M111.1,80.35s2.09-2.36,1.44-7c-1.52-10.95,5.42-11.7,3.84-4.23,0,0-.96-3.52-1.84-2.47-1.08,1.29,1.16,2.01,.02,7.66-.6,2.94-3.46,6.03-3.46,6.03Z"/></g><path class="jl" d="M82.1,17.52c-20.27-3.56-34.7,15.27-38.49,38.11-2.13,12.81-1.29,24.24,5.2,33.66,2.63,3.82,5.88,5.66,9.67,8.67,2.41,1.91,6.17,6.01,8.74,8,2.34,1.81,4.88,3.27,8.02,3.39,9.54,.36,15.8-7.16,18.54-9.86,9.63-9.52,18.46-13.06,16.52-39.55-1.52-20.81-14.92-41.97-28.2-42.42Z"/><path class="gf" d="M93.3,49.6c-11.3,2.14-10.85,11.14-11.7,21.67,18.24,7.91,28.78-1.41,28.78-1.41,0,0-.05-11.65-2.57-15.65-.97-1.54-3.97-6.61-14.52-4.61Z"/><path class="gm" d="M97.4,63.89c-5.31,1.15-10.56,7.43-9.41,13.44,1.16,6.02,4.89,11.18,9.93,13.29,6.6,2.75,11.4-6.2,12.53-17.28,.63-6.09-7.75-10.6-13.06-9.45Z"/><path class="gl" d="M58.79,50.12c-4.66-.35-8.49,.44-10.9,2.35-5.6,4.44-2.25,16.71-2.25,16.71,0,0,8.75,10.81,27.19,3.13-1.29-8.34,.89-21.09-14.04-22.19Z"/><path class="gk" d="M56.24,65.88c-4.86-1.3-12.53,2.54-12.43,7.86,.24,12.57,5.05,16.27,11.46,17.27,4.96,.78,8.5-8.41,9.73-13.56,1.24-5.16-3.9-10.27-8.76-11.57Z"/><path class="hd" d="M103.63,69.48c-1.81,.48-3.07,1.71-2.82,2.76,.25,1.04,1.91,1.5,3.72,1.02,1.8-.48,3.07-1.71,2.82-2.76-.25-1.04-1.91-1.5-3.71-1.02Z"/><path class="gi" d="M49.49,69.76c-1.81-.37-3.43,.18-3.62,1.23-.19,1.05,1.12,2.19,2.93,2.56,1.81,.36,3.44-.18,3.62-1.22,.19-1.05-1.12-2.19-2.94-2.56Z"/><path class="gh" d="M85.27,17.99S61.24-.48,47.37,23.02c-7.09,12.01-7.07,45.05-3.23,56.73,0,0-.77-7.84,3.61-15.95,0,0-.95-11.42,1.98-22.46,1.22,9.78,19.37,11.23,33.32,13.8,12.25,2.25,23.7,2.54,27.45,14.78,0,0,.96-12.6-3.19-25.2-3.93-11.91-11.5-24.56-22.05-26.74Z"/><path class="gg" d="M77.07,99.88c-2.52-.14-4.64,.5-4.74,1.43-.1,.93,1.85,1.8,4.37,1.93,2.51,.14,4.63-.5,4.74-1.43,.1-.93-1.86-1.8-4.37-1.93Z"/><path class="h`" d="M106.16,63.96c7.3,11-.3,23.14-6.19,28.73-6.5,6.18-9.18,9.69-10.22,10.73,.94-.86,9.6-8.86,12.07-10.7,2.29-1.71,11.12-10.92,8.9-22.47,0,0-1.4-4.77-4.56-6.29Z"/><path class="jp" d="M54.49,94.01c-12.87-9.82-9.03-27.37-9.03-27.37-6.71,17.82,4.85,25.83,7.18,27.47,4.82,3.38,12.84,10.37,12.84,10.37-1.8-1.74-3.9-5.07-10.99-10.48Z"/><path class="hg" d="M66.78,105.61s7.89,10.99,20.92-.51c0,0-10.47,8.65-20.92,.51Z"/><g><path class="hf" d="M60.52,84.81c-.36,.66,.12,1.35,.98,1.63,.86,.28,2.46,.94,4.35,2.32-1.39-2-5.01-4.54-5.33-3.95Z"/><path class="he" d="M89.4,88.74c1.77-1.53,3.31-2.3,4.15-2.65,.84-.35,1.26-1.07,.85-1.7-.36-.56-3.77,2.25-5,4.35Z"/><path class="jp" d="M69.21,93.17c1.63,3.46,10.56,8.27,17.12-.13,0,0-9.34,4.2-17.12,.13Z"/><path class="jr" d="M61.44,85.47c.06,.1,.09,.15,.14,.23,1.05,.47,2.27,.77,3.82,1.88,1.06,.76,2.12,5.93,12.57,5.78,5.71-.08,9.15-2.04,12.5-5.96,1.05-1.22,2.05-1.6,2.88-2.09,.02-.1,.07-.14,.09-.24-2.29,.66-6.87,2.22-16.71,2.14-8.4-.08-13.3-1.33-15.29-1.74Z"/><path class="hj" d="M86.14,88.11c-5.86,1.34-13.83,1.2-16.72,.68-1.68-.74-1.51,1.4-1.51,1.4,3.68,3.75,6.63,3.04,9.59,3.1,2.91,.07,7.26-1.12,9.84-3.43,.25-.7-.38-1.93-1.19-1.75Z"/><path class="hc" d="M71.82,87.4c-1.87-.08-3.01-.36-5.35-.9,0,0,.44,.54,.71,1.16,.36,.82,2.13,3.59,10.54,3.46,6.33-.1,9.65-2.36,10.1-3.73,.27-.82,.86-1.19,.91-1.47,0,0-1.91,.94-6.4,1.43-4.53,.49-6.44,.23-10.51,.05Z"/><path class="jq" d="M78.52,92.98c-12.85,.03-8.4-5.24-16.94-7.28,.06,.01,1.97,1.03,4.23,3.63,2.49,2.86,4.64,7.37,11.84,7.29,6.49-.08,10.06-4.82,12.13-7.43,2.36-2.98,3.55-3.87,3.6-3.88-6.97,1.93-4.64,7.31-14.85,7.66Z"/><path class="hb" d="M84,91.65c-1.43,.5-3.86,1.1-6.56,1.23-1.72,.08-4.6-.26-6.52-1.06-1.98-1.01-3.75-3.15-4.12-3.43,.47,.63,3.27,7.43,10.5,7.25,8.36-.21,9.85-5.83,11.34-7.5-.7,.75-2.47,2.76-4.65,3.52Z"/><path class="jm" d="M80.95,93.18c-.84,.29-3.75,.51-3.64,.8,.11,.29,1.85,.88,4.04,.26,1.7-.48,2.5-1.46,2.39-1.75-.11-.29-1.95,.4-2.8,.7Z"/><path class="jr" d="M61.72,86.2c.51,.23,.9-.16,2.92,.57,0,0-3.44-1.78-3.66-1.67-.16,.07,0,.77,.75,1.11Z"/><path class="jr" d="M90.56,86.5c1.76-.79,2.32-.43,2.82-.67,.74-.36,.86-1.03,.72-1.13-.28-.19-3.54,1.8-3.54,1.8Z"/><path class="ha" d="M67.2,87.7s3.65,1.95,11.12,1.9c5.39-.03,9.48-2.1,9.48-2.1l.42-1-21.57,.2,.55,1Z"/><path class="jq" d="M82.36,85.92c-2.5-.19-2.78,.22-4.57,.24-1.75,.02-3.16-.49-5.32-.29-2.81,.26-6.26,.49-10.35-.35,0,0,1.52,.93,9.06,2.36,2.24,.42,4.23,.85,6.54,.79,2.76,0,5.04-.58,7.18-.95,3.62-.63,7.89-2.44,7.91-2.52-1.93,.55-7.69,.91-10.44,.71Z"/><path class="hh" d="M80.92,86.16c-.62,.14-2.87,.28-3.61,.29-.74,0-2.79-.35-3.4-.35-.61,0-4.35,.34-4.42,.6-.21,.78,8.36,1.3,9.14,1.23,.78-.07,7.37-.89,7.41-1.2,.04-.32-4.51-.7-5.12-.56Z"/></g><g><path class="hm" d="M57.06,56.56c-2.48,.2-7.74,1.11-7.67,5.76,.08,5.89,6.21,7.29,8.95,7.31,3.48,.03,5.89-.99,7.95-1.62,1.52-.47,2.34-.62,3.12-.79-.21-4.52-2.09-10.66-12.34-10.66Z"/><path class="hl" d="M63.13,60.12c1.03,.96,2.25,2.7,2.33,4.29,.09,1.84-.61,2.85-1.82,3.96,1.55-.42,3.05-1.19,5.29-1.51,0,0-2.17-4.6-5.8-6.75Z"/><path class="js" d="M63.43,60.79c1.01,.77,1.71,1.87,1.93,3.12,1.78,1.06,2.92,2.34,3.56,2.96,0,0-2.18-4.47-5.5-6.08Z"/><path class="hk" d="M58.91,59.19c-2.53,.23-5.59,1.52-9.29,4.59,0,0,2.11,4.42,8.09,5.2-1.4-.93-2.41-2.13-2.51-4.04-.13-2.65,1.45-4.99,3.7-5.75Z"/><path class="gy" d="M65.38,63.77c-3.56-2.41-7.4-2.43-10.31-1.42-.4,.82-.59,1.74-.54,2.71,.11,1.85,1.17,3.01,2.64,3.91,2.3,.38,6.05-.38,6.47-.59,1.26-1.07,1.95-2.18,1.82-3.96-.02-.24-.04-.41-.08-.64Z"/><path class="js" d="M50.58,63.92l.71,1.3s1.38-1.13,3.47-2.01c.4-1.23,1.27-2.26,2.42-2.9-2.66,.49-5.15,1.75-6.6,3.6Z"/><path class="hi" d="M63.43,60.79c-.45-.22-.93-.39-1.43-.49-1.54-.3-3.22-.28-4.82,.02-1.15,.64-2.09,1.65-2.45,2.91,1.55-.64,3.51-1.16,5.58-.97,2.08,.19,3.77,.86,5.09,1.64-.2-1.26-.96-2.34-1.97-3.12Z"/><path class="ic" d="M59.69,60.67c-1.99,.15-3.49,1.83-3.35,3.75,.14,1.92,1.88,3.37,3.87,3.22,1.99-.15,3.49-1.83,3.34-3.76-.14-1.93-1.87-3.37-3.87-3.22Z"/><path class="jn" d="M60.8,62.69c-.46-.24-1.03-.04-1.26,.45-.23,.48-.05,1.07,.41,1.3,.46,.23,1.03,.04,1.26-.45,.23-.48,.05-1.07-.41-1.3Z"/><path class="jn" d="M63.94,64c-.64-.32-1.42-.06-1.74,.57-.32,.63-.06,1.4,.59,1.72,.64,.32,1.42,.06,1.74-.57,.32-.63,.06-1.4-.59-1.71Z"/><path class="in" d="M53.38,59.39c-3.2,1.61-6.02,.21-6.08,.18,.02,.13-.42,3.74,2.21,4.65,0,.06,.04,.19,.09,.38-1.13-.08-1.43,.54-1.74,.86,0,.02,1.08-.57,3.45,1.14,1.53,1.11,3.99,2.35,6.54,2.43-3.47-1.35-5.16-2.16-6.97-4.97,2.82-2.39,6.21-3.32,9.55-3.13,4.83,.27,8.5,5.92,8.5,5.92-1.57-6.15-6.43-11.15-15.55-7.48Z"/><path class="jt" d="M62.44,57.09c-3.34-1.14-6.68-.62-9.22,.27,0,0,5.39-1.02,9.02,.37,3.63,1.39,5.1,2.91,5.1,2.91,0,0-1.56-2.41-4.9-3.55Z"/><path class="ie" d="M61.09,60.44c-7.87-.8-10.21,3.64-10.21,3.64,1.94-1.53,5.5-3.52,9.96-3.1,4.46,.42,8.1,5.89,8.1,5.89,0,0-1.98-5.84-7.85-6.43Z"/><path class="id" d="M97.04,56.2c-10.25,0-12.13,6.14-12.34,10.66,.77,.17,1.59,.32,3.12,.79,2.06,.64,4.47,1.65,7.95,1.62,2.74-.02,8.87-1.42,8.95-7.31,.07-4.66-5.2-5.56-7.67-5.76Z"/><path class="ik" d="M85.17,66.51c2.24,.32,3.73,1.09,5.29,1.51-1.21-1.12-1.91-2.13-1.82-3.96,.08-1.59,1.29-3.33,2.33-4.29-3.63,2.14-5.8,6.75-5.8,6.75Z"/><path class="js" d="M85.17,66.51c.64-.62,1.78-1.9,3.56-2.96,.22-1.24,.93-2.34,1.93-3.11-3.32,1.61-5.5,6.08-5.5,6.08Z"/><path class="ij" d="M98.89,64.58c-.1,1.91-1.11,3.11-2.51,4.04,5.99-.78,8.09-5.2,8.09-5.2-3.7-3.07-6.77-4.36-9.29-4.59,2.25,.76,3.84,3.1,3.7,5.75Z"/><path class="im" d="M88.72,63.42c-.04,.23-.06,.39-.08,.64-.13,1.78,.56,2.89,1.82,3.96,.42,.21,4.18,.97,6.47,.59,1.47-.9,2.53-2.06,2.64-3.91,.06-.97-.14-1.89-.54-2.71-2.91-1-6.75-.98-10.31,1.42Z"/><path class="js" d="M96.91,59.97c1.15,.64,2.02,1.66,2.42,2.9,2.1,.88,3.47,2.01,3.47,2.01l.71-1.3c-1.46-1.85-3.94-3.11-6.61-3.6Z"/><path class="il" d="M96.91,59.97c-1.61-.3-3.28-.32-4.82-.02-.5,.1-.97,.27-1.43,.49-1.01,.77-1.77,1.86-1.97,3.11,1.32-.78,3.01-1.45,5.09-1.64,2.07-.19,4.03,.32,5.58,.97-.36-1.26-1.3-2.27-2.45-2.91Z"/><path class="ii" d="M94.41,60.29c-1.99-.15-3.73,1.29-3.87,3.22-.15,1.92,1.35,3.6,3.34,3.76,1.99,.15,3.73-1.29,3.87-3.22,.14-1.92-1.36-3.61-3.35-3.75Z"/><path class="jn" d="M94.85,62.25c-.45-.26-1.04-.09-1.32,.37-.28,.46-.14,1.05,.31,1.3,.45,.26,1.04,.09,1.32-.37,.28-.46,.14-1.04-.31-1.3Z"/><path class="jn" d="M97.94,63.63c-.62-.36-1.4-.17-1.76,.45-.36,.61-.14,1.4,.47,1.76,.62,.37,1.4,.17,1.76-.44,.35-.61,.14-1.4-.47-1.77Z"/><path class="iv" d="M106.8,59.22c-.06,.03-2.88,1.42-6.08-.18-9.12-3.68-13.98,1.33-15.55,7.48,0,0,3.67-5.66,8.5-5.92,3.34-.19,6.73,.74,9.55,3.13-1.81,2.81-3.5,3.62-6.97,4.97,2.55-.09,5.01-1.32,6.54-2.43,2.36-1.71,3.44-1.12,3.45-1.14-.31-.32-.61-.94-1.74-.86,.05-.19,.08-.32,.09-.38,2.64-.92,2.19-4.52,2.21-4.65Z"/><path class="jt" d="M91.65,56.73c-3.34,1.14-4.9,3.55-4.9,3.55,0,0,1.47-1.53,5.1-2.91,3.63-1.39,9.02-.37,9.02-.37-2.54-.89-5.88-1.41-9.22-.27Z"/><path class="ih" d="M93.01,60.08c-5.87,.59-7.85,6.43-7.85,6.43,0,0,3.64-5.46,8.1-5.89,4.46-.42,8.02,1.57,9.96,3.1,0,0-2.34-4.44-10.21-3.64Z"/></g><g><path class="if" d="M77.25,83.14c1.22-.16,6.31-3.49,6.31-3.49h-13.02s5.48,3.65,6.71,3.49Z"/><g><path class="iw" d="M77.07,74.2c-3.45,.09-4.43,.97-4.18,1.89,.62,2.24,2.08,2.66,4.24,2.66,2.27,0,4.04-.51,4.39-2.92,.1-.71-1-1.72-4.46-1.62Z"/><path class="ir" d="M79.39,80.23s6.35,.1,4.3-2c-.69-.7-4.3,2-4.3,2Z"/><path class="ig" d="M70.57,78.51c-2.12,1.8,4.57,1.71,4.57,1.71,0,0-3.82-2.34-4.57-1.71Z"/><path class="jp" d="M77.12,79.39c-6.43-.09-7.16-3.24-8.04-1.22-.36,.83,.33,1.07,1.46,1.47,0,0-.37-.93,1.07-.83,1.04,.07,1.88,2.29,5.59,2.18,3.97-.11,4.51-2.11,5.53-2.16,.93-.05,.83,.82,.83,.82,0,0,1.88-.97,1.17-1.84-1.29-1.58-1.69,1.66-7.61,1.58Z"/></g></g><path class="it" d="M64.85,50.11c-1.32-.58-7.04-2.41-9.91-1.96-2.87,.46-7.39,4.61-7.39,4.61,.99-.72,5.03-2.57,7.42-2.5,1.69,.05,9.55,2.73,11.68,3.36,2.12,.62,.66-2.43-1.81-3.51Z"/><path class="is" d="M88.76,50.12c-2.41,1.2-4.14,4.56-2.05,3.83,2.09-.73,9.83-3.83,11.52-3.88,2.63-.06,6.5,1.39,7.52,2.06,0,0-4.69-3.85-7.58-4.16-2.88-.31-8.11,1.5-9.41,2.14Z"/><path class="ja" d="M110.83,69.7l.8-6.22s-1.61-11.39-2.59-13.51c0,0,.9,15.67,1.78,19.73Z"/><g><path class="iu" d="M114.3,19.22C102.04-5.91,68.76,.51,63.47,3.58c-7.31,4.24-6.92,7.5-9.08,7.42-15.89-.58-17.69,19.26-17.96,21.79-.27,2.53,.45,17.43,.45,17.43l.95-3.63s.02,8.2,2.02,10.9c2.02,2.72,3.28,12.37,3.28,12.37,0,0,2.63-13.01,3.64-18.39,1-5.38,.66-18.72,.66-18.72,1.47,15.59,15.22,15.5,15.22,15.5-9.05-.95-10.69-11.45-10.69-11.45,4.7,13.47,30.53,15.05,30.53,15.05-13.63-6.04-14.42-16.34-14.42-16.34,5.75,11.73,25.44,20.49,25.44,20.49-9.15-8.9-13.6-19.79-13.6-19.79,8.39,15.99,26.15,25.2,26.15,25.2-3.8-10.9-2.63-19.94-2.63-19.94,1.81,6.63,4.43,25.71,4.43,25.71l1.01-4.95c.03,2.15,2.15,9.06,2.15,9.06-.57-8.48,3.92-15.09,3.92-15.09l.99,3.14c.58-5.16,1.2-22.29,1.2-22.29l1.11,2.28c1.38-9.68-7.85-24.16-7.85-24.16l3.93,4.03Z"/><path class="ip" d="M55.24,10.63s-18.24-2.49-18.87,23.07c0,0,2.28-22.09,17.96-20.5,0,0,15.26-17.17,52-4.35C106.33,8.85,97.15,.2,80.99,0c-14.41-.18-20.48,3.71-25.76,10.62Z"/><path class="jb" d="M45.1,50.92c-.29,4.51-1.98,18.95-1.98,18.95,0,0,2.52-11.5,3.75-17.77,1.23-6.27,.45-21.76,.45-21.76,0,0-1.94,16.08-2.22,20.58Z"/><path class="iy" d="M47.33,30.44c.17,18.84,15.29,17.82,15.29,17.82-13.53-1.26-15.29-17.82-15.29-17.82Z"/><path class="iq" d="M51.68,36.32c4.87,14.93,30.78,15.53,30.78,15.53-22.63-3.21-30.78-15.53-30.78-15.53Z"/><path class="j`" d="M68.06,35.52s3.97,11.33,25.42,20.47c0,0-19.16-11.74-25.42-20.47Z"/><path class="ix" d="M79.87,36.19s8.38,18.47,26.18,25.22c0,0-19.04-14.13-26.18-25.22Z"/><path class="io" d="M107.85,67.19s.93-13.9-4.44-25.72c0,0,3.61,18.91,4.44,25.72Z"/><path class="je" d="M58.67,13.73c37.69-6.47,54.97,17.5,54.97,17.5C93-7.12,58.67,13.73,58.67,13.73Z"/><path class="jd" d="M58.66,15.08c35.65,2.55,55.25,31.21,55.25,31.21C101.92,7.4,58.66,15.08,58.66,15.08Z"/><path class="ji" d="M58.36,16.71c21.61,9.65,43.62,38.41,43.62,38.41C92.21,17.82,58.36,16.71,58.36,16.71Z"/><path class="jc" d="M56.77,17.67c9.52,18.9,28.68,30.62,28.68,30.62-12.88-17.34-28.68-30.62-28.68-30.62Z"/><path class="jh" d="M55.83,16.62c-10.13,23.75,16.67,32.31,16.67,32.31-15.62-13.28-16.67-32.31-16.67-32.31Z"/><path class="jg" d="M40.44,49.02c-.51-28.94,12.87-32.66,12.87-32.66-20.75-.87-12.87,32.66-12.87,32.66Z"/><path class="jf" d="M49.85,35.43s.53-11.77,3.19-18.1c0,0-9.04,8.96-3.19,18.1Z"/></g></g></g></g></g></svg>