<?xml version="1.0" encoding="UTF-8"?><svg xmlns="http://www.w3.org/2000/svg" xmlns:xlink="http://www.w3.org/1999/xlink" viewBox="0 0 207.6 718.55"><defs><style>.de{fill:url(#u);}.df{fill:url(#t);}.dg{fill:url(#v);}.dh{fill:url(#e);}.di{fill:url(#d);}.dj{fill:url(#g);}.dk{fill:url(#f);}.dl{fill:url(#p);}.dm{fill:url(#o);}.dn{fill:url(#s);}.do{fill:url(#q);}.dp{fill:url(#r);}.dq{fill:url(#i);}.dr{fill:url(#h);}.ds{fill:url(#k);}.dt{fill:url(#j);}.du{fill:url(#m);}.dv{fill:url(#l);}.dw{fill:url(#n);}.dx{fill:url(#x);}.dy{fill:url(#w);}.e`{fill:url(#y);}.ea{fill:url(#aa);}.eb{fill:url(#ag);}.ec{fill:url(#ab);}.ed{fill:url(#ah);}.ee{fill:url(#ai);}.ef{fill:url(#ad);}.eg{fill:url(#ao);}.eh{fill:url(#aj);}.ei{fill:url(#ae);}.ej{fill:url(#ap);}.ek{fill:url(#af);}.el{fill:url(#a`);}.em{fill:url(#as);}.en{fill:url(#aq);}.eo{fill:url(#ar);}.ep{fill:url(#al);}.eq{fill:url(#ax);}.er{fill:url(#aw);}.es{fill:url(#am);}.et{fill:url(#ac);}.eu{fill:url(#an);}.ev{fill:url(#at);}.ew{fill:url(#ay);}.ex{fill:url(#au);}.ey{fill:url(#ak);}.f`{fill:url(#av);}.fa{fill:url(#cc);}.fb{fill:url(#cb);}.fc{fill:url(#ca);}.fd{fill:url(#cd);}.fe{fill:url(#ck);}.ff{fill:url(#cj);}.fg{fill:url(#ci);}.fh{fill:url(#c`);}.fi{fill:url(#cg);}.fj{fill:url(#cf);}.fk{fill:url(#ce);}.fl{fill:url(#be);}.fm{fill:url(#bg);}.fn{fill:url(#bf);}.fo{fill:url(#bm);}.fp{fill:url(#bd);}.fq{fill:url(#bo);}.fr{fill:url(#bn);}.fs{fill:url(#ba);}.ft{fill:url(#bh);}.fu{fill:url(#bc);}.fv{fill:url(#bb);}.fw{fill:url(#cx);}.fx{fill:url(#cl);}.fy{fill:url(#cs);}.g`{fill:url(#cr);}.ga{fill:url(#cq);}.gb{fill:url(#ch);}.gc{fill:url(#co);}.gd{fill:url(#cn);}.ge{fill:url(#cm);}.gf{fill:url(#ct);}.gg{fill:url(#cy);}.gh{fill:url(#cp);}.gi{fill:url(#cw);}.gj{fill:url(#cv);}.gk{fill:url(#cu);}.gl{fill:url(#b`);}.gm{fill:url(#by);}.gn{fill:url(#bu);}.go{fill:url(#bl);}.gp{fill:url(#bw);}.gq{fill:url(#bv);}.gr{fill:url(#bi);}.gs{fill:url(#bp);}.gt{fill:url(#bk);}.gu{fill:url(#bj);}.gv{fill:url(#bt);}.gw{fill:url(#bq);}.gx{fill:url(#bx);}.gy{fill:url(#bs);}.h`{fill:url(#br);}.ha{fill:url(#d`);}.hb{fill:url(#dc);}.hc{fill:url(#db);}.hd{fill:url(#dd);}.he{fill:url(#da);}.hf{fill:#f2ebea;}.hg{fill:#f0f0f4;}.hh{fill:#f6d3aa;}.hi{fill:#fff;}.hj{fill:#f0c498;}.hk{fill:#fbd6b2;}.hl{fill:#9e1c20;}.hm{fill:#dddddc;}.hn{fill:#e0b08b;}.ho{fill:#1b191a;}.hp{fill:#962a2e;}</style><linearGradient id="d" x1="921.53" y1="153.24" x2="914.03" y2="122.51" gradientTransform="translate(1022.57) rotate(-180) scale(1 -1)" gradientUnits="userSpaceOnUse"><stop offset="0" stop-color="#daa279"/><stop offset=".48" stop-color="#e3af85"/><stop offset="1" stop-color="#f0c498"/></linearGradient><linearGradient id="e" x1="912.05" y1="136.6" x2="911.4" y2="124.89" xlink:href="#d"/><linearGradient id="f" x1="178.48" y1="171.39" x2="197.38" y2="171.39" gradientTransform="matrix(1, 0, 0, 1, 0, 0)" gradientUnits="userSpaceOnUse"><stop offset="0" stop-color="#343336"/><stop offset="0" stop-color="#333235"/><stop offset=".27" stop-color="#2c2b2f"/><stop offset="1" stop-color="#2b2a2e"/></linearGradient><linearGradient id="g" x1="171.35" y1="264.18" x2="207.6" y2="264.18" xlink:href="#f"/><linearGradient id="h" x1="173.52" y1="416.23" x2="203.11" y2="47.33" gradientTransform="matrix(1, 0, 0, 1, 0, 0)" gradientUnits="userSpaceOnUse"><stop offset="0" stop-color="#252427"/><stop offset="1" stop-color="#2b2a2f"/></linearGradient><linearGradient id="i" x1="841.92" y1="330.85" x2="829.53" y2="-98.32" gradientTransform="translate(1022.57) rotate(-180) scale(1 -1)" xlink:href="#h"/><linearGradient id="j" x1="-3306.06" y1="277.5" x2="-3305.92" y2="305.05" gradientTransform="translate(3449.08)" gradientUnits="userSpaceOnUse"><stop offset="0" stop-color="#e0e0e0"/><stop offset=".8" stop-color="#e2e2e2"/><stop offset="1" stop-color="#e5e5e5"/></linearGradient><linearGradient id="k" x1="-3330.78" y1="118.38" x2="-3322.89" y2="190.46" gradientTransform="translate(3449.08)" gradientUnits="userSpaceOnUse"><stop offset="0" stop-color="#fff"/><stop offset=".36" stop-color="#f8f8f9"/><stop offset="1" stop-color="#f0f0f4"/></linearGradient><linearGradient id="l" x1="-3311.11" y1="255.28" x2="-3312.39" y2="306.96" gradientTransform="translate(3449.08)" gradientUnits="userSpaceOnUse"><stop offset="0" stop-color="#f4f5f5"/><stop offset=".61" stop-color="#eeefef"/><stop offset="1" stop-color="#e8e9e8"/></linearGradient><linearGradient id="m" x1="849.84" y1="210.25" x2="872.26" y2="217.92" gradientTransform="translate(1022.57) rotate(-180) scale(1 -1)" gradientUnits="userSpaceOnUse"><stop offset="0" stop-color="#f0f0f4"/><stop offset="1" stop-color="#e0e0e4"/></linearGradient><linearGradient id="n" x1="843.16" y1="303.18" x2="950.35" y2="303.18" gradientTransform="translate(1022.57) rotate(-180) scale(1 -1)" gradientUnits="userSpaceOnUse"><stop offset="0" stop-color="#e0e0e4"/><stop offset="1" stop-color="#f0f0f4"/></linearGradient><linearGradient id="o" x1="141.88" y1="214.95" x2="187.85" y2="214.95" xlink:href="#f"/><linearGradient id="p" x1="-3372.53" y1="338.44" x2="-3295.02" y2="309.22" gradientTransform="translate(3449.08)" gradientUnits="userSpaceOnUse"><stop offset="0" stop-color="#2b2a2d"/><stop offset="1" stop-color="#343336"/></linearGradient><linearGradient id="q" x1="-3325.8" y1="320.02" x2="-3301.19" y2="360.26" xlink:href="#p"/><radialGradient id="r" cx="984.67" cy="-1949.07" fx="984.67" fy="-1949.07" r="40.48" gradientTransform="translate(2200.52 1308.7) rotate(-180) scale(2.13 -.31)" gradientUnits="userSpaceOnUse"><stop offset="0" stop-color="#e3e2e1"/><stop offset=".36" stop-color="#e7e6e6"/><stop offset=".78" stop-color="#f5f4f4"/><stop offset="1" stop-color="#fff"/></radialGradient><linearGradient id="s" x1="-1205.63" y1="670.41" x2="-1205.63" y2="620.03" gradientTransform="translate(1231.55 17.22) rotate(-1.7)" gradientUnits="userSpaceOnUse"><stop offset="0" stop-color="#2b2828"/><stop offset=".5" stop-color="#1f1d1d"/><stop offset="1" stop-color="#1b191a"/></linearGradient><linearGradient id="t" x1="-1212.69" y1="623.54" x2="-1183.22" y2="649.4" xlink:href="#s"/><linearGradient id="u" x1="-1212.26" y1="649.5" x2="-1210.68" y2="670.78" xlink:href="#s"/><linearGradient id="v" x1="-1197.39" y1="646.32" x2="-1233.54" y2="670.47" gradientTransform="translate(1231.55 17.22) rotate(-1.7)" gradientUnits="userSpaceOnUse"><stop offset="0" stop-color="#2b2828"/><stop offset="1" stop-color="#393737"/></linearGradient><linearGradient id="w" x1="2233.91" y1="724.28" x2="2294.06" y2="630.76" gradientTransform="translate(2403.25) rotate(-180) scale(1 -1)" xlink:href="#s"/><linearGradient id="x" x1="2290.59" y1="838.52" x2="2293.96" y2="449.74" gradientTransform="translate(2403.25) rotate(-180) scale(1 -1)" gradientUnits="userSpaceOnUse"><stop offset="0" stop-color="#343336"/><stop offset=".29" stop-color="#302f32"/><stop offset="1" stop-color="#2b2a2e"/></linearGradient><linearGradient id="y" x1="2292.32" y1="295.64" x2="2284.9" y2="694.48" gradientTransform="translate(2403.25) rotate(-180) scale(1 -1)" gradientUnits="userSpaceOnUse"><stop offset="0" stop-color="#252426"/><stop offset="1" stop-color="#2b2a2e"/></linearGradient><linearGradient id="a`" x1="57.92" y1="214.09" x2="71.73" y2="1171.85" gradientTransform="matrix(1, 0, 0, 1, 0, 0)" xlink:href="#x"/><linearGradient id="aa" x1="2243.31" y1="397.58" x2="2223.28" y2="882.42" xlink:href="#x"/><linearGradient id="ab" x1="2232.49" y1="689.8" x2="2200.69" y2="708.7" gradientTransform="translate(2403.25) rotate(-180) scale(1 -1)" gradientUnits="userSpaceOnUse"><stop offset="0" stop-color="#2b2828"/><stop offset=".53" stop-color="#2d2b2b"/><stop offset=".94" stop-color="#373535"/><stop offset="1" stop-color="#393737"/></linearGradient><linearGradient id="ac" x1="2247.39" y1="668.66" x2="2312.18" y2="677.39" xlink:href="#x"/><linearGradient id="ad" x1="2318.41" y1="697.4" x2="2354.49" y2="683.55" gradientTransform="translate(2403.25) rotate(-180) scale(1 -1)" gradientUnits="userSpaceOnUse"><stop offset="0" stop-color="#2b2a2e"/><stop offset=".71" stop-color="#302f32"/><stop offset="1" stop-color="#343336"/></linearGradient><linearGradient id="ae" x1="881.84" y1="226.3" x2="914.99" y2="226.3" xlink:href="#n"/><linearGradient id="af" x1="901.99" y1="298.62" x2="912.43" y2="399.21" gradientTransform="translate(1022.57) rotate(-180) scale(1 -1)" xlink:href="#h"/><linearGradient id="ag" x1="922.14" y1="216.23" x2="948.71" y2="216.23" xlink:href="#n"/><linearGradient id="ah" x1="-3231.86" y1="318.31" x2="-3433.07" y2="306.03" gradientTransform="translate(3449.08)" xlink:href="#s"/><linearGradient id="ai" x1="-3353.42" y1="234.92" x2="-3284.98" y2="511.51" gradientTransform="translate(3449.08)" xlink:href="#y"/><linearGradient id="aj" x1="2920.21" y1="301.68" x2="2912.79" y2="700.52" gradientTransform="translate(3047.39) rotate(-180) scale(1 -1)" xlink:href="#y"/><linearGradient id="ak" x1="-3274.16" y1="314.74" x2="-3304.24" y2="317.33" gradientTransform="translate(3449.08)" xlink:href="#s"/><linearGradient id="al" x1="-3295.75" y1="202.07" x2="-3276.96" y2="202.43" gradientTransform="translate(3419.43 -10.26) rotate(-2.18)" gradientUnits="userSpaceOnUse"><stop offset="0" stop-color="#a4a3a3"/><stop offset=".01" stop-color="#a1a0a1"/><stop offset=".32" stop-color="#777879"/><stop offset=".6" stop-color="#595a5c"/><stop offset=".83" stop-color="#46484b"/><stop offset="1" stop-color="#404245"/></linearGradient><linearGradient id="am" x1="28.43" y1="237.46" x2="91.19" y2="237.46" xlink:href="#f"/><linearGradient id="an" x1="-3338.09" y1="161.99" x2="-3336.49" y2="103.65" gradientTransform="translate(3449.08)" xlink:href="#n"/><linearGradient id="ao" x1="-3346.39" y1="169.51" x2="-3318.71" y2="390.92" gradientTransform="translate(3498.77 247.92) rotate(7.07)" xlink:href="#h"/><linearGradient id="ap" x1="-3330.81" y1="317.21" x2="-3303.86" y2="495" gradientTransform="translate(3498.77 247.92) rotate(7.07)" gradientUnits="userSpaceOnUse"><stop offset="0" stop-color="#353539"/><stop offset="1" stop-color="#343336"/></linearGradient><linearGradient id="aq" x1="-3398.89" y1="12.14" x2="-3371.35" y2="232.43" gradientTransform="translate(3449.08)" xlink:href="#h"/><linearGradient id="ar" x1="1603.09" y1="210.27" x2="1561.6" y2="229.72" gradientTransform="translate(1687.96) rotate(-180) scale(1 -1)" gradientUnits="userSpaceOnUse"><stop offset="0" stop-color="#a31e22"/><stop offset="1" stop-color="#b4282c"/></linearGradient><linearGradient id="as" x1="1561.72" y1="146.92" x2="1578.6" y2="139.69" xlink:href="#ar"/><linearGradient id="at" x1="-3380.54" y1="114.16" x2="-3359.94" y2="258.36" gradientTransform="translate(3449.08)" xlink:href="#ap"/><linearGradient id="au" x1="-3325.4" y1="136.15" x2="-3345.64" y2="155.34" gradientTransform="translate(3449.08)" xlink:href="#ar"/><linearGradient id="av" x1="-3322.17" y1="136.11" x2="-3312.97" y2="88.5" gradientTransform="translate(3449.08)" xlink:href="#n"/><linearGradient id="aw" x1="-3358.23" y1="115.75" x2="-3278.07" y2="170.28" gradientTransform="translate(3449.08)" xlink:href="#n"/><linearGradient id="ax" x1="-3353.48" y1="150.25" x2="-3340.31" y2="132.4" gradientTransform="translate(3449.08)" gradientUnits="userSpaceOnUse"><stop offset="0" stop-color="#f0f0f4"/><stop offset=".64" stop-color="#f8f8f9"/><stop offset="1" stop-color="#fff"/></linearGradient><linearGradient id="ay" x1="-3304.66" y1="150.49" x2="-3319.29" y2="126.35" xlink:href="#ax"/><linearGradient id="b`" x1="-3335.09" y1="311.37" x2="-3333.18" y2="361.18" gradientTransform="translate(3449.08)" gradientUnits="userSpaceOnUse"><stop offset="0" stop-color="#39383c"/><stop offset=".1" stop-color="#38373b"/><stop offset="1" stop-color="#343336"/></linearGradient><linearGradient id="ba" x1="-3280.86" y1="310.39" x2="-3278.94" y2="360.44" xlink:href="#b`"/><linearGradient id="bb" x1="35.03" y1="387.77" x2="76.13" y2="133.29" xlink:href="#h"/><linearGradient id="bc" x1="-6609.87" y1="278.46" x2="-6601.56" y2="85.74" gradientTransform="translate(-6564.42) rotate(-180) scale(1 -1)" xlink:href="#h"/><linearGradient id="bd" x1="-6611.74" y1="360.58" x2="-6591.59" y2="375.32" gradientTransform="translate(-6564.42) rotate(-180) scale(1 -1)" xlink:href="#d"/><linearGradient id="be" x1="-6620.2" y1="362.76" x2="-6595.59" y2="362.76" gradientTransform="translate(-6564.42) rotate(-180) scale(1 -1)" xlink:href="#n"/><linearGradient id="bf" x1="-6556.25" y1="502.22" x2="-6622.06" y2="154.3" gradientTransform="translate(-6564.42) rotate(-180) scale(1 -1)" xlink:href="#f"/><linearGradient id="bg" x1="-2757.59" y1="32.05" x2="-2770.08" y2="334.55" gradientTransform="translate(2814.35)" xlink:href="#h"/><linearGradient id="bh" x1="47.61" y1="655.1" x2="54.64" y2="672.16" gradientTransform="translate(119.3 -686.39) rotate(10.58) scale(1 1.14) skewX(3.8)" xlink:href="#d"/><linearGradient id="bi" x1="-940.75" y1="836.95" x2="-933.72" y2="854.01" gradientTransform="translate(-930.15 -662.66) rotate(166.74) scale(.99 -1.14) skewX(3.14)" xlink:href="#d"/><radialGradient id="bj" cx="133.96" cy="109.59" fx="133.96" fy="109.59" r="15.81" gradientTransform="translate(0 -31.07) scale(1 1.02)" gradientUnits="userSpaceOnUse"><stop offset="0" stop-color="#f6c39c"/><stop offset="1" stop-color="#f6d3aa"/></radialGradient><radialGradient id="bk" cx="88.87" cy="110.07" fx="88.87" fy="110.07" r="16.1" xlink:href="#bj"/><linearGradient id="bl" x1="146.07" y1="72.29" x2="134.95" y2="76.12" gradientTransform="matrix(1, 0, 0, 1, 0, 0)" gradientUnits="userSpaceOnUse"><stop offset="0" stop-color="#f9d5af"/><stop offset="1" stop-color="#f6d3aa"/></linearGradient><linearGradient id="bm" x1="127.53" y1="98.59" x2="127.51" y2="97.28" gradientTransform="matrix(1, 0, 0, 1, 0, 0)" gradientUnits="userSpaceOnUse"><stop offset="0" stop-color="#f6d3aa"/><stop offset=".53" stop-color="#f5d0a7"/><stop offset=".87" stop-color="#f2c89e"/><stop offset="1" stop-color="#f1c499"/></linearGradient><linearGradient id="bn" x1="129.76" y1="112.96" x2="129.32" y2="86.34" xlink:href="#bm"/><linearGradient id="bo" x1="99.37" y1="114.15" x2="98.92" y2="86.92" xlink:href="#bm"/><linearGradient id="bp" x1="115.39" y1="119.65" x2="114.75" y2="101.18" xlink:href="#bm"/><linearGradient id="bq" x1="103.4" y1="97.34" x2="126.22" y2="97.73" gradientTransform="matrix(1, 0, 0, 1, 0, 0)" gradientUnits="userSpaceOnUse"><stop offset="0" stop-color="#e7d8d6"/><stop offset=".14" stop-color="#efe5e4"/><stop offset=".4" stop-color="#faf8f7"/><stop offset=".57" stop-color="#fff"/><stop offset="1" stop-color="#e7d2d0"/></linearGradient><linearGradient id="br" x1="115.4" y1="119.27" x2="114.78" y2="101.32" xlink:href="#bm"/><linearGradient id="bs" x1="113.98" y1="88.58" x2="114.35" y2="97.24" gradientTransform="matrix(1, 0, 0, 1, 0, 0)" gradientUnits="userSpaceOnUse"><stop offset="0" stop-color="#e7d8d6"/><stop offset=".39" stop-color="#eee4e2"/><stop offset="1" stop-color="#fff"/></linearGradient><linearGradient id="bt" x1="114.91" y1="122.68" x2="114.3" y2="85.51" xlink:href="#bm"/><linearGradient id="bu" x1="92.02" y1="75.88" x2="75.53" y2="71.86" xlink:href="#bl"/><linearGradient id="bv" x1="132.7" y1="73.79" x2="131.61" y2="61" gradientTransform="matrix(1, 0, 0, 1, 0, 0)" gradientUnits="userSpaceOnUse"><stop offset="0" stop-color="#f6d3aa"/><stop offset=".52" stop-color="#f5d0a7"/><stop offset=".85" stop-color="#f2c99e"/><stop offset="1" stop-color="#f0c498"/></linearGradient><linearGradient id="bw" x1="95.12" y1="73.71" x2="94.06" y2="61.25" xlink:href="#bv"/><linearGradient id="bx" x1="85.3" y1="63.12" x2="106.62" y2="69.13" gradientTransform="matrix(1, 0, 0, 1, 0, 0)" gradientUnits="userSpaceOnUse"><stop offset="0" stop-color="#f0c498"/><stop offset=".52" stop-color="#e3af85"/><stop offset="1" stop-color="#daa279"/></linearGradient><linearGradient id="by" x1="103.89" y1="68.7" x2="90.22" y2="65.4" gradientTransform="matrix(1, 0, 0, 1, 0, 0)" gradientUnits="userSpaceOnUse"><stop offset="0" stop-color="#eae5e5"/><stop offset=".25" stop-color="#f5f3f3"/><stop offset=".55" stop-color="#fcfcfc"/><stop offset="1" stop-color="#fff"/></linearGradient><linearGradient id="c`" x1="101.19" y1="67.05" x2="86.83" y2="67.62" gradientTransform="matrix(1, 0, 0, 1, 0, 0)" gradientUnits="userSpaceOnUse"><stop offset="0" stop-color="#94948c"/><stop offset="1" stop-color="#c4c5bf"/></linearGradient><linearGradient id="ca" x1="92.46" y1="64.07" x2="107.34" y2="71.65" xlink:href="#c`"/><radialGradient id="cb" cx="98.74" cy="98.57" fx="98.74" fy="98.57" r="9.1" gradientTransform="translate(0 -31.07) scale(1 1.02)" gradientUnits="userSpaceOnUse"><stop offset="0" stop-color="#2a3a3b"/><stop offset="1" stop-color="#1c2727"/></radialGradient><linearGradient id="cc" x1="87.06" y1="64.73" x2="102.68" y2="63.98" gradientTransform="matrix(1, 0, 0, 1, 0, 0)" gradientUnits="userSpaceOnUse"><stop offset="0" stop-color="#683126"/><stop offset=".01" stop-color="#673025"/><stop offset=".35" stop-color="#51271d"/><stop offset=".69" stop-color="#452118"/><stop offset="1" stop-color="#412017"/></linearGradient><linearGradient id="cd" x1="121.28" y1="63.45" x2="142.08" y2="69.31" xlink:href="#bx"/><linearGradient id="ce" x1="138.62" y1="68.77" x2="125.3" y2="65.56" xlink:href="#by"/><linearGradient id="cf" x1="135.69" y1="67.03" x2="121.33" y2="67.6" xlink:href="#c`"/><linearGradient id="cg" x1="127.4" y1="63.27" x2="144.82" y2="72.15" xlink:href="#c`"/><radialGradient id="ch" cx="133.3" cy="98.57" fx="133.3" fy="98.57" r="9.1" xlink:href="#cb"/><linearGradient id="ci" x1="122.89" y1="65.07" x2="138.36" y2="64.34" xlink:href="#cc"/><linearGradient id="cj" x1="121.43" y1="54.92" x2="140.42" y2="54.92" xlink:href="#cc"/><linearGradient id="ck" x1="85.55" y1="54.92" x2="104.54" y2="54.92" xlink:href="#cc"/><linearGradient id="cl" x1="95.14" y1="119.36" x2="75.97" y2="82.66" gradientTransform="matrix(1, 0, 0, 1, 0, 0)" gradientUnits="userSpaceOnUse"><stop offset="0" stop-color="#f5d1a9"/><stop offset="1" stop-color="#f0c397"/></linearGradient><linearGradient id="cm" x1="132.87" y1="120.6" x2="151.09" y2="83.14" gradientTransform="matrix(1, 0, 0, 1, 0, 0)" gradientUnits="userSpaceOnUse"><stop offset="0" stop-color="#f5d1a9"/><stop offset=".01" stop-color="#f5d1a9"/><stop offset="1" stop-color="#ffd7b2"/></linearGradient><linearGradient id="cn" x1="108.91" y1="-11.12" x2="113.83" y2="66.44" gradientTransform="matrix(1, 0, 0, 1, 0, 0)" gradientUnits="userSpaceOnUse"><stop offset="0" stop-color="#f6d3aa"/><stop offset=".45" stop-color="#f2ca9f"/><stop offset="1" stop-color="#f0c498"/></linearGradient><linearGradient id="co" x1="110.03" y1=".93" x2="115.96" y2="91.25" xlink:href="#cc"/><linearGradient id="cp" x1="142.04" y1="22.69" x2="156.56" y2="22.69" gradientTransform="matrix(1, 0, 0, 1, 0, 0)" gradientUnits="userSpaceOnUse"><stop offset="0" stop-color="#683126"/><stop offset=".74" stop-color="#7b3d32"/><stop offset="1" stop-color="#834238"/></linearGradient><linearGradient id="cq" x1="90.53" y1="63.19" x2="88.96" y2="92.26" xlink:href="#cn"/><linearGradient id="cr" x1="68.84" y1="24.69" x2="83.75" y2="24.69" xlink:href="#cp"/><linearGradient id="cs" x1="115.15" y1="82.31" x2="114.63" y2="96.42" xlink:href="#cn"/><linearGradient id="ct" x1="139.72" y1="58.09" x2="137.9" y2="91.68" xlink:href="#cn"/><linearGradient id="cu" x1="68.62" y1="35.55" x2="79.68" y2="35.55" xlink:href="#cp"/><linearGradient id="cv" x1="113.08" y1="42.04" x2="114.57" y2="161.29" xlink:href="#cc"/><linearGradient id="cw" x1="97.98" y1="-37.07" x2="98.43" y2="22.32" xlink:href="#cc"/><linearGradient id="cx" x1="109.14" y1="4.19" x2="110.95" y2="32.99" xlink:href="#cc"/><linearGradient id="cy" x1="113.4" y1="48.6" x2="114.2" y2="82.31" gradientTransform="matrix(1, 0, 0, 1, 0, 0)" gradientUnits="userSpaceOnUse"><stop offset="0" stop-color="#ffd8b2"/><stop offset=".25" stop-color="#fbd6ae"/><stop offset="1" stop-color="#f6d3aa"/></linearGradient><linearGradient id="d`" x1="113.59" y1="67.8" x2="114.17" y2="86.8" xlink:href="#bm"/><linearGradient id="da" x1="113.35" y1="84" x2="114.49" y2="75.6" gradientTransform="matrix(1, 0, 0, 1, 0, 0)" gradientUnits="userSpaceOnUse"><stop offset="0" stop-color="#ffd8b2"/><stop offset=".33" stop-color="#fad5ad"/><stop offset="1" stop-color="#f6d3aa"/></linearGradient><linearGradient id="db" x1="136.46" y1="11.31" x2="94.32" y2="9.87" xlink:href="#cp"/><linearGradient id="dc" x1="120.27" y1="132.37" x2="115.19" y2="80.85" gradientTransform="matrix(1, 0, 0, 1, 0, 0)" gradientUnits="userSpaceOnUse"><stop offset="0" stop-color="#565658"/><stop offset="1" stop-color="#2b2a2d"/></linearGradient><linearGradient id="dd" x1="-11.88" y1="193.8" x2="43.07" y2="212.73" gradientTransform="matrix(1, 0, 0, 1, 0, 0)" gradientUnits="userSpaceOnUse"><stop offset="0" stop-color="#343336"/><stop offset=".93" stop-color="#2b2a2e"/><stop offset="1" stop-color="#2b2a2e"/></linearGradient></defs><g id="a"/><g id="b"><g id="c"><g><path class="di" d="M88.15,114.77l-.53-15.94,48.38,8.43-1.01,16.24s-14.27,16.08-17.64,17.04c-3.36,.96-28.54-16.75-29.21-25.77Z"/><path class="dh" d="M135.37,113.72s.19,8.36-.81,10.27c-.99,1.9-12.69,10.34-12.69,10.34l-8.86,1.25s-13.13-4.17-16.28-7.45c-3.15-3.28-8.42-20.24-8.42-20.24,0,0,1.29,4.42,5.38,10.08,2.36,3.26,17.11,14.14,17.44,14.21,1.89,.37,8.96-.29,9.61-.23s11.27-8.46,11.34-9.02c.06-.56,3.28-9.21,3.28-9.21Z"/><path class="hg" d="M158.63,144.98c-.11-1.25-31.61-7.57-31.61-7.57l-23.84,1.22-28.11-13.72-5.31,181.54,67.9,17.18,45.08-20.44-24.1-158.19Z"/><path class="dk" d="M183.66,147.94c.05-.7-5.03-9.57-5.19-10.15,5.01,2.79,9.72,1.29,13.12,23.24,1.39,9.01,3.39,26.74,5.78,43.96-.25-.08-.51-.14-.79-.16-4.22-.37-9.75-.51-13.98-.47,1.49-10.26,1.9-18.96,2.19-24.42,1.23-22.91,.1-29.13-1.13-31.99Z"/><path class="dj" d="M183.52,191.83l-2.74,47.45s8.59,22.13-.39,60.44c-1.72,7.28-9.04,45.15-9.04,45.15,0,0,12.78,10.74,16.66,18.58,0,0,15.24-31.58,15.81-33.56,.63-2.19,3.99-50.91,3.78-56.97-.39-11.13-15.82-100.85-15.43-108.01l-8.64,26.92Z"/><path class="dr" d="M174.12,324.38c5.22-18.29,11.74-59.65,11.74-59.65,1.51-13.45-12.13-18.69-.26-81.91-3,46.98,10.84,68.09,7.86,88.08-1.01,6.76-1,27.63-4.27,42.89-1.96,9.15-8.42,22.53-8.42,22.53,0,0-4.07-7.39-6.65-11.93Z"/><path class="dq" d="M174.16,324.23l3.96-20.31c3.7-24.43-2.02-35.99-2.43-53.76-.4-17.06,5.46-55.82,8.1-73.64,3.22-21.74-2.84-37.36-2.84-37.36,18.01,6.4,2.97,67.49,4.36,86.05,1.68,22.51,6.34,30.82,4.08,44.69-.27,1.68-8.61,54.66-8.84,58.96-.26,4.77-4.49-8.87-6.39-4.63Z"/><polygon class="dt" points="141.4 280.61 141.88 309.11 144.81 308.4 143.64 278.69 141.4 280.61"/><path class="ds" d="M81.15,163.23c10.75-17.56,68.12-15.2,76.56-9.24,10.74,7.59,27.75,36.85,17.73,47.56-10.02,10.71-77.81,10.63-91.69,4.71-13.88-5.92-11.49-28.52-2.6-43.03Z"/><polygon class="dv" points="131.21 273.42 132.46 308.75 142.97 308.37 142.41 270.89 131.21 273.42"/><path class="du" d="M138.75,134.53s7.35,13.04,11.98,43.43c.68,4.44,8.43,64.94,8.43,64.94,0,0,12.49,52.41,15,61.81l5.03,.61-14.16-64.97-7.18-72.07-17.77-44.14-1.33,10.39Z"/><path class="dw" d="M178.58,301.25l.83,6.8s-44.9,4.53-51.69,4.53-55.5-12.17-55.5-12.17l1.21-6.62s44.74,10.69,61.49,11.33c16.75,.64,43.66-3.86,43.66-3.86Z"/><path class="dm" d="M141.88,123.36l35.18,13.91s10.74,2.36,10.79,14.26c.08,16.74-6.24,68.11-6.12,69.34,.12,1.23,4.23,40.26,4.23,40.26l-6.54,45.41s-4.99-19.55-12.03-58.07c-1.67-9.17-2.05-50.43-9.21-72.17-6.26-19.01-16.3-52.94-16.3-52.94Z"/><path class="dl" d="M53.06,380.25s16.61-8.24,22.03-14c9.63-10.25,14.11-58.66,14.11-58.66l-10.65-2.85-21.78,59.35-3.71,16.16Z"/><polygon class="do" points="135.77 324.1 137.77 367.67 140.44 324.1 135.77 324.1"/><ellipse class="dp" cx="101.53" cy="705.28" rx="101.53" ry="13.27"/><g><path class="dn" d="M36.79,675.84s.35,6.11-.7,9.01c-1.54,4.28-14.71,19.33-15.01,23.2-.51,6.68,2.39,6.05,2.39,6.05,0,0,12.34,1.99,22.22,1.43,6.63-.38,11.8-2.93,12.33-3.74,1.57-2.39,3.57-6.51,3.57-6.51l8.83-1.32s.12-10.07-1.03-10.62l-2.55-13.69s-27.8-5.3-30.05-3.8Z"/><path class="df" d="M61.57,705.28s.24-8.17,3.95-10.02c2.34-1.18,2.94-1.42,3.85-1.98,1.27,.7,1.08,10.7,1.08,10.7,0,0-2.19,.38-8.88,1.31Z"/><path class="de" d="M22.09,713.58s28.19,4.09,35.94-1.81c0,0-2.52,4.66-16.82,5.04-15.84,.42-19.13-3.24-19.13-3.24Z"/><path class="dg" d="M30.14,706.48s14.37,.44,22.39-3.72c8.02-4.16,6.28,9.82-5.07,9.73-11.36-.09-30.84-6.91-17.31-6.01Z"/></g><path class="dy" d="M108.72,673.64v22.22l27.99,2.81,.32-5.83,10.92,7.92,28.8,2.75h13.65s9.65-9.7-6.43-14.21c-16.08-4.51-24.44-16.07-26.37-22.85l-48.88,7.19Z"/><path class="dx" d="M179.62,310.5l-120.43-4.44s-12.22,66.05-12.22,76.29-3.86,108.62-3.86,115.97-9.83,150.87-10.47,153.49c-.64,2.61,3.4,30.83,3.4,30.83h15.44l17.19,6.8,8.28-28.18-.39-33.36,10.93-42.86s4.67-72.71,4.74-91.34c.06-17.21,23.57-82.15,23.57-82.15,0,0,4.5,92.81,3.86,105.23-.64,12.42-7.26,67.56-7.26,67.56l2.11,33.75-5.79,25.49v30.07s30.23,6.54,48.88-7.19l-3.86-13.57,9.08-28.26-2.65-42.48,9-109.81s17.9-94.52,17.9-102.36-7.47-59.47-7.47-59.47Z"/><path class="e`" d="M87.49,585.03l7.44-94.51,20.86-78.99,3.92,100.67-5.08,53.1,16.6-72.28s-5.92-74.5-6.5-82.29c-.09-1.22,17.92-32.65,17.92-32.65l-35.07,33.93-23.3,72.73,3.22,100.29Z"/><path class="el" d="M59.19,306.06s-21.79,68.49-21.33,73.35c.7,7.29,4.65,128.37,4.65,128.37l-10.33,145.92,3.85,28.93h15.44s10.29-174.13,10.29-180.78,29.58-194.57,29.58-194.57l-32.15-1.22Z"/><path class="ea" d="M189.2,364.59c.12,4.59-19.57,114.34-19.57,114.34l-9.46,103.21,2.65,42.48-9.08,28.26,3.86,13.57s-4.07,3.82-9.47,5.07c-1.93-5.07-8.54-21.41-8.54-25.33s9-43.86,9-46.44,8.36-128.08,8.36-128.08c0,0,32.12-111.68,32.24-107.08Z"/><path class="ec" d="M187.52,692.01c-1.87,.09-18.05,3.34-20.45,3.6-2.4,.26,19.97,5.87,23.83,2.26,2.13-1.99-1.07-5.97-3.38-5.86Z"/><path class="ho" d="M191.6,702.01s-.62,1.11-1.2,1.5c0,0-.24,1.89-11.57,1.37s-30.88-4.12-30.88-4.12l-10.92-7.92-.32,5.83-27.99-2.81v-10.58s22,2.8,25.28,4.15c3.27,1.35,15.2,9.48,15.2,9.48,0,0,15.4,2.65,27.24,3.96,7.44,.82,12.58,.11,15.17-.87Z"/><path class="et" d="M157.6,666.45s-4.24,5.68-19.11,8.43c-14.87,2.75-29.77-1.24-29.77-1.24,0,0,35.31,3.51,48.34-9.09l.54,1.9Z"/><path class="ef" d="M68.67,689.43l-17.19-6.8h-15.44l-.28-2.19s15.37,.3,15.83,.25c.46-.05,17.08,8.74,17.08,8.74Z"/><path class="ei" d="M107.58,142.9s1.03,4.78,2.87,7.69c1.83,2.91,3.96,4.09,4.04,4.48,.56,3.01,1.1,32.22,1.91,38.28,.8,6.06,2.17,38.13,2.52,43.96,.34,5.83,1.29,58.26,1.75,61.17,3.78,4.55,10.09,15.3,10.09,15.3l9.98-12.59-23.06-131.83c-.09-5.74,3.91-18.29-8.14-30.54l-1.95,4.08Z"/><path class="ek" d="M41.05,564.39s.03-.58,.08-1.67c-.03,.61-.06,1.17-.08,1.67Zm-3.19-184.99c8.59-3.7,21.91-16.54,23.92-19.33,11.73-16.28,14.36-34.21,16.33-38.3,1.12-2.33,59.41,15.41,97.58,1.21,1.21-.45,10.68,53.12,11.55,55.1,1.31-6.22,1.96-13.49,1.96-13.49l-9.55-52.31-106.66-5.3-35.79,67.8,.66,4.62Z"/><path class="eb" d="M79.32,123.51l7.73-1.9s4.29,45.48,5.22,47.64c.92,2.16,9.85,72,7.87,84.17-2.16,13.28-9.53,57.45-9.53,57.45l-16.76-6.12,5.46-181.24Z"/><path class="ed" d="M178.89,303.81c-11.18,2.14-20.67,4.03-29.87,4.63-39.26,2.56-73.52-11.33-73.52-11.33l-5.19,16.23s26.56,10.73,70,12.82c14.88,.71,26.81-3.2,41.01-7.91-.91-7.08-2.42-14.44-2.42-14.44Z"/><path class="ee" d="M146.56,326.19c-.22,.01-.69,.03-.75,.02l-5.37,53.77c-.39,1.25-18.05,34.08-17.3,40.61,4.97,42.87,8.09,72.44,8.09,72.44,2.1-17.44,12.17-83.21,15.06-103.1-.51-4.41,.01-45.53,.27-63.74Z"/><path class="eh" d="M140.44,379.98l-20.84,20.4s.42,37.13-.98,75.21c0,0,19.15-88.16,21.82-95.61Z"/><g><path class="ey" d="M155.04,321.8s.27,1.47,.13,2.1c-.13,.64-15.72,1.99-17.07-.2-1.35-2.19-1.48-11.27-.44-12.69,1.03-1.42,16.74-2.4,16.98-1.42,.11,.45,.08,2.08,.08,2.08,0,0-13.37,.4-14.25,1.07-.88,.67-.45,3.09-.45,3.09,0,0,2.04-.12,2.59,.17,.55,.29,.24,2.28,.17,2.85-.07,.56-2.68,.59-2.68,.59,0,0-.28,2.4,.54,2.95,.82,.55,14.39-.58,14.39-.58Z"/><path class="ep" d="M154.59,321.72s.27,1.47,.14,2.1c-.13,.64-15.72,1.99-17.08-.2-1.35-2.19-1.48-11.27-.44-12.69,1.03-1.42,16.74-2.4,16.98-1.42,.11,.45,.08,2.08,.08,2.08,0,0-13.37,.4-14.25,1.07-.88,.67-.42,3.81-.42,3.81l2.21-.09,.21,2.17-2.39,.07s-.25,3.13,.57,3.68c.82,.55,14.39-.58,14.39-.58Z"/></g><path class="es" d="M28.43,141.65s31.38-12.22,43.11-16.16c4.09-1.38,15.51-6.52,15.51-6.52,0,0-3.54,8.05-3.74,12.99-.2,4.94,3.74,54.02,5.23,65.85,1.49,11.83,4.19,57.03,1.52,65.05-2.6,7.8-19.76,76.99-29.17,89.31-3.05,3.99-14.69,3.77-14.69,3.77,0,0-3.79-34.97-1.68-40.53,2.1-5.55,2.87-61.81,3.18-67.78,.31-5.97-16.24-36.1-16.24-36.1l-3.02-69.89Z"/><path class="eu" d="M81,127.62s14.57,24.88,20.58,30.75c3.46-4.81,14.21-19.72,14.21-19.72l5.73-.68s18.54,15.69,19.28,16.01c0,0,1.58-6.83,2-23.66l-6.79-3.35-18.12,9.61-8.01,1.15-28.87-10.12Z"/><path class="eg" d="M141.88,123.36l25.05,12.1-5.11,2.82,10.43,1.31s-2.5,24.72-3.36,46.57c-.71,17.97-2.85,22.93,.18,69.86,0,0-2.94-18.67-4.65-30.72-1.71-12.05-5.99-76.12-9.7-82.11-3.72-5.99-12.84-19.84-12.84-19.84Z"/><path class="ej" d="M137.35,117.36l27.3,16.46-10.38,4.3,13.9,1.75s-2.11,32.64-2.3,43.74c-.1,5.76,1.51,49.14,7.73,96.85-10.69-43.47-16.54-83.95-18.54-97.26-7.25-42.11-16.96-59.26-16.96-59.26l-.76-6.58Z"/><path class="en" d="M67.56,129.43l-9.68,5.1,3.93,3.13-8.97,1s15.2,45.35,16.21,45.99c1.02,.64,20.97,69.14,21.63,74.95,0,0,2.31-18.78,.2-25.62-2.11-6.83-23.33-104.55-23.33-104.55Z"/><path class="eo" d="M126.7,151.15s10.82,35.26,12.89,45.75c2.06,10.49,11.14,91.78,11.14,100.2l-12.57,16.88-14.55-16.88s-3.5-93.49-3.66-97.75c-.11-3-4.15-48.94-4.15-48.94l10.91,.74Z"/><path class="hl" d="M116.32,156.39s2.13-1.88,10.9-3.54l-.67-2.58-10.76,.76,.52,5.37Z"/><path class="em" d="M122.83,135.2s-1.97-.48-4.38,0c-2.39,.48-4.68,.7-4.68,.7l-4.7,5.71s1.11,7.98,7.08,11.23c3.67-.23,7.28-1,10.61-1.35,3.1-5.25,.26-14.08,.26-14.08,0,0-2.58-.93-4.19-2.21Z"/><path class="ev" d="M83.93,114.53s1.84,27.98,1.84,30.54,5.61,62.21,6.3,67.18c3.55,25.35-1.39,47.34-1.39,47.34,0,0-11.29-53.13-12.06-58.14-.78-5.07-21.86-62.36-21.86-62.36l10.93-1.28s-3.78-2.4-8.41-5.39c21.21-10.03,19.3-15.63,24.64-17.89Z"/><path class="ex" d="M108.69,140.58c.19,1.39,1.28,4.4,1.28,4.4l5.6-8.72,5.15-.68s7.02,6.68,7.35,7.09c.05-3-1.61-8.15-1.61-8.15h-5.02l-8.43,1.06s-3.28,3.56-4.33,5Z"/><path class="hg" d="M113.01,135.59s-10.94,16.16-12.33,18.41l-9.79-13.41s-6.66-11.19-7.39-16.45c-1.63-11.72,4.39-17.48,4.39-17.48,0,0,2.75,9.39,5.39,12.4,2.64,3.02,12.88,14.13,19.74,16.53Z"/><path class="hg" d="M121.44,134.53s6.64-4.75,9.59-7.86c2.95-3.11,4.33-12.95,4.33-12.95,0,0,4.55,5.97,4.71,10.41,.14,3.84,.26,26.51,.26,26.51,0,0-11.54-14.4-18.9-16.12Z"/><path class="f`" d="M121.44,134.53s9.66-7.58,10.13-8.63c.46-1.05,3.07-6.35,3.49-11.37,0,0,1.77,8.82-1.66,12.45-3.43,3.63-10.82,7.05-11.96,7.55Z"/><path class="er" d="M113.01,135.59s-4.52-1.52-10.64-7.3c-4.45-4.19-9.63-9.73-10.29-10.97-.66-1.24-4.21-10.66-4.21-10.66,0,0,1.44,11.19,3.01,13.04,1.57,1.85,8.84,9.29,11.02,10.65,9.25,5.76,11.11,5.25,11.11,5.25Z"/><path class="eq" d="M100.68,153.99l8.2-12.29s-10,4.59-16,1.61l7.8,10.68Z"/><path class="ew" d="M132.09,141.7s7.34,8.24,8.25,8.94l-.14-18.69s-1.16,7.49-8.11,9.75Z"/><polygon class="gl" points="113.53 306.79 117.47 307.33 116.44 327.41 110.97 327.41 113.53 306.79"/><polygon class="fs" points="164.42 306.59 168.17 305.97 172.42 324.44 168.43 326.16 164.42 306.59"/><g><path class="fv" d="M72.22,237.2c-15.21-25.92-21.59-44.14-21.12-41.15l2.84,33.6c-.13,9.74-4.95,28.55-6.93,44.02-.27,2.09-2.76,21.21-2.75,35.51,.63,5.87,5.44,33.31,5.44,33.31,0,0,4.32-31.79,8.25-39.95,3.93-8.15,18.53-58.11,14.27-65.35Z"/><path class="fu" d="M45.21,290.39c1.27-3.3,9.2-23.5,9.49-25.92,1.89-15.8-1.75-65.14-6.5-81.84-7.1-25-11-38.71-19.77-40.77l19.12,103.02s-.96,29.53-2.34,45.52Z"/><polygon class="fp" points="55.78 355.04 37.2 374.78 32.73 364.45 55.78 355.04"/><polygon class="fl" points="55.78 355.04 53.56 356.24 34.69 370.48 31.17 362.49 55.78 355.04"/><path class="fn" d="M28.74,141.75c-5.25-.2-9.06,25.52-14.73,53.98C7.1,230.45-1.09,269.86,.47,278.69c1.32,7.45,11.39,58.36,13.96,65.65,.65,1.84,12.75,23.79,13.6,26.91,5.78-3.02,25.41-15.23,27.75-16.21-2.72-9.8-7.17-29.96-11.52-48.06-8.69-36.09,5.67-72.96,5.67-72.96,0,0-.97-27.41-1.95-28.93-.97-1.53-5.85-62.83-19.23-63.34Z"/><path class="fm" d="M47.93,253.09s7.79-44.57-5.25-81.52c0,0,6.26,47.51-6.88,103.17-2.72,11.51,18.87,76.4,18.87,76.4,0,0-8.81-46.07-8.81-47.96s-1.97-26.26-1.61-29.67c.36-3.41,3.67-20.42,3.67-20.42Z"/></g><g><g><g><path class="hj" d="M71.81,63.02c-4.37,.82-3.41,3.84-1.5,9.13,1.85,14.06,5.42,16.87,6.93,16.02,2.76-1.57-.15-26.14-5.43-25.15Z"/><path class="ft" d="M75.34,83.04s-2.04-2.63-1.23-7.57c1.92-11.66-5.11-12.82-3.76-4.73,0,0,1.1-3.73,1.95-2.55,1.05,1.44-1.24,2.09-.28,8.21,.5,3.18,3.31,6.65,3.31,6.65Z"/></g><g><path class="hj" d="M154.05,62.92c4.4,.61,3.62,3.68,2.01,9.05-1.06,14.13-4.46,17.11-6.02,16.32-2.85-1.43-1.33-26.11,4.01-25.37Z"/><path class="gr" d="M151.66,83.07s1.89-2.73,.8-7.62c-2.58-11.55,4.38-13.04,3.49-4.9,0,0-1.31-3.67-2.1-2.46-.97,1.49,1.36,2.03,.74,8.18-.33,3.2-2.93,6.79-2.93,6.79Z"/></g><path class="hh" d="M150.62,62.22c1.3-33.09-8.68-37.54-11.53-40.92-5.79-6.86-14.89-9.86-30.45-9.49,0,0-20.27,.73-25.33,12-5.42,12.06-6.39,28.64-5.91,44.19,.58,18.88,.57,23.87,2.19,27.82,.75,1.83,1.68,4.34,5.3,7.25,5.77,4.63,13.35,13.35,18.02,17.16,1.88,1.54,14.48,4.82,24.39-2.01,5.19-3.58,10.6-8.12,16.93-14.54,2.8-2.84,4.61-7.47,4.61-9.78,0-2.65,1.55-12.68,1.46-14.65-.52-10.66-.03-7.85,.33-17.04Z"/><path class="gu" d="M134.8,93.5c6.4,.44,14.17-.39,15.51-13.89,.76-7.69-.66-11.71-3.82-12.31-6.72-1.28-16.36,1.71-20.37,3.84-8.48,4.5-2.66,21.58,8.68,22.36Z"/><path class="gt" d="M99.37,70.5c-1.83-.68-15.77-3.91-19.92-2.68-2.37,.7-3.14,6.15-2.75,11.3,.19,2.47,.73,6.4,1.28,7.95,2.68,7.61,14.1,7.95,20.01,5.82,10.08-3.62,10.67-18.94,1.38-22.39Z"/><path class="go" d="M145.73,71c-1.16-.66-2.01,.3-4.41,1.1-2.36,.79-8.79,2.02-5.76,3.69,3.34,1.85,8.01-.68,8.58-1.16,.57-.47,3.03-2.82,1.6-3.63Z"/><g><path class="fo" d="M127.82,97.3c-.21,.18-.41,.35-.6,.53,0,0,.26-.18,.6-.53Z"/><path class="fr" d="M125.32,86.88c6.44,5.29,3.83,9.09,2.5,10.42,2.48-2.11,5.82-4.46,5.6-5.39-.8-3.37-8.09-5.03-8.09-5.03Z"/><path class="hn" d="M127.15,93.32s3.3-.78,3.59-1.02c.29-.24,.56-1.09,.56-1.09l-2.1,.65-2.05,1.46Z"/><path class="fq" d="M95.54,92.42c.15,1.03,3.02,3.58,4.91,5.57,0,0-5.04-5.51,1.97-10.47,0,0-7.37,1.42-6.88,4.9Z"/><path class="hn" d="M97.26,91.42s.26,.85,.56,1.09c.29,.24,3.59,1.02,3.59,1.02l-2.05-1.46-2.1-.65Z"/><path class="gs" d="M107.59,106.05c8.75-.98,14.66,.11,14.66,.11-6.64-4.2-14.66-.11-14.66-.11Z"/><path class="hp" d="M98.04,91.84c.18,.19,.31,.44,.54,.55,4.2,1.89,4.26,3.7,6.06,4.68,6.39,3.5,13.83,2.65,18.85-.16,2.88-1.62,3.25-3.5,6.7-4.87,.46-.18,.55-.55,.55-.55-18.44,4.58-32.7,.35-32.7,.35Z"/><path class="hk" d="M114.56,100.76c-2.49,0-4.94-.49-4.94,0s2.16,1.59,4.65,1.59c2.49,0,4.94-1.1,4.94-1.59s-2.16,0-4.65,0Z"/><path class="gw" d="M121.74,95.74c-1.69,.35-4.87,.99-7.79,.99-3.22,0-6.48-.6-8.26-.93-.78-.14-1.11,1.24-1.11,1.24,2.34,1.74,5.16,2.4,9.67,2.43,6.02,.04,9.34-2.6,9.34-2.6,0,0-.85-1.33-1.84-1.13Z"/><path class="h`" d="M105.38,101.4c9.6,7.76,18.79-.53,18.79-.53-9.7,5.25-18.79,.53-18.79,.53Z"/><path class="gy" d="M102.22,92.73s.06,1.6,1.67,2.31c.93,.41,3.02,2.02,11.13,1.77,8.11-.25,9.71-2.24,10.08-2.59,.69-.65,1-1.74,1-1.74,0,0-12.22,2.43-23.88,.26Z"/><path class="hf" d="M102.19,92.58s.05,.73,.32,1.16c.22,.36,6.7,1.32,11.6,1.35,4.89,.03,11.28-1.25,11.51-1.54,.35-.45,.55-1.24,.55-1.24,0,0-5.51,1.88-23.97,.26Z"/><path class="gv" d="M97.04,91.33s1.18,.69,1,.51c0,0,14.27,4.23,32.7-.35l1-.51c-10.01,1.7-34.7,.35-34.7,.35Z"/></g><path class="gn" d="M84.8,72.37c-2.44-.68-3.34-1.59-4.46-.87-1.38,.89,1.19,3.1,1.78,3.54,.59,.45,5.38,2.73,8.62,.71,2.94-1.83-3.55-2.72-5.94-3.39Z"/><path class="gq" d="M121.67,54.44c-.49,3.22-3.41,15.07-1.55,16.18,11.62,6.95,24.32-1.85,24.32-1.85,3.23-19.37-22.77-14.33-22.77-14.33Z"/><path class="gp" d="M82.3,69.05s12.34,8.38,24.21,.62c1.82-1.19-1.77-11.71-2.27-14.93,0,0-22.21-6.65-21.94,14.31Z"/><g><g><path class="gx" d="M95.32,60.24c-1.94-.11-6.09,.49-7.48,1.59-2.48,1.95-3.35,3.72-3.13,5.96,.06,.66,2.71,3.19,8.33,3.63,4.21,.33,10.9,.01,12.51-1.78,.78-.86-.22-4.3-.54-5.52-.59-2.3-3.79-3.55-9.7-3.87Z"/><path class="gm" d="M99.45,62.62c-9.03-1.1-8.48,.27-12.14,4.52,0,0,.06,.67,.56,1.43,.51,.78,1.96,1.87,3.76,2.21,5.8,1.12,7.65,.29,10.12-.22,1.05-.22,2.22-1.23,2.19-1.69,0,0,.19-1.89-.56-3.56-.58-1.29-1.71-2.42-3.92-2.69Z"/><path class="hm" d="M87.3,67.14c.01,.27,.19,.86,.52,1.37,6.49-4.08,13.49-3.14,15.54-3.2-3.66-2.38-9.03-1.85-11.68-2.14-3.37-.37-4.38,3.97-4.38,3.97Z"/><path class="fh" d="M95.78,63.14c-2.94,.15-5.38,2.46-5.02,5.4,.08,.63,.15,1.41,.86,2.23,.53,.16,2.68,.58,4.23,.56,2.09,.09,4-.3,4.49-.46,.13-.13,.75-1.4,.82-2.55,.17-3.03-1.88-5.35-5.38-5.18Z"/><path class="fc" d="M95.56,62.76c-3.16,.26-4.54,2.97-4.72,4.2,0,0,3.5-1.72,9.59-1.7,0,0-1.71-2.76-4.87-2.5Z"/><path class="fb" d="M95.87,64c-1.75,.03-3.15,1.46-3.13,3.2,.03,1.74,1.47,3.12,3.22,3.09,1.75-.04,3.15-1.46,3.13-3.2-.03-1.73-1.47-3.12-3.22-3.08Z"/><path class="fa" d="M101.52,63.15c-3.18-1.81-8.15-1.46-11.33-.15-3.11,1.28-2.89,4.15-2.89,4.15,0,0,1.63-1.88,6.97-2.62,5.34-.74,9.09,.79,9.09,.79,0,0-.61-1.46-1.84-2.16Z"/><g><path class="hi" d="M98.48,67.38c-.68,.35-.98,1.15-.66,1.79,.32,.64,1.14,.89,1.82,.54,.69-.35,.98-1.15,.66-1.79-.32-.64-1.13-.89-1.82-.54Z"/><path class="hi" d="M95.64,66.06c-.54,.27-.77,.9-.51,1.4,.25,.51,.9,.7,1.44,.43,.54-.27,.77-.9,.52-1.41-.25-.51-.9-.7-1.44-.43Z"/></g></g><g><path class="fd" d="M138.56,61.83c-1.39-1.1-5.53-1.7-7.48-1.59-5.91,.33-9.11,1.57-9.7,3.87-.32,1.22-1.31,4.66-.54,5.52,1.62,1.79,8.31,2.11,12.51,1.78,5.63-.44,8.27-2.97,8.33-3.63,.21-2.24-.66-4.01-3.13-5.96Z"/><path class="fk" d="M126.95,62.62c-2.21,.27-3.34,1.4-3.92,2.69-.75,1.68-.56,3.56-.56,3.56-.03,.46,1.14,1.47,2.19,1.69,2.47,.51,4.32,1.33,10.12,.22,1.8-.35,3.26-1.43,3.76-2.21,.49-.76,.56-1.43,.56-1.43-3.66-4.25-3.11-5.62-12.14-4.52Z"/><path class="hm" d="M134.71,63.17c-2.65,.29-8.02-.24-11.68,2.14,2.06,.06,9.06-.88,15.54,3.2,.33-.51,.5-1.1,.52-1.37,0,0-1.01-4.35-4.38-3.97Z"/><path class="fj" d="M130.62,63.14c-3.5-.18-5.56,2.14-5.38,5.18,.07,1.15,.69,2.43,.82,2.55,.49,.16,2.4,.55,4.49,.46,1.55,.03,3.71-.4,4.23-.56,.71-.82,.78-1.61,.86-2.23,.36-2.94-2.08-5.26-5.02-5.4Z"/><path class="fi" d="M130.84,62.76c-3.16-.26-4.87,2.5-4.87,2.5,6.09-.02,9.59,1.7,9.59,1.7-.18-1.23-1.56-3.94-4.72-4.2Z"/><path class="gb" d="M130.52,64c-1.75-.03-3.19,1.35-3.22,3.08-.02,1.74,1.37,3.17,3.13,3.2,1.75,.03,3.2-1.35,3.22-3.09,.03-1.74-1.37-3.17-3.13-3.2Z"/><path class="fg" d="M136.2,62.99c-3.18-1.31-8.15-1.65-11.33,.15-1.23,.7-1.84,2.16-1.84,2.16,0,0,3.75-1.53,9.09-.79,5.34,.74,6.97,2.62,6.97,2.62,0,0,.22-2.87-2.89-4.15Z"/><g><path class="hi" d="M133.11,67.24c-.75,.09-1.29,.8-1.2,1.57,.08,.77,.76,1.33,1.51,1.23,.75-.09,1.29-.8,1.2-1.57-.08-.77-.76-1.33-1.51-1.23Z"/><path class="hi" d="M130.14,65.94c-.59,.07-1.01,.62-.95,1.24,.07,.61,.61,1.05,1.2,.98,.59-.07,1.01-.62,.95-1.24-.07-.61-.6-1.05-1.19-.98Z"/></g></g></g><path class="ff" d="M137.9,54.43c-6.96-2.16-9.94-1.94-15.23-1.04-1.82,.31-1.61,3.45,.38,3.66,3.75,.4,17.26-1.39,17.26-1.39,0,0,.89-.21-2.41-1.23Z"/><path class="fe" d="M103.3,53.39c-5.3-.9-8.28-1.12-15.23,1.04-3.29,1.02-2.41,1.23-2.41,1.23,0,0,13.5,1.79,17.26,1.39,2-.21,2.2-3.35,.38-3.66Z"/><path class="fx" d="M76.26,76.61c.27,7.27,1.42,14.47,2.38,17.92,.25,.9,1.25,4.82,4.63,8.03,5.62,5.34,13.2,11.59,13.2,11.59-1.1-1.63-10.45-12.57-12.12-15.1-6.35-9.66-8.09-22.44-8.09-22.44Z"/><path class="ge" d="M131.28,115.34c2.37-1.89,8.19-6.74,13.12-11.52,2.34-2.27,3.84-6.28,4.51-8.92,.67-2.64,1.58-17.9,1.58-17.9-.71,6.62-2.63,16.04-6.08,22.36-3.45,6.32-11.77,14.15-13.12,15.98Z"/><path class="gd" d="M140.88,26.76c-14.23-10.13-52.32-.16-56.21-.07-3.89,.09-7.85,50.22-7.85,50.22,0,0,3.81-10.64,5.21-16.64,1.39-6,1.97-20.23,6.98-25.22,14.51-14.46,40.29-8.31,46.49-2.51,6.66,6.23,7.86,21.86,9.21,25.54,1.35,3.67,5.19,16.74,5.19,16.74,0,0,5.2-37.93-9.02-48.06Z"/><path class="gc" d="M145.43,20.08s2.71-8.12-3.39-13.6c0,0,3.58,2.33,0,5.48-4.34-11.25-52.82-20.44-69.86,7.48,0,0,6.13-3.52,11.57,.64,0,0-10.98-2.21-14.91,9.43,0,0,6.51-6.67,10.84,0,0,0-7.45-.94-11.07,12.09,3.05-4.81,5.3-2.07,5.3-2.07,0,0-3.74,7.46-1.16,23.6,0,0,3.5,1.22,3.93,11.1,0,0,3.69-38.33,10.6-42.98,17.54-11.8,44.97-6.07,48.99-3.14,12.72,9.26,14.2,46.31,14.2,46.31,0,0-.08-11.88,4.02-11.44,0,0,9.3-34.32-9.08-42.91Z"/><path class="gh" d="M145.43,20.08s3.31-7.9-3.39-13.6c0,0,6.58,9.09,.6,14.77,0,0,8.92,2.55,13.93,17.64,0,0-.17-14.66-11.14-18.82Z"/><path class="ga" d="M88.65,90.98c-6.04-1.73-9.44-24.02-9.44-24.02-3.02,7.58,5.77,31.62,10.81,30.87,5.04-.75,10.81-11.65,10.81-11.65,0,0-6.96,6.31-12.18,4.81Z"/><path class="g`" d="M68.84,29.51s1.65-1.39,2.68-1.98c0,0,2.55-8.17,12.23-7.45,0,0-11.12-2.48-14.91,9.43Z"/><path class="fy" d="M124.17,106.17c-2.36,1.97-12.1,4.48-18.79,.7-5.42-3.06-7.69-13.55-7.69-13.55,.07,7.75,2.21,13.47,4.74,16.83,2.53,3.36,17.4,3.06,24.23-1.46,6.84-4.53,4.69-16.34,4.69-16.34,.07,3.76-3.12,10.43-7.17,13.82Z"/><path class="gf" d="M141.41,89.16c-5.06,2.69-12.32-1.64-12.32-1.64,0,0,8.23,16.21,14.25,8.65s4.22-32.6,4.22-32.6c0,0-1.1,22.9-6.16,25.59Z"/><path class="gk" d="M68.62,41.61s1.57-2.37,3.56-2.84c0,0-.36-6.52,7.51-9.25,0,0-8.28-.96-11.07,12.09Z"/><path class="gj" d="M147.66,64c-.99,22.88-3.56,28.78-9.97,27.92-6.41-.86-6.82-3.74-10.05-5.44-2.08-1.09-24.85-1.58-26.81-.31-3.17,2.06-3.56,6.43-11.29,6.73-4.33,.17-9.6-6.8-10.32-25.94-.23-5.96-2.07,3.17-2.07,3.17-1.97,19.86,1.91,30.07,5.86,37.41,2.78,5.17,9.5,15.75,18.43,20.75,3.75,2.1,7.16,1.96,12.21,1.84,5.08-.12,11.05-.24,15.56-2.93,9.1-5.44,15.38-16.33,18.35-24.41,4.44-12.09,2.58-33.09,2.58-33.09l-2.47-5.71Zm-20.1,40.65c-1.88,3.01-5.87,4.73-10.9,5.06-9.08,.61-12.95-.84-15.25-4.49-2.61-4.14-4.68-13.36-3.37-14.01,1-.5,17.88,1.27,32.22-.32,2.06-.23,1.17,7.54-2.71,13.76Z"/><g><path class="gi" d="M98.42,9.99c-.11-.03-.18-.04-.18-.04,.06,.01,.12,.03,.18,.04Z"/><path class="fw" d="M125.87,9.95s8.76,8.57,8.96,15.35c-4.36-2.85-16.36-3.12-18.76-3.08-2.34-3.2-7.42-10.4-17.65-12.23,1.16,.28,5.56,1.55,11.48,11.9-4.06-.34-11.62,2.38-13.23,2.72-1.13-.82-6.01-3.42-9.37-3.41,0,0,5.2,2.44,5.68,4.63,0,0-5.5,2.31-8.31,7.13-8.07,13.85-8.05,44.72-8.05,44.72,0,0,2.83-11,4.3-18.91,1.71-9.16,2.26-20.06,5.44-24.42,8.07-11.06,37.65-13.12,49.93-4.78,6.79,4.61,7.91,16.52,9.87,26.87,1.69,8.87,4.32,21.39,4.32,21.39,0,0,.36-35.11-7.85-47.37,0,0-5.1-14.84-16.76-20.52Z"/></g><g><path class="gg" d="M117.05,70.96c.37-7.41-2.18-8.47-4.07-8.4-1.84,.07-2.85,2.63-2.48,8.28,.37,5.63-.71,7.78-.47,10.42,.12,1.2,.66,1.99,3.65,2.01,3.29,.02,4.43-.77,4.57-1.89,.38-3.07-1.48-5.08-1.21-10.42Z"/><path class="hn" d="M117.42,85.36c4.44-1.12,6.19-.46,6.19-.46-2.59-2.3-6.19,.46-6.19,.46Z"/><path class="hn" d="M104.82,84.58s2.3-.38,5.8,.82c0,0-3.41-2.62-5.8-.82Z"/><path class="ha" d="M120.85,77.85c-.03,1.85,.39,3.09-.16,4.15-1.24,2.35-4.44,3.28-6.58,3.11-1.62,.2-5.42-.63-7-3.09-.65-1-.24-1.91-.53-3.88,0,0-4.4,5.4-1.76,6.44,0,0,.77-.59,2.9-.39,2.13,.2,1.69,2.57,6.57,2.62,4.25,.04,2.9-2.03,5.6-2.42,2.71-.39,3.05,.31,3.67,.59,1.35,0,.38-4.57-2.71-7.12Z"/><path class="he" d="M109.57,81.02c-.19,1.21,1.48,2.51,4.48,2.53,3.29,.03,4.02-1.3,3.75-2.41-1.62-6.57-7.53-4.62-8.22-.12Z"/></g></g><path class="hc" d="M142.26,12.03c-1.62-10.47-51.62-23.91-70.27,7.53,0,0,10.73-15.27,36.8-16.31,26.56-1.06,33.48,8.78,33.48,8.78Z"/></g><path class="hb" d="M118.33,60.34c-3.31,1.95-8.67,1-9.56,.32-1.12-.87-26.61-1.17-27.92-.17-.78,.59-.04,6,.12,10.22,.16,4.22,.53,6.77,2.82,8.29,2.25,1.49,19.14,2.14,21.92,.17,2.78-1.97,4.75-11.61,4.75-11.61,0,0,2.61-1.68,6.19,.05,.45,1.55,2.05,9.48,4.73,11.25,2.69,1.77,19.67,1.33,21.92-.17,2.29-1.52,2.66-4.07,2.82-8.29,.16-4.22,.9-9.63,.12-10.22-1.31-1-26.7-.55-27.92,.17Zm-14.49,17.14c-2.01,1.83-16.81,.06-17.45-.17-1.63-.59-2.2-1.69-2.41-3.13-.13-.9-1.34-9.85-.12-10.95,1.23-1.1,23.76-.61,24.25,.3,1.02,1.86-2.27,12.12-4.28,13.95Zm39.28-3.61c-.2,1.44-.78,2.53-2.41,3.13-.64,.23-14.95,1.28-17.45,.17-2.5-1.11-5.3-12.09-4.28-13.95,.5-.9,23.03-1.39,24.25-.3,1.22,1.1,.01,10.05-.12,10.95Z"/><path class="hd" d="M25.52,144.98s-6.06,11.59-14.66,66.49c-8.6,54.9-4.65,62.63,4.22,49.89,8.88-12.74,21.86-55.16,21.7-59.1-.16-3.95-1.82-75.42-11.27-57.27Z"/></g></g></g></svg>