<?xml version="1.0" encoding="UTF-8"?><svg xmlns="http://www.w3.org/2000/svg" xmlns:xlink="http://www.w3.org/1999/xlink" viewBox="0 0 232.55 702.6"><defs><style>.do{fill:url(#u);}.dp{fill:url(#t);}.dq{fill:url(#v);}.dr{fill:url(#e);}.ds{fill:url(#d);}.dt{fill:url(#g);}.du{fill:url(#f);}.dv{fill:url(#p);}.dw{fill:url(#o);}.dx{fill:url(#s);}.dy{fill:url(#q);}.e`{fill:url(#r);}.ea{fill:url(#i);}.eb{fill:url(#h);}.ec{fill:url(#k);}.ed{fill:url(#j);}.ee{fill:url(#m);}.ef{fill:url(#l);}.eg{fill:url(#n);}.eh{fill:url(#x);}.ei{fill:url(#w);}.ej{fill:url(#y);}.ek{fill:url(#aa);}.el{fill:url(#ag);}.em{fill:url(#ab);}.en{fill:url(#ah);}.eo{fill:url(#ai);}.ep{fill:url(#ad);}.eq{fill:url(#ao);}.er{fill:url(#aj);}.es{fill:url(#ae);}.et{fill:url(#ap);}.eu{fill:url(#af);}.ev{fill:url(#a`);}.ew{fill:url(#as);}.ex{fill:url(#aq);}.ey{fill:url(#ar);}.f`{fill:url(#al);}.fa{fill:url(#ax);}.fb{fill:url(#aw);}.fc{fill:url(#am);}.fd{fill:url(#ac);}.fe{fill:url(#an);}.ff{fill:url(#at);}.fg{fill:url(#ay);}.fh{fill:url(#au);}.fi{fill:url(#ak);}.fj{fill:url(#av);}.fk{fill:url(#cc);}.fl{fill:url(#cb);}.fm{fill:url(#ca);}.fn{fill:url(#cd);}.fo{fill:url(#ck);}.fp{fill:url(#cj);}.fq{fill:url(#ci);}.fr{fill:url(#c`);}.fs{fill:url(#cg);}.ft{fill:url(#cf);}.fu{fill:url(#ce);}.fv{fill:url(#be);}.fw{fill:url(#bg);}.fx{fill:url(#bf);}.fy{fill:url(#bm);}.g`{fill:url(#bd);}.ga{fill:url(#bo);}.gb{fill:url(#bn);}.gc{fill:url(#ba);}.gd{fill:url(#bh);}.ge{fill:url(#bc);}.gf{fill:url(#bb);}.gg{fill:url(#cx);}.gh{fill:url(#cl);}.gi{fill:url(#cs);}.gj{fill:url(#cr);}.gk{fill:url(#cq);}.gl{fill:url(#ch);}.gm{fill:url(#co);}.gn{fill:url(#cn);}.go{fill:url(#cm);}.gp{fill:url(#ct);}.gq{fill:url(#cy);}.gr{fill:url(#cp);}.gs{fill:url(#cw);}.gt{fill:url(#cv);}.gu{fill:url(#cu);}.gv{fill:url(#b`);}.gw{fill:url(#by);}.gx{fill:url(#bu);}.gy{fill:url(#bl);}.h`{fill:url(#bw);}.ha{fill:url(#bv);}.hb{fill:url(#bi);}.hc{fill:url(#bp);}.hd{fill:url(#bk);}.he{fill:url(#bj);}.hf{fill:url(#bt);}.hg{fill:url(#bq);}.hh{fill:url(#bx);}.hi{fill:url(#bs);}.hj{fill:url(#br);}.hk{fill:url(#d`);}.hl{fill:url(#dc);}.hm{fill:url(#db);}.hn{fill:url(#dk);}.ho{fill:url(#dn);}.hp{fill:url(#dj);}.hq{fill:url(#dh);}.hr{fill:url(#de);}.hs{fill:url(#dd);}.ht{fill:url(#dg);}.hu{fill:url(#df);}.hv{fill:url(#da);}.hw{fill:url(#dm);}.hx{fill:url(#di);}.hy{fill:url(#dl);}.i`{fill:#fff;}.ia{fill:#f1f0f5;}.ib{fill:#c12433;}.ic{fill:#cc3b4a;}.id{fill:#cc3b4d;}.ie{fill:#ddd;}.if{fill:#c57d4e;}.ig{fill:#d59c74;}.ih{fill:#d7525b;}.ii{fill:#961b27;}.ij{fill:#391b13;}</style><linearGradient id="d" x1="-936.87" y1="384.4" x2="-916.75" y2="384.4" gradientTransform="translate(-914.39 2.8) rotate(179.4) scale(1 -1)" gradientUnits="userSpaceOnUse"><stop offset="0" stop-color="#a9563f"/><stop offset="1" stop-color="#c57d4e"/></linearGradient><linearGradient id="e" x1="14.09" y1="359.81" x2="15.7" y2="374.63" gradientTransform="matrix(1, 0, 0, 1, 0, 0)" xlink:href="#d"/><linearGradient id="f" x1="-912.32" y1="363.34" x2="-931.18" y2="338.54" gradientTransform="translate(-914.39 2.8) rotate(179.4) scale(1 -1)" gradientUnits="userSpaceOnUse"><stop offset="0" stop-color="#cd8653"/><stop offset="1" stop-color="#c57d4e"/></linearGradient><linearGradient id="g" x1="-938.05" y1="348.59" x2="-929.22" y2="347.36" xlink:href="#d"/><linearGradient id="h" x1="23.5" y1="338.09" x2="1.33" y2="335.23" gradientTransform="matrix(1, 0, 0, 1, 0, 0)" xlink:href="#d"/><radialGradient id="i" cx="-18.93" cy="-252.76" fx="-18.93" fy="-252.76" r="40.86" gradientTransform="translate(176.27 766.09) scale(1.92 .3)" gradientUnits="userSpaceOnUse"><stop offset="0" stop-color="#e4e3e2"/><stop offset=".39" stop-color="#e9e8e7"/><stop offset=".85" stop-color="#f7f6f5"/><stop offset="1" stop-color="#fefdfc"/></radialGradient><linearGradient id="j" x1="29.9" y1="39.11" x2="14.68" y2="335.51" gradientTransform="matrix(1, 0, 0, 1, 0, 0)" gradientUnits="userSpaceOnUse"><stop offset="0" stop-color="#fff"/><stop offset=".36" stop-color="#f8f8fa"/><stop offset="1" stop-color="#f1f0f5"/></linearGradient><linearGradient id="k" x1="-2349.59" y1="-1661.86" x2="-2354.61" y2="-1677.82" gradientTransform="translate(-2028.12 -1712.63) rotate(-99.83) scale(1 -1)" gradientUnits="userSpaceOnUse"><stop offset="0" stop-color="#f1f0f5"/><stop offset="1" stop-color="#e1e1e5"/></linearGradient><linearGradient id="l" x1="29.66" y1="129.85" x2="49.21" y2="447.54" gradientTransform="matrix(1, 0, 0, 1, 0, 0)" gradientUnits="userSpaceOnUse"><stop offset="0" stop-color="#e1e1e5"/><stop offset="1" stop-color="#f1f0f5"/></linearGradient><linearGradient id="m" x1="61.72" y1="121.67" x2="121.08" y2="121.67" xlink:href="#l"/><linearGradient id="n" x1="93.1" y1="153.04" x2="88.81" y2="69.87" gradientTransform="matrix(1, 0, 0, 1, 0, 0)" gradientUnits="userSpaceOnUse"><stop offset="0" stop-color="#f1f0f5"/><stop offset=".64" stop-color="#f8f8fa"/><stop offset="1" stop-color="#fff"/></linearGradient><linearGradient id="o" x1="32.22" y1="99.8" x2="130.22" y2="133.51" gradientTransform="matrix(1, 0, 0, 1, 0, 0)" xlink:href="#d"/><linearGradient id="p" x1="3532.73" y1="129.69" x2="3507.48" y2="133.42" gradientTransform="translate(3604.88) rotate(-180) scale(1 -1)" xlink:href="#d"/><linearGradient id="q" x1="91.65" y1="130.32" x2="130.76" y2="124.22" gradientTransform="matrix(1, 0, 0, 1, 0, 0)" xlink:href="#f"/><linearGradient id="r" x1="89.1" y1="132.88" x2="58.02" y2="124.72" gradientTransform="matrix(1, 0, 0, 1, 0, 0)" xlink:href="#f"/><linearGradient id="s" x1="71.81" y1="103.66" x2="136.49" y2="117.27" gradientTransform="matrix(1, 0, 0, 1, 0, 0)" xlink:href="#d"/><linearGradient id="t" x1="148.57" y1="87.12" x2="152.95" y2="94.56" gradientTransform="translate(-30.35 -16.67) rotate(-5.41)" gradientUnits="userSpaceOnUse"><stop offset="0" stop-color="#42231c"/><stop offset=".11" stop-color="#321a15"/><stop offset=".25" stop-color="#26140f"/><stop offset=".45" stop-color="#1f100c"/><stop offset="1" stop-color="#1e100c"/></linearGradient><linearGradient id="u" x1="78.32" y1="42.18" x2="75.6" y2="81.42" gradientTransform="translate(-30.35 -16.67) rotate(-5.41)" gradientUnits="userSpaceOnUse"><stop offset="0" stop-color="#42231c"/><stop offset=".41" stop-color="#361c16"/><stop offset="1" stop-color="#1e100c"/></linearGradient><linearGradient id="v" x1="51.16" y1="62.31" x2="55.53" y2="101.84" gradientTransform="matrix(1, 0, 0, 1, 0, 0)" gradientUnits="userSpaceOnUse"><stop offset="0" stop-color="#c57d4e"/><stop offset="1" stop-color="#a9563f"/></linearGradient><linearGradient id="w" x1="50.3" y1="64.59" x2="61.58" y2="123.09" gradientTransform="matrix(1, 0, 0, 1, 0, 0)" xlink:href="#d"/><linearGradient id="x" x1="127.76" y1="62.66" x2="128.03" y2="84.28" gradientTransform="matrix(1, 0, 0, 1, 0, 0)" gradientUnits="userSpaceOnUse"><stop offset="0" stop-color="#c57d4e"/><stop offset="1" stop-color="#a9563f"/></linearGradient><linearGradient id="y" x1="-2040.74" y1="124.91" x2="-2041.53" y2="93.47" gradientTransform="translate(-1913.37) rotate(-180) scale(1 -1)" xlink:href="#v"/><linearGradient id="a`" x1="154.49" y1="171.73" x2="147.75" y2="114.66" gradientTransform="translate(-46.24 -95.38) rotate(-.4)" gradientUnits="userSpaceOnUse"><stop offset="0" stop-color="#c57d4e"/><stop offset=".3" stop-color="#c1774b"/><stop offset=".68" stop-color="#b66846"/><stop offset="1" stop-color="#a9563f"/></linearGradient><radialGradient id="aa" cx="-1006.4" cy="515.81" fx="-1006.4" fy="515.81" r=".56" gradientTransform="translate(-19209.84 16400.52) rotate(168.27) scale(21.98 23.37) skewX(-.61)" gradientUnits="userSpaceOnUse"><stop offset="0" stop-color="#d1744d"/><stop offset="1" stop-color="#c57d4e"/></radialGradient><linearGradient id="ab" x1="118.19" y1="172.7" x2="108.65" y2="113.64" xlink:href="#a`"/><radialGradient id="ac" cx="-962.5" cy="523.45" fx="-962.5" fy="523.45" r=".57" gradientTransform="translate(17494.88 16275.76) rotate(14.64) scale(21.62 -21.52) skewX(-.73)" xlink:href="#aa"/><linearGradient id="ad" x1="177.52" y1="164.72" x2="151.8" y2="170.77" gradientTransform="translate(-46.24 -95.38) rotate(-.4)" gradientUnits="userSpaceOnUse"><stop offset="0" stop-color="#c57d4e"/><stop offset="1" stop-color="#cd8653"/></linearGradient><linearGradient id="ae" x1="-948.22" y1="497.07" x2="-947.67" y2="497.07" gradientTransform="translate(12154.37 6490.75) rotate(.29) scale(12.79 -12.79)" xlink:href="#ad"/><linearGradient id="af" x1="-921.36" y1="594.35" x2="-920.65" y2="594.35" gradientTransform="translate(-4833.94 10310.59) rotate(82.92) scale(10.34 -10.34)" xlink:href="#ad"/><linearGradient id="ag" x1="129.3" y1="171.08" x2="135.6" y2="204.66" gradientTransform="translate(-46.24 -95.38) rotate(-.4)" xlink:href="#x"/><linearGradient id="ah" x1="83" y1="4.64" x2="94.06" y2="92.53" xlink:href="#x"/><linearGradient id="ai" x1="116.06" y1="32.07" x2="112.71" y2="80.44" gradientTransform="translate(-30.35 -16.67) rotate(-5.41)" gradientUnits="userSpaceOnUse"><stop offset="0" stop-color="#42231c"/><stop offset=".29" stop-color="#321a14"/><stop offset=".68" stop-color="#23120e"/><stop offset="1" stop-color="#1e100c"/></linearGradient><linearGradient id="aj" x1="113.69" y1="31.13" x2="113.88" y2="88.16" gradientTransform="translate(-30.35 -16.67) rotate(-5.41)" gradientUnits="userSpaceOnUse"><stop offset="0" stop-color="#42231c"/><stop offset=".51" stop-color="#2d1712"/><stop offset="1" stop-color="#1e100c"/></linearGradient><linearGradient id="ak" x1="114.94" y1="51.07" x2="105.98" y2="28.4" gradientTransform="translate(-30.35 -16.67) rotate(-5.41)" gradientUnits="userSpaceOnUse"><stop offset="0" stop-color="#3f2119"/><stop offset=".41" stop-color="#43231b"/><stop offset=".87" stop-color="#502b24"/><stop offset="1" stop-color="#562f28"/></linearGradient><linearGradient id="al" x1="89.79" y1="85.23" x2="91.11" y2="74.69" gradientTransform="matrix(1, 0, 0, 1, 0, 0)" xlink:href="#a`"/><linearGradient id="am" x1="90.22" y1="69.65" x2="90.64" y2="79.98" gradientTransform="matrix(1, 0, 0, 1, 0, 0)" xlink:href="#ad"/><linearGradient id="an" x1="95.78" y1="89.05" x2="95.57" y2="82.54" xlink:href="#x"/><linearGradient id="ao" x1="85.76" y1="89.37" x2="85.55" y2="82.86" xlink:href="#x"/><linearGradient id="ap" x1="90.1" y1="77.07" x2="90.66" y2="87.96" xlink:href="#x"/><linearGradient id="aq" x1="794.49" y1="-893.64" x2="811.4" y2="-893.64" gradientTransform="translate(-836.25 817.23) rotate(10.49)" xlink:href="#ad"/><linearGradient id="ar" x1="68.94" y1="103.75" x2="50.44" y2="31.3" xlink:href="#x"/><linearGradient id="as" x1="108.83" y1="55.87" x2="122.01" y2="55.87" gradientTransform="matrix(1, 0, 0, 1, 0, 0)" xlink:href="#ad"/><linearGradient id="at" x1="-52.67" y1="282.86" x2="-31.36" y2="282.86" gradientTransform="translate(159.37 -231.51) rotate(1.47)" gradientUnits="userSpaceOnUse"><stop offset="0" stop-color="#42231c"/><stop offset=".36" stop-color="#3e211a"/><stop offset=".66" stop-color="#341b16"/><stop offset=".93" stop-color="#23120e"/><stop offset="1" stop-color="#1e100c"/></linearGradient><linearGradient id="au" x1="98.65" y1="66.73" x2="117.77" y2="57.86" xlink:href="#x"/><linearGradient id="av" x1="-1141.11" y1="474.62" x2="-1140.51" y2="474.62" gradientTransform="translate(-12373.53 9266.63) rotate(166.17) scale(12.55)" gradientUnits="userSpaceOnUse"><stop offset="0" stop-color="#fff"/><stop offset=".47" stop-color="#fcfcfc"/><stop offset=".77" stop-color="#f5f3f3"/><stop offset="1" stop-color="#ece7e7"/></linearGradient><linearGradient id="aw" x1="-773.39" y1="621.65" x2="-772.87" y2="621.65" gradientTransform="translate(6137.28 -6321.01) rotate(-7.86) scale(8.85)" xlink:href="#av"/><linearGradient id="ax" x1="114.84" y1="71.48" x2="106.03" y2="61.98" gradientTransform="matrix(1, 0, 0, 1, 0, 0)" gradientUnits="userSpaceOnUse"><stop offset="0" stop-color="#b89c8c"/><stop offset="1" stop-color="#715241"/></linearGradient><linearGradient id="ay" x1="222.77" y1="-52.6" x2="222.38" y2="-58.42" gradientTransform="translate(-116.61 163.13) rotate(2.88)" xlink:href="#ax"/><radialGradient id="b`" cx="-2258.97" cy="-145.8" fx="-2258.97" fy="-145.8" r="3.88" gradientTransform="translate(-2242.95 35.75) rotate(-175.49) scale(1.04 -1.08) skewX(-.49)" gradientUnits="userSpaceOnUse"><stop offset="0" stop-color="#2a3a3b"/><stop offset="1" stop-color="#1c2727"/></radialGradient><linearGradient id="ba" x1="-947.09" y1="530.7" x2="-946.57" y2="530.7" gradientTransform="translate(43323.51 18965.87) rotate(-5.64) scale(43.46 -43.46)" gradientUnits="userSpaceOnUse"><stop offset="0" stop-color="#5a2a1f"/><stop offset=".29" stop-color="#492219"/><stop offset=".66" stop-color="#3d1c14"/><stop offset="1" stop-color="#391b13"/></linearGradient><linearGradient id="bb" x1="101.39" y1="69" x2="106.48" y2="59.07" xlink:href="#x"/><linearGradient id="bc" x1="-1416.81" y1="317.79" x2="-1395.51" y2="317.79" gradientTransform="translate(-1344.19 -231.51) rotate(178.53) scale(1 -1)" xlink:href="#at"/><linearGradient id="bd" x1="63.23" y1="97.19" x2="67.75" y2="100.32" gradientTransform="translate(6.82 -10.61) rotate(-.93)" gradientUnits="userSpaceOnUse"><stop offset="0" stop-color="#cd8845"/><stop offset="1" stop-color="#b25e38"/></linearGradient><linearGradient id="be" x1="100.67" y1="100.07" x2="94.67" y2="99.29" xlink:href="#bd"/><linearGradient id="bf" x1="81.58" y1="115.85" x2="81.91" y2="104.35" xlink:href="#bd"/><linearGradient id="bg" x1="-1010.64" y1="568" x2="-1010.03" y2="568" gradientTransform="translate(-34292.51 -16852.3) rotate(176.85) scale(33.05 -33.11) skewX(-.01)" gradientUnits="userSpaceOnUse"><stop offset="0" stop-color="#e8d8d7"/><stop offset=".14" stop-color="#efe4e4"/><stop offset=".39" stop-color="#faf8f7"/><stop offset=".57" stop-color="#fff"/><stop offset="1" stop-color="#e8d2d1"/></linearGradient><linearGradient id="bh" x1="-981.4" y1="531.92" x2="-980.87" y2="531.92" gradientTransform="translate(58282.1 28795.94) rotate(-.88) scale(59.3 -55.63) skewX(.79)" gradientUnits="userSpaceOnUse"><stop offset="0" stop-color="#e8d8d7"/><stop offset=".04" stop-color="#ebdddc"/><stop offset=".21" stop-color="#f6f0ef"/><stop offset=".38" stop-color="#fcfbfb"/><stop offset=".57" stop-color="#fff"/><stop offset=".69" stop-color="#fbf7f7"/><stop offset=".87" stop-color="#f1e3e3"/><stop offset="1" stop-color="#e8d2d1"/></linearGradient><linearGradient id="bi" x1="-978.14" y1="524.16" x2="-977.56" y2="524.16" gradientTransform="translate(40830.37 16182.49) rotate(-6.64) scale(39.48 -39.48)" gradientUnits="userSpaceOnUse"><stop offset="0" stop-color="#cd3c50"/><stop offset="0" stop-color="#cd3c50"/><stop offset=".18" stop-color="#d14250"/><stop offset=".53" stop-color="#d34551"/><stop offset=".85" stop-color="#d14251"/><stop offset=".99" stop-color="#cc3b51"/><stop offset="1" stop-color="#cc3b52"/></linearGradient><linearGradient id="bj" x1="75.02" y1="128.82" x2="99.31" y2="128.89" gradientTransform="translate(2.74 -39.51) rotate(-.22)" gradientUnits="userSpaceOnUse"><stop offset="0" stop-color="#e8d8d7"/><stop offset=".05" stop-color="#eadcdb"/><stop offset=".31" stop-color="#f6efee"/><stop offset=".48" stop-color="#fbf6f6"/><stop offset="1" stop-color="#e8d2d1"/></linearGradient><linearGradient id="bk" x1="73.25" y1="99.7" x2="90.62" y2="99.7" gradientTransform="translate(6.82 -10.61) rotate(-.93)" xlink:href="#bi"/><linearGradient id="bl" x1="-1266.34" y1="66.96" x2="-1246.3" y2="57.66" gradientTransform="translate(-1184.81) rotate(-180) scale(1 -1)" xlink:href="#x"/><linearGradient id="bm" x1="-1035.48" y1="500.62" x2="-1034.86" y2="500.62" gradientTransform="translate(11188.72 9266.63) rotate(13.83) scale(12.55 -12.55)" xlink:href="#av"/><linearGradient id="bn" x1="-926.16" y1="600.55" x2="-925.61" y2="600.55" gradientTransform="translate(-7322.09 -6321.01) rotate(-172.14) scale(8.85 -8.85)" xlink:href="#av"/><linearGradient id="bo" x1="78.41" y1="76.79" x2="70.97" y2="61.26" xlink:href="#ax"/><linearGradient id="bp" x1="73.22" y1="76.55" x2="72.83" y2="70.74" xlink:href="#ax"/><radialGradient id="bq" cx="-1063.44" cy="-55.09" fx="-1063.44" fy="-55.09" r="3.88" gradientTransform="translate(1240.07 35.75) rotate(-4.27) scale(1.1 1.08)" xlink:href="#b`"/><linearGradient id="br" x1="-978.35" y1="533.79" x2="-977.8" y2="533.79" gradientTransform="translate(-44508.32 18965.87) rotate(-174.36) scale(43.46)" xlink:href="#ba"/><linearGradient id="bs" x1="-1263.43" y1="69.45" x2="-1258.14" y2="59.13" gradientTransform="translate(-1184.81) rotate(-180) scale(1 -1)" xlink:href="#x"/><linearGradient id="bt" x1="95.06" y1="86.17" x2="79.75" y2="191.95" gradientTransform="matrix(1, 0, 0, 1, 0, 0)" xlink:href="#d"/><linearGradient id="bu" x1="91.26" y1="225" x2="87.15" y2="147.41" xlink:href="#j"/><linearGradient id="bv" x1="98.32" y1="189.11" x2="112.89" y2="138.35" xlink:href="#j"/><linearGradient id="bw" x1="97.44" y1="219.56" x2="94.37" y2="184.28" xlink:href="#l"/><linearGradient id="bx" x1="83.12" y1="181.92" x2="71.31" y2="124.71" xlink:href="#j"/><linearGradient id="by" x1="89.2" y1="149.57" x2="94.85" y2="279.08" xlink:href="#l"/><linearGradient id="c`" x1="59.29" y1="122.22" x2="27.66" y2="142.54" xlink:href="#j"/><linearGradient id="ca" x1="119.83" y1="121.86" x2="150.09" y2="135.15" xlink:href="#j"/><linearGradient id="cb" x1="132.93" y1="254.89" x2="148.75" y2="307.97" gradientTransform="matrix(1, 0, 0, 1, 0, 0)" gradientUnits="userSpaceOnUse"><stop offset="0" stop-color="#3a3941"/><stop offset="1" stop-color="#35343c"/></linearGradient><linearGradient id="cc" x1="60.97" y1="124.64" x2="66.93" y2="145.63" gradientTransform="matrix(1, 0, 0, 1, 0, 0)" xlink:href="#k"/><linearGradient id="cd" x1="66.88" y1="176.91" x2="62.59" y2="93.68" xlink:href="#n"/><linearGradient id="ce" x1="123.82" y1="126.15" x2="116.48" y2="142.2" gradientTransform="matrix(1, 0, 0, 1, 0, 0)" xlink:href="#k"/><linearGradient id="cf" x1="119.92" y1="175.61" x2="115.62" y2="92.38" xlink:href="#n"/><linearGradient id="cg" x1="191.5" y1="612" x2="198.74" y2="670.95" gradientTransform="matrix(1, 0, 0, 1, 0, 0)" xlink:href="#d"/><linearGradient id="ch" x1="214.52" y1="677.39" x2="214.52" y2="632.27" gradientTransform="matrix(1, 0, 0, 1, 0, 0)" xlink:href="#d"/><linearGradient id="ci" x1="205.73" y1="764.2" x2="201.62" y2="628" gradientTransform="matrix(1, 0, 0, 1, 0, 0)" gradientUnits="userSpaceOnUse"><stop offset="0" stop-color="#c12433"/><stop offset=".43" stop-color="#b3212a"/><stop offset=".99" stop-color="#a61e22"/></linearGradient><linearGradient id="cj" x1="79.41" y1="623.89" x2="86.51" y2="681.66" gradientTransform="matrix(1, 0, 0, 1, 0, 0)" xlink:href="#d"/><linearGradient id="ck" x1="63.86" y1="678.7" x2="68.77" y2="646.91" gradientTransform="matrix(1, 0, 0, 1, 0, 0)" xlink:href="#d"/><linearGradient id="cl" x1="81.27" y1="767.95" x2="77.16" y2="631.75" xlink:href="#ci"/><linearGradient id="cm" x1="103.81" y1="288.13" x2="128.61" y2="658.28" gradientTransform="matrix(1, 0, 0, 1, 0, 0)" gradientUnits="userSpaceOnUse"><stop offset="0" stop-color="#2b2a2e"/><stop offset=".71" stop-color="#302f32"/><stop offset="1" stop-color="#343336"/></linearGradient><linearGradient id="cn" x1="120.36" y1="873.69" x2="88.12" y2="624.25" xlink:href="#cm"/><linearGradient id="co" x1="211.02" y1="872.24" x2="178.77" y2="622.68" xlink:href="#cm"/><linearGradient id="cp" x1="40.36" y1="271.67" x2="161.03" y2="276.52" gradientTransform="matrix(1, 0, 0, 1, 0, 0)" gradientUnits="userSpaceOnUse"><stop offset="0" stop-color="#2b2a2e"/><stop offset=".99" stop-color="#252426"/></linearGradient><linearGradient id="cq" x1="155.17" y1="381.37" x2="122.74" y2="77.71" gradientTransform="matrix(1, 0, 0, 1, 0, 0)" gradientUnits="userSpaceOnUse"><stop offset="0" stop-color="#39393d"/><stop offset="1" stop-color="#3b3b3f"/></linearGradient><linearGradient id="cr" x1="81.35" y1="275.36" x2="95.61" y2="362.37" xlink:href="#cp"/><linearGradient id="cs" x1="160.57" y1="823.75" x2="135.17" y2="627.26" xlink:href="#cp"/><linearGradient id="ct" x1="27.89" y1="367.93" x2="92.49" y2="211.23" xlink:href="#cq"/><linearGradient id="cu" x1="38.35" y1="272.04" x2="53.81" y2="273.55" xlink:href="#cp"/><linearGradient id="cv" x1="38.05" y1="284.61" x2="180.53" y2="298.34" xlink:href="#cp"/><linearGradient id="cw" x1="51.66" y1="245.25" x2="159.66" y2="245.25" gradientTransform="matrix(1, 0, 0, 1, 0, 0)" gradientUnits="userSpaceOnUse"><stop offset="0" stop-color="#a61e22"/><stop offset=".57" stop-color="#b3212a"/><stop offset="1" stop-color="#c12433"/></linearGradient><linearGradient id="cx" x1="-49.47" y1="-1259.54" x2="-289.76" y2="-1303.66" gradientTransform="translate(-231.69 1433.19) rotate(22.51) scale(1.01 .98) skewX(-.16)" gradientUnits="userSpaceOnUse"><stop offset="0" stop-color="#e9e2d6"/><stop offset=".63" stop-color="#f6f3ee"/><stop offset="1" stop-color="#fff"/></linearGradient><linearGradient id="cy" x1="108.92" y1="235.23" x2="114.37" y2="280.62" xlink:href="#ci"/><linearGradient id="d`" x1="92.69" y1="252.09" x2="51" y2="244.44" gradientTransform="matrix(1, 0, 0, 1, 0, 0)" xlink:href="#f"/><linearGradient id="da" x1="127.34" y1="256.85" x2="65.66" y2="245.52" gradientTransform="matrix(1, 0, 0, 1, 0, 0)" xlink:href="#f"/><linearGradient id="db" x1="59.66" y1="276.97" x2="83.71" y2="267.07" gradientTransform="matrix(1, 0, 0, 1, 0, 0)" xlink:href="#f"/><linearGradient id="dc" x1="133.77" y1="263.03" x2="95.99" y2="275.08" gradientTransform="matrix(1, 0, 0, 1, 0, 0)" xlink:href="#d"/><linearGradient id="dd" x1="86.21" y1="251.28" x2="67.55" y2="257.23" gradientTransform="matrix(1, 0, 0, 1, 0, 0)" xlink:href="#d"/><linearGradient id="de" x1="66.71" y1="267.18" x2="71.06" y2="265.82" gradientTransform="matrix(1, 0, 0, 1, 0, 0)" xlink:href="#d"/><linearGradient id="df" x1="69.7" y1="273.61" x2="73.12" y2="272.54" gradientTransform="matrix(1, 0, 0, 1, 0, 0)" xlink:href="#d"/><linearGradient id="dg" x1="73.39" y1="278.78" x2="77.62" y2="277.46" gradientTransform="matrix(1, 0, 0, 1, 0, 0)" xlink:href="#d"/><linearGradient id="dh" x1="121.5" y1="276.63" x2="111.92" y2="248.93" gradientTransform="matrix(1, 0, 0, 1, 0, 0)" xlink:href="#d"/><linearGradient id="di" x1="146.67" y1="81.64" x2="178.4" y2="220.72" xlink:href="#j"/><linearGradient id="dj" x1="140.68" y1="265.93" x2="195.3" y2="249.7" xlink:href="#l"/><linearGradient id="dk" x1="144.74" y1="139.03" x2="156.69" y2="240.29" xlink:href="#l"/><linearGradient id="dl" x1="147.46" y1="235.27" x2="163.7" y2="244.01" xlink:href="#j"/><linearGradient id="dm" x1="138.44" y1="267.59" x2="131.99" y2="247.11" xlink:href="#l"/><linearGradient id="dn" x1="618.88" y1="-1759.92" x2="634.71" y2="-1812.85" gradientTransform="translate(-1235.14 1535.47) rotate(27.23)" xlink:href="#j"/></defs><g id="a"/><g id="b"><g id="c"><g><g><g><path class="ds" d="M16.8,387.54c-8.02-2.1-10.48-5.95-10.5-7.89-.02-1.94,4.47-13.13,4.47-13.13,0,0-.16,7.51,.82,8.96,.98,1.44,4.66,5.77,5.64,6.48,.98,.72,9.23,2.08,9.25,4.02,.02,1.94-1.66,3.65-9.68,1.55Z"/><path class="if" d="M24,334.64c.51,2.42,3.04,12.33,2.39,19.85-.65,7.52-1.61,31.52-3.06,31.54-1.45,.02-5.07,1.75-5.22-12.55-.15-14.3-.88-14.29-2.09-14.52-1.21-.23-4.31,4.41-5,8.78-.68,4.37-1.81,11.89-1.32,13.1,.5,1.21,10.97,6.67,12.44,7.87,1.47,1.2,6.01,4.53,3.7,6.5-1.81,1.55-20.45-8.11-24.83-11.33-1.87-1.37-.65-15.55-.22-20.89,.43-5.34,9.43-25.54,11.3-32.35,1.87-6.81,4.23-12.4,4.23-12.4l11.21,5.07s-4.04,8.91-3.53,11.33Z"/><path class="dr" d="M18.09,372.12s.88-13.41-1.95-13.62c-2.83-.21-4.9,8.02-4.9,8.02,0,0,5.89-6.84,6.85,5.61Z"/><path class="ig" d="M23.02,380.12c.37-1.52,1.64-1.32,1.64-1.32,0,0,.25,4.24-.95,7.48-1.42,.15-1.49-2.84-.69-6.16Z"/><path class="ig" d="M18.56,393.04s.42-1.21,1.94-.82c3.3,.86,5.91,2.33,5.11,3.51-3.41-.47-7.04-2.69-7.04-2.69Z"/></g><path class="du" d="M14.77,329.83c-1.41,1.07-14.51,30.87-9.47,30.33,3.4-.36,18.41-37.12,9.47-30.33Z"/><path class="dt" d="M26.11,326.83s-2.09,5.4-1.62,8.48c.47,3.07,2.97,10.33,1.77,20.78,0,0-.78-15.88-3.08-19.88-1.95-3.39,2.93-9.37,2.93-9.37Z"/></g><polygon class="eb" points="10.76 334.52 9.99 336.74 25.56 340.4 24.65 336.19 10.76 334.52"/><ellipse class="ea" cx="140.28" cy="689.42" rx="92.27" ry="13.18"/><path class="ia" d="M28.16,137.53s-5.3,1.73-7.49,9.16c-1.92,6.52-3.13,25.75-1.5,45.66,1.6,19.52-.96,46.52-1.07,48.32-1.92,31.59-4.23,51.19-7.56,78.65-.58,4.8,22.45,19.86,22.45,19.86l13.5-89.22,9.28-37.28-27.6-75.16Z"/><path class="ed" d="M21.07,145.54c1.81-4.37,5.11,67.51,4.65,74.01s-13.71,115.54-13.71,115.54c0,0-2.48-7.07-1.47-16.39,2.83-26.11,7.5-76.24,7.68-80.57,.24-5.89,1.48-25.32,.85-31.67-.63-6.36-2.32-50.44,2.01-60.91Z"/><polygon class="ec" points="29.56 321.96 30.06 319.49 10.86 315.44 10.29 322.08 29.56 321.96"/><polygon class="ia" points="26.57 337.13 29.8 320.94 9.28 317.25 8.96 335.09 26.57 337.13"/><path class="ef" d="M36.69,144.82s-4.62,19.52-2.1,43.44c.62,5.88,6.42,38.09,6.75,41.28,.33,3.19-8.23,69.88-9.37,78.55-1.14,8.67-4.3,30.06-4.3,30.06l5.31,1.03s18.44-97.99,18.2-99.99-14.5-94.37-14.5-94.37Z"/><path class="ia" d="M190.02,233.31c-2.2-9.68-5.41-20.37-6.08-22.42-1.18-3.59-17.66-78.69-33.22-79.14-3.59-.11-9.94,19.94-9.17,28.32,.77,8.38-.57,23.44,1.8,29.04,2.37,5.59,9.2,25.44,16.87,39.77,0,0-.12,.07-.34,.21,9.81-2.1,20.66-.13,30.15,4.21Z"/><path class="ee" d="M61.73,120.55c-.15-.77,1.45-5.43,2.76-5.83,25.05-7.52,49.69-2.76,52.91,.15,3.22,2.91,3.68,16.4,3.68,16.4l-56.75,1.38-2.61-12.1Z"/><path class="eg" d="M64.03,114.57s6.63-3.68,27.15-3.89c10.96-.11,24.31,.95,27.1,5.01l-2.15,4.6s2.45-10.02-24.54-9.2c-21.46,.65-26.48,3.89-26.79,8.38l-.77-4.91Z"/><path class="if" d="M143.63,137.58c-2.82-.12-36.4-14.35-37.39-20.25-1.7-10.2-1.11-19.16-1.11-19.16l-26.14-8.33c1.27,10.14-3.21,24.72-6.26,30.82-1.94,3.89-11.59,9.87-22.97,13.23,2.07,2.07,26.35,38.79,42.18,51.23,1.33,1.33,48.94-36.33,51.69-47.54Z"/><g><path class="dw" d="M108.07,117.81c-.83-.85-1.93-3.85-2.28-7.56-.15-1.62-.39-5.67-.45-7.79-.45,.55-28.4-.47-29.48-2.06l-3.25,.03s.96,10.28-.56,17.65c-.46,2.24-20.34,10.91-20.34,10.91,8.75-1.96,15.84-4.07,18.89-4.6,2.54-.44,6.8-1.55,9.89-2.96,16.76-7.68,21.99-10.22,21.99-10.22,.79,7.15,6.04,11.95,5.78,11.8,12.78,7.33,27.77,6.85,27.77,6.85-19.41-1.64-27.04-11.08-27.96-12.04Z"/><path class="dv" d="M95.47,134.48s-1.75-4.8-7.62-2.94c0,0,6.03,1.07,7.62,2.94Z"/><path class="dy" d="M95.68,130.37s1.68-4.36,4.03-4.94c2.35-.58,32.29,2.37,35.33,1.78,0,0-7.77,1.17-19.68,.66-6.72-.29-14.44-1.57-19.68,2.51Z"/><path class="e`" d="M87.38,130.33s-1.62-3.34-4.51-4.32c-2.89-.97-25.78,2.27-29.75,2.65,0,0,28.67-1.81,34.26,1.66Z"/></g><path class="dx" d="M72.73,112.92s.21-13.51-1.07-17.04l33.81,5.63v4.02s-13.43,13.53-32.74,7.39Z"/><g><polygon class="dp" points="129.37 50.15 128.72 65.45 125.44 66.46 126.41 55.02 129.37 50.15"/><polygon class="do" points="50 58.5 51.46 69.64 55.6 72.15 53.52 56.16 50 58.5"/><path class="if" d="M94.33,10.96c-29.99-.27-37.9,16.9-39.67,43.98-.88,13.43-2.41,23.39,4.5,33.15,2.8,3.96,7.25,7.57,11.28,10.69,2.56,1.98,6.56,6.23,9.3,8.29,2.49,1.88,5.2,3.4,8.55,3.53,10.16,.39,16.85-7.38,19.78-10.17,10.28-9.83,20.17-18.95,18.05-40.9-2.14-22.08-11.38-48.49-31.78-48.56Z"/><g><path class="dq" d="M55.31,64.77c1.37,11.12,1.76,19.59,1.76,19.59-4.45,0-5.32-4.77-7.06-8.97-2.66-6.42-4.1-13.34,2.9-13.95,1.18-.1,2.4,3.33,2.4,3.33Z"/><path class="ei" d="M54.5,80.61s-2.18-2.46-1.5-7.31c1.59-11.44-5.66-12.22-4.01-4.41,0,0,1-3.68,1.92-2.58,1.13,1.35-1.21,2.1-.02,8,.62,3.07,3.61,6.3,3.61,6.3Z"/><path class="eh" d="M124.97,64.75c-1.37,11.12-1.76,19.59-1.76,19.59,4.45,0,5.32-4.77,7.06-8.97,2.66-6.42,4.23-13.31-1.82-13.68-1.18-.07-3.48,3.07-3.48,3.07Z"/><path class="ej" d="M125.78,80.59s2.18-2.46,1.5-7.31c-1.59-11.44,5.66-12.22,4.01-4.41,0,0-1-3.68-1.92-2.58-1.13,1.35,1.21,2.1,.02,8-.62,3.07-3.61,6.3-3.61,6.3Z"/></g><path class="ev" d="M92.22,73.37c1.42-13.39,5.35-23.63,17.47-24.7,4.98-.44,8.96,1.16,11.48,3.38,5.87,5.19,2.08,15.11,2.08,15.11,0,0-11.53,15.14-31.03,6.21Z"/><path class="ek" d="M101.89,77.05c1.19,6.02,5.02,11.18,10.22,13.3,6.8,2.76,11.76-6.18,12.96-17.25,.65-6.09-7.97-10.61-13.45-9.47-5.48,1.14-10.91,7.4-9.72,13.42Z"/><path class="em" d="M87.63,74.14c-1.28-11.33-1.6-20.85-17.15-26.17-4.74-1.62-8.98,1.04-11.53,3.25-5.93,5.13-2.28,16.38-2.28,16.38,0,0,11.37,15.26,30.96,6.54Z"/><path class="fd" d="M77.42,77.56c-1.32,5.33-5.11,14.84-10.39,14.02-6.83-1.05-11.95-4.88-12.19-17.89-.1-5.51,8.08-9.47,13.26-8.11,5.18,1.35,10.65,6.65,9.32,11.99Z"/><path class="ep" d="M118.62,69.39c-1.93,.49-3.27,1.77-3.01,2.85,.27,1.08,2.03,1.55,3.96,1.06,1.92-.5,3.28-1.76,3.01-2.85-.26-1.08-2.04-1.55-3.96-1.06Z"/><path class="es" d="M60.9,69.58c-1.93-.38-3.66,.18-3.86,1.26-.21,1.08,1.19,2.27,3.12,2.65,1.93,.38,3.66-.18,3.86-1.26,.21-1.08-1.19-2.27-3.12-2.65Z"/><path class="eu" d="M90.11,101.71c-2.69,.05-4.85,1.38-4.82,2.88,.02,1.5,2.22,2.69,4.9,2.64,2.68-.05,4.84-1.3,4.82-2.8-.02-1.5-2.22-2.77-4.9-2.72Z"/><path class="el" d="M79.28,106.71s10.64,12.13,22.3-.49c0,0-10.53,8.18-22.3,.49Z"/><path class="en" d="M53.89,71.52s2.2-5.4,5.1-7.99c-2.82-7.14,.25-14.11,3.33-22.98,2.27-6.52,13.3-19.19,27.98-17.72,14.68,1.48,23.89,7,27.24,17.05,2.19,6.58,4.08,15.98,3.65,23.64,2.01,2.39,4.38,5.23,4.97,6.53,0,0,3.89-42.66-14.01-54.2-17.9-11.54-46.79-3.61-51.63,5.3-4.83,8.91-6.33,35.82-6.63,50.35Z"/><path class="eo" d="M70.73,7.69c-.53,.57-2.5,.96-4.79,1.82-14.63,5.97-18.19,31.08-17.68,29.7,1.76,12.06,5.56,24.3,5.41,29.08l.2,3.34c1.86-5.21,1.38-19.49,1.49-20.52,.16,1.38,.46,3.62,.84,4.93,.44-.61,3.21-20.65,3.21-20.65,0,0-.53,8.9,1.01,9.65,.49-6.48,3.05-18.96,3.05-18.96,.17,5.58-.81,13.82-.81,13.82,4.27-6.21,10.13-21.29,10.13-21.29,.54,1.38-1.96,12.07-1.96,12.07,3.62-4.82,4.92-9.02,5.33-11.91,.72,2.45,2.84,6.21,8.85,10.34,0,0-4.66-7.55-4.09-10.47,0,0-.25,6.38,18.5,8.45,0,0-12.9-4.28-13.33-8.96,0,0,12.26,8.65,21.26,9.01,0,0-6.97-5.47-6.24-8.83,0,0,8.43,12.31,12.75,13.94,0,0-4.67-7.75-3.92-10.9,0,0,6.46,14.3,11.05,21.74v-6.29c1.92,6.66,2.22,17.72,2.22,17.72l.84-3.34c.42,5.01,1.39,15.88,2.12,19.04l.43-4.27c0,.07,2.73-18.07,3.25-31.96C120.25-7.27,73.68,4.52,70.73,7.69Z"/><path class="er" d="M81.82,13.91s15.57,10.73,18.98,10.53c0,0-1.51-6.64-.35-7.79,2.93,2.22,3.98,6.12,8.9,9.94,0,0-1.47-3.63-.13-6.89,0,0,8.77,13.36,10.63,20.16,.61-4.16,1.91-7.16,1.91-7.16l2.5,16.77,1.32-2.21,.57,18.54,2.82-6.07s1.48-24.28,.91-25.65l1.04,2.16s.17-14.37-6.98-20.45l1.98,.2s-21.01-27.86-54.16-8.26c0,0-18.99,1.49-22.84,18.63l1.62-1.75s-3.36,8.86-3.12,17.07l.87-2.39s-.54,6.64,1.88,20.37l2.86,.7,1.53,5.26,.62-16.83s.59,2.24,1.18,3.5c.47-12.88,3.05-22.02,3.05-22.02,0,0,.91,5.72,1.38,7.24,.32-5.3,2.83-15.19,2.83-15.19,0,0,1.23,8.24,.83,12.05,0,0,6.29-15.08,8.61-17.38,0,0,1.01,2.25,.98,5.52l2.6-8.74s1.06,6.01,3.52,9.29c0,0-1.11-5.23-.18-7.4,0,0,1.14,4.05,5.73,5.82l-3.86-7.56Z"/><path class="fi" d="M70.59,7.55s3.22-3.61,8.72-5.46C85.53,0,99.38-2.83,115.08,6.61c0,0-28.27-11.48-43.15,3.56,0,0-12.47,.2-19.96,8.81,0,0,4.53-8.67,18.61-11.44Z"/><g><path class="f`" d="M83.17,80.81s6.04,4.03,7.39,3.85c1.35-.18,6.95-3.85,6.95-3.85h-14.34Z"/><g><path class="fc" d="M90.36,74.82c-3.8,.1-4.88,1.07-4.6,2.08,.68,2.47,2.3,2.93,4.67,2.93,2.5,0,4.46-.56,4.84-3.22,.11-.79-1.1-1.9-4.91-1.79Z"/><path class="fe" d="M92.92,81.46s3.97-2.97,4.73-2.2c2.26,2.31-4.73,2.2-4.73,2.2Z"/><path class="eq" d="M88.23,81.45s-4.21-2.58-5.03-1.88c-2.34,1.99,5.03,1.88,5.03,1.88Z"/><path class="et" d="M83.17,80.81s-.41-1.02,1.18-.92c1.15,.07,2.07,2.52,6.16,2.4,4.37-.13,4.96-2.32,6.09-2.38,1.02-.05,.91,.9,.91,.9,0,0,2.07-1.07,1.29-2.03-1.42-1.74-1.86,1.83-8.38,1.74-7.08-.1-7.89-3.56-8.85-1.34-.4,.91,.36,1.18,1.6,1.62Z"/></g></g><path class="ex" d="M125.82,70.06s-1.25-4.95-4.62-6.53c6.43,12.82-1.19,23.15-7.48,28.96-6.94,6.41-8.94,10.9-10.05,11.98,1-.9,9.76-9.19,12.4-11.1,2.45-1.77,12.13-11.33,9.76-23.31Z"/><path class="ey" d="M54.37,70.06s1.25-4.95,4.62-6.53c-7.22,14.16,1.55,23.39,7.85,29.19,6.94,6.41,9.21,11.08,10.33,12.16-1-.89-10.39-9.61-13.03-11.52-2.45-1.77-12.13-11.33-9.76-23.31Z"/><path class="ew" d="M108.83,48.33s5.07-1.46,11.43,2.63c3.7,2.38,.39,12.7,.39,12.7,0,0,2.85-14.18-11.82-15.33Z"/><path class="ff" d="M102.6,49.17c-2.58,1.24-4.43,4.73-2.19,3.98,2.24-.76,10.5-3.98,12.31-4.02,2.81-.06,6.94,1.45,8.04,2.14,0,0-5.01-4-8.1-4.32-3.08-.33-8.67,1.55-10.06,2.22Z"/><g><path class="fh" d="M110.55,54.88c-10.39,0-12.29,6.58-12.51,11.42,.79,.18,1.61,.35,3.16,.85,2.09,.68,4.53,1.77,8.06,1.74,2.77-.02,8.99-1.52,9.07-7.83,.07-4.99-5.27-5.95-7.78-6.17Z"/><path class="fj" d="M104.39,58.7c-1.05,1.03-2.28,2.89-2.36,4.6-.09,1.97,.62,3.05,1.84,4.25-1.58-.45-3.09-1.27-5.36-1.61,0,0,2.2-4.93,5.88-7.23Z"/><path class="ie" d="M102.13,62.75c-1.81,1.14-2.96,2.51-3.61,3.18,0,0,2.21-4.78,5.57-6.51-1.02,.83-1.74,2.01-1.96,3.34Z"/><path class="fb" d="M112.43,63.85c.13-2.84-1.47-5.34-3.75-6.16,2.56,.24,5.67,1.62,9.42,4.91,0,0-2.13,4.73-8.2,5.57,1.42-.99,2.44-2.28,2.54-4.33Z"/><path class="fa" d="M102.12,62.61c-.04,.24-.06,.42-.08,.68-.14,1.91,.56,3.1,1.84,4.25,.43,.22,4.23,1.04,6.56,.63,1.49-.97,2.56-2.2,2.67-4.19,.06-1.04-.14-2.02-.54-2.9-2.95-1.08-6.84-1.05-10.45,1.53Z"/><path class="ie" d="M110.42,58.91c2.7,.53,5.22,1.88,6.69,3.86l-.72,1.4s-1.4-1.21-3.52-2.15c-.4-1.32-1.29-2.42-2.45-3.1Z"/><path class="fg" d="M107.25,60.99c-2.11,.21-3.83,.92-5.16,1.76,.2-1.35,.98-2.51,2-3.34,.46-.24,.94-.42,1.45-.52,1.57-.32,3.26-.3,4.89,.02,1.17,.68,2.12,1.77,2.48,3.12-1.57-.69-3.56-1.24-5.66-1.04Z"/><path class="gv" d="M104.01,62.54c-.14,1.96,1.31,3.67,3.23,3.83,1.92,.15,3.59-1.32,3.73-3.28,.14-1.96-1.31-3.68-3.23-3.83-1.92-.15-3.59,1.31-3.73,3.28Z"/><path class="i`" d="M108.52,62.84c-.24,.52-.81,.73-1.28,.48-.47-.25-.65-.88-.42-1.4,.24-.52,.81-.73,1.28-.48,.47,.25,.65,.88,.42,1.4Z"/><path class="i`" d="M111.89,64.68c-.32,.68-1.11,.95-1.76,.61-.65-.34-.92-1.16-.59-1.84,.32-.68,1.11-.95,1.76-.61,.65,.34,.92,1.16,.6,1.84Z"/><path class="gc" d="M118.11,63.5c.05-.21,.08-.35,.09-.41,2.67-.98,2.22-4.84,2.24-4.99-.06,.03-2.92,1.53-6.16-.2-9.24-3.94-14.17,1.42-15.76,8.01,0,0,3.72-6.06,8.62-6.35,3.38-.2,6.82,.8,9.68,3.36-1.83,3.01-3.54,3.88-7.06,5.32,2.58-.09,5.07-1.42,6.63-2.61,2.4-1.84,3.48-1.2,3.49-1.22-.31-.34-.62-1.01-1.77-.92Z"/><path class="gf" d="M100.13,59.25s1.58-2.58,4.97-3.81,6.77-.67,9.35,.29c0,0-5.47-1.09-9.15,.4-3.68,1.49-5.17,3.12-5.17,3.12Z"/><path class="ij" d="M98.52,65.92s3.69-5.85,8.21-6.31c4.52-.45,8.13,1.68,10.09,3.32,0,0-2.37-4.75-10.35-3.9-5.95,.64-7.95,6.89-7.95,6.89Z"/></g><path class="ge" d="M77.22,49.17c2.58,1.24,4.43,4.73,2.19,3.98-2.24-.76-10.5-3.98-12.31-4.02-2.81-.06-6.94,1.45-8.04,2.14,0,0,5.01-4,8.1-4.32,3.08-.33,8.67,1.55,10.06,2.22Z"/><g><path class="g`" d="M73.28,87.39c-.9-.3-1.41-1.02-1.04-1.71,.33-.62,4.14,2.04,5.61,4.13-1.98-1.45-3.66-2.13-4.57-2.42Z"/><path class="fv" d="M106.93,86.9c.88-.37,1.32-1.13,.89-1.79-.38-.59-3.95,2.38-5.23,4.59,1.85-1.61,3.47-2.43,4.34-2.8Z"/><path class="fx" d="M81.4,94.42c1.81,4.86,11.41,10.57,17.98-.2,0,0-9.79,4.45-17.98,.2Z"/><path class="ii" d="M89.26,88.15c-8.82-.05-13.97-1.35-16.05-1.77,.06,.1,.1,.15,.15,.24,1.11,.49,2.39,.8,4.01,1.96,1.12,.8,2.25,6.22,13.21,6.02,5.99-.1,9.6-2.17,13.1-6.3,1.09-1.28,2.15-1.69,3.01-2.2,.02-.1,.07-.14,.09-.25-2.4,.7-7.21,2.35-17.54,2.3Z"/><path class="fw" d="M99.15,89.05c-6.14,1.43-14.52,1.31-17.55,.77-1.77-.77-1.58,1.47-1.58,1.47,3.88,3.93,6.97,3.16,10.07,3.22,3.06,.06,7.62-1.2,10.32-3.64,.26-.73-.4-2.03-1.26-1.83Z"/><path class="gd" d="M101.86,86.75s-2,.99-6.71,1.52c-4.75,.54-6.76,.26-11.03,.09-1.96-.08-3.16-.36-5.62-.93,0,0,.46,.56,.75,1.22,.38,.86,2.25,3.76,11.08,3.6,6.64-.12,10.13-2.51,10.59-3.95,.28-.86,.89-1.25,.94-1.54Z"/><path class="id" d="M91.18,94.19c-13.49,.07-8.83-5.47-17.82-7.58,.06,.01,2.07,1.08,4.45,3.8,2.63,3,4.92,8.77,12.48,8.66,6.82-.11,10.52-6.14,12.68-8.88,2.47-3.14,3.71-4.08,3.77-4.09-7.31,2.05-4.85,7.69-15.56,8.1Z"/><path class="hb" d="M83.19,93c-2.08-1.05-3.95-3.3-4.34-3.58,.49,.66,3.47,8.31,11.06,8.09,8.78-.25,10.32-6.68,11.87-8.44-.74,.79-2.58,2.9-4.87,3.71-1.5,.53-4.05,1.17-6.88,1.31-1.81,.09-4.84-.26-6.85-1.09Z"/><path class="ih" d="M96.66,93.66c.12,.31-.72,1.34-2.5,1.85-2.3,.66-4.13,.06-4.24-.25-.12-.31,2.93-.54,3.82-.85,.89-.31,2.81-1.05,2.93-.74Z"/><path class="ii" d="M73.51,87.14c.54,.24,.94-.17,3.06,.58,0,0-3.62-1.85-3.85-1.74-.16,.08,0,.8,.79,1.16Z"/><path class="ii" d="M106.75,86.63c-.53,.26-1.12-.13-2.96,.71,0,0,3.42-2.09,3.71-1.9,.15,.1,.03,.8-.75,1.18Z"/><path class="he" d="M78.69,87.64l.58,1.05s3.84,2.03,11.68,1.95c5.66-.06,9.94-2.24,9.94-2.24l.44-1.05-22.64,.29Z"/><path class="ic" d="M95.78,86.25c-2.62-.19-3.51,.76-5.39,.79-1.84,.03-3.38-1-5.65-.78-2.95,.28-6.5,1.04-10.8,.17,0,0,1.6,.97,9.52,2.44,2.35,.44,4.44,.88,6.86,.81,2.89,0,5.29-.62,7.53-1.02,3.8-.67,8.28-2.59,8.29-2.67-2.02,.59-7.47,.47-10.36,.26Z"/><path class="hd" d="M81.67,87.62c.07-.28,3.56-.96,4.2-.96,.65,0,3.24,.63,4.01,.67,1.78,.1,4.12-.62,4.77-.77,.64-.15,4.44,.69,4.4,1.03-.04,.33-6.96,1.21-7.78,1.29-.82,.08-9.81-.44-9.6-1.26Z"/></g><g><path class="gy" d="M69.04,54.88c10.98,0,12.99,6.58,13.22,11.42-.83,.18-1.71,.35-3.34,.85-2.2,.68-4.79,1.77-8.51,1.74-2.93-.02-9.5-1.52-9.59-7.83-.07-4.99,5.57-5.95,8.22-6.17Z"/><path class="fy" d="M75.55,58.7c1.11,1.03,2.41,2.89,2.49,4.6,.1,1.97-.65,3.05-1.95,4.25,1.67-.45,3.27-1.27,5.66-1.61,0,0-2.32-4.93-6.21-7.23Z"/><path class="ie" d="M77.94,62.75c1.91,1.14,3.13,2.51,3.82,3.18,0,0-2.33-4.78-5.89-6.51,1.08,.83,1.83,2.01,2.07,3.34Z"/><path class="gb" d="M67.05,63.85c-.14-2.84,1.55-5.34,3.97-6.16-2.71,.24-5.99,1.62-9.95,4.91,0,0,2.26,4.73,8.67,5.57-1.5-.99-2.58-2.28-2.68-4.33Z"/><path class="ga" d="M77.95,62.61c.05,.24,.07,.42,.09,.68,.14,1.91-.59,3.1-1.95,4.25-.45,.22-4.47,1.04-6.93,.63-1.57-.97-2.71-2.2-2.82-4.19-.06-1.04,.15-2.02,.58-2.9,3.12-1.08,7.23-1.05,11.04,1.53Z"/><path class="ie" d="M69.17,58.91c-2.85,.53-5.51,1.88-7.08,3.86l.76,1.4s1.48-1.21,3.72-2.15c.43-1.32,1.36-2.42,2.59-3.1Z"/><path class="hc" d="M72.53,60.99c2.23,.21,4.04,.92,5.45,1.76-.21-1.35-1.03-2.51-2.11-3.34-.49-.24-1-.42-1.53-.52-1.65-.32-3.44-.3-5.17,.02-1.23,.68-2.24,1.77-2.63,3.12,1.66-.69,3.76-1.24,5.98-1.04Z"/><path class="hg" d="M75.96,62.54c.15,1.96-1.38,3.67-3.41,3.83-2.03,.15-3.8-1.32-3.94-3.28-.15-1.96,1.38-3.68,3.41-3.83,2.03-.15,3.8,1.31,3.94,3.28Z"/><path class="hj" d="M61.05,63.5c-.06-.21-.09-.35-.1-.41-2.82-.98-2.34-4.84-2.37-4.99,.06,.03,3.09,1.53,6.51-.2,9.77-3.94,14.98,1.42,16.66,8.01,0,0-3.93-6.06-9.11-6.35-3.58-.2-7.21,.8-10.23,3.36,1.94,3.01,3.75,3.88,7.46,5.32-2.73-.09-5.36-1.42-7.01-2.61-2.53-1.84-3.68-1.2-3.69-1.22,.33-.34,.65-1.01,1.87-.92Z"/><path class="hi" d="M80.06,59.25s-1.67-2.58-5.25-3.81c-3.58-1.23-7.16-.67-9.88,.29,0,0,5.78-1.09,9.67,.4s5.46,3.12,5.46,3.12Z"/><path class="ij" d="M81.76,65.92s-3.9-5.85-8.67-6.31c-4.77-.45-8.59,1.68-10.67,3.32,0,0,2.51-4.75,10.94-3.9,6.29,.64,8.4,6.89,8.4,6.89Z"/><path class="i`" d="M73.44,62.91c-.25,.52-.86,.73-1.35,.48-.5-.25-.69-.88-.44-1.4,.25-.52,.86-.73,1.35-.48,.49,.25,.69,.88,.44,1.4Z"/><path class="i`" d="M77,64.75c-.34,.68-1.17,.95-1.86,.61-.69-.34-.97-1.16-.63-1.84,.34-.68,1.18-.95,1.86-.61,.69,.34,.97,1.16,.63,1.84Z"/></g></g><path class="hf" d="M116.95,124.63c-1.55-.88-3.28-2.04-4.45-2.8-1.28,1.54-2.68,3.2-5.06,6.26-3.91,5.02-5.33,9.95-5.61,12.49-.31,2.76-4.83,22.32-9.13,31.98,0,0-8.13-22.01-9.05-27.99-.81-5.25-2.61-11.99-14.67-24.01-1.67,.93-5.13,2.93-8.65,4.94-3.74,2.14,22.08,37.44,24.08,46.76,2.61,12.12,7.82,19.32,7.82,19.32,0,0,18.25-52.45,19.94-55.52,.89-1.61,9.63-8.66,4.77-11.42Z"/><path class="ia" d="M110.45,130.69s6.42-4.71,8.13-6.85c0,0,12.97,1.93,19.87,4.23,9.2,3.07,11.65,2.38,13.5,5.32,0,0-6.46,32.29-6.75,40.69-.31,8.9-.31,12.27-1.84,17.79-1.59,5.72-8.51,35.16-8.59,38.96-.31,14.16,5.7,36.55,5.27,55.62,0,0-27.87,21.09-46.7,18.95-18.83-2.14-43.22-4.28-52.21-16.69,0,0,7.75-24.6,7.65-41.42-.11-17.18-3.89-30.67-10.63-51.53-.92-28.22-6.75-49.43-9.97-58.23,0,0,10.25-5.16,38.21-11.98,0,0,4.28,10.27,8.99,12.41,0,0,6.29,34.44,18.27,46.85,0,0,16.82-38.72,16.82-54.13Z"/><path class="gx" d="M31.38,154.45s9.2,21.17,16.56,34.35c5.94,10.65,30.31,15.13,43.84,14.72,16.1-.48,33.66-3.34,39.88-18.1,7.36-17.48,8.89-19.94,11.66-37.42l-34.05-.31-16.56,38.04-16.87-37.42-44.45,6.14Z"/><path class="ha" d="M104.68,136.06s-1.44,8.58-2.06,12.26c-.61,3.68-4.5,21.16-10.33,32.51l2.76,12.27s8.89-16.26,12.27-25.77c3.37-9.51,5.32-28.22,5.32-29.45,0,0,8.69-7.98,11.96-9.51l-9.61-6.13-10.31,13.82Z"/><path class="h`" d="M91.99,181.44l1.15-2.32s2.23,6.08,2.74,8.33c.51,2.25,2.04,11.45,2.25,15.92,.18,3.99,1.1,10.86,.41,22.34l-1.74-.1-4.81-44.17Z"/><path class="hh" d="M75.53,131.44s5.22,9.2,5.52,11.66c.31,2.45,7.98,30.98,11.66,38.65,3.68,7.67,4.3,22.32,4.6,27.61,.92,16.1-2.76,36.5-2.76,36.5l-9.51-3.99s3.99-16.87,2.76-26.07c-1.23-9.2,0-25.15-5.83-39.26-5.83-14.11-11.66-38.34-11.66-38.34,0,0-5.22-4.29-6.44-5.83l6.44-5.52,5.21,4.6Z"/><path class="gw" d="M145.49,178.07c-.61,4.91-.67,5.01-1.71,12.24-1.86,12.93-4.39,33.55-2.88,49.41,1.28,13.47,.94,21.88,2.42,28.83,1.27,6-36.81,10.43-49.08,9.2-12.27-1.23-47.64-8.4-47.62-11.77,.17-22.62-1.07-46.34-7.98-68.23-1.4-4.43-5.47-22.52-1.74-12.83,1.79,4.65,4.7,13.5,11.04,19.84,7.98,7.98,38.22,10.43,44.76,10.43s28.58-.91,38.06-9.2c7.36-6.44,16.26-35.58,14.72-27.91Z"/><path class="fr" d="M27.24,137.95s11.79-5.58,37.76-14.99c0,0-9.54,9.78-37.76,14.99Z"/><path class="fm" d="M118.99,125.2s13.24-2.04,34.1,7.46c0,0-28.47-3.99-34.1-7.46Z"/><path class="fl" d="M127.83,265.45l5.11,10.53s12.66-1.86,13.78-2.21c-1.06-4.45-3.4-10.74-3.4-10.74,0,0-10.2,1.72-15.49,2.42Z"/><path class="fk" d="M70.32,128.3c-1.83-.89-7.77-5.14-7.77-5.14l-10.12,9.41,1.63,18,15.44-15.23s6.52-.03,9.61,2.88c0,0-3.27-7.23-8.79-9.91Z"/><path class="fn" d="M79.12,138.22s-6.96-7.9-8.19-7.9c-1.23,0-6.03,4.7-6.03,4.7,0,0-6.03,5.52-13.6,15.54,0,0-1.07-19.22,.41-21.57,7.16-11.45,12.32-14.42,12.32-14.42,0,0,.97,6.95,7.71,11.9,2.11,1.55,4.17,5.16,7.38,11.75Z"/><path class="fu" d="M114.38,124.39s-7.75,7.07-9.7,11.71c0,0,6.33-2.51,7.97-2.31l15.03,15.85,1.64-18.51-14.93-6.75Z"/><path class="ft" d="M104.68,136.1s6.54-6.6,7.76-6.6,4.7,3.68,4.7,3.68c0,0,10.02,11.66,12.88,15.34,0,0,1.77-18.15,.2-20.45-5.52-8.08-13.09-13.5-13.09-13.5,0,0-.61,7.16-5.93,11.66-2,1.69-6.13,8.03-6.54,9.87Z"/><g><path class="if" d="M180.39,609.71s1.57,7.7,1.57,10.25-1.66,8.72-1.09,11.54c.57,2.83,5.05,12.02,5.33,14.85,.28,2.83,3.7,23.58,4.55,24.71,.85,1.13,12.2,6.06,15.3,6.42,13.89,1.6,14.34-5.52,12.92-9.2-1.41-3.68-3.62-10.64-5.09-13.85-1.5-3.29-5.37-20.91-6.78-26-1.41-5.09-4.4-23.53-4.4-27.77l-22.33,9.04Z"/><path class="fs" d="M180.85,613.08s1.09,6.72,1.09,8.24-1.63,7.77-1.07,10.19c.56,2.42,7.71,18.46,9.66,38.62,0,0,1.52-15.59,.56-21.4-.81-4.88-1.34-5.24-2.64-20.42,0,0,10.16,.68,10.62,.22,.65-.65,6.75-5.98,6.75-5.98l-3.09-20.01-21.89,10.54Z"/><path class="gl" d="M208.53,634.14s6.77,24.55,11.98,36.47c0,0-.95,2.24-2.9,2.24l-9.08-38.71Z"/><path class="fq" d="M181.94,621.06s-.82,6.53,.02,9.92c.85,3.39,2.22,7.93,5.11,14.72,2.47,5.81,2.64,20.23,4.34,23.34,.68,1.24,7.15,4.84,14.38,4.84,7.6,0,13.13-.39,13.8-5.49,8.02,11.92,9.6,19.52,2.38,22.62-9.1,3.9-26.69-4.12-29.77-6.14-7.51-4.91-4.02-23.08-4.91-27.02-1.99-8.77-8.39-18.92-8.67-21.53-.26-2.38,1.06-11.57,3.32-15.25Z"/><path class="if" d="M63.84,612.49s4.8,15.13,4.8,17.39-2.54,31.93-3.11,34.19c-.56,2.26-2.15,10.14-1.95,11.25,.87,4.91,9.04,6.99,11.42,6.6,3.19-.51,14.23-3.27,15.6-10.1,.48-2.38,.09-16.23,.09-18.2s3.47-22.07,2.62-24.33c-.85-2.26-5.45-9.3-5.73-10.99-.28-1.7-1.69,.13-1.13-10.33l-22.61,4.52Z"/><path class="fp" d="M66.58,618.85s2.05,10.32,2.05,11.03-.12,2.32-.12,2.32c0,0,3.69,1.48,4.99,1.48s11.28-.83,12.05-1.13c.9,8.62,1.44,39.88-4.62,44.8-1.97,1.59,8.44,.48,9.54,2.02,0,0,.58-26.3,1.88-37.43,1.75-14.99-2.63-18.63-3.92-21.89-1.28-3.26-1.5-2.61-1.72-4.34-.22-1.73-20.12,3.14-20.12,3.14Z"/><path class="fo" d="M67.78,641.51s-1.3,9.68-1.59,11.13c-.29,1.45-3.61,19.36-2.6,21.24,1.01,1.88,2.75,.87,2.75,.87,0,0,.54-15.35,1.44-33.24Z"/><path class="gh" d="M93.21,628.07c-1.03-2.39-4.63-7.65-4.63-7.65,4.24,8.92,4.23,14.91,2.96,21.05-2.91,14.03-1.61,18.46-1.37,26.62,.22,7.47-16.61,8.1-20.51,7.23-3.18-.71-4.71-1.92-5.41-3.11-.36-2.7,3.15-27.72,3.15-27.72l-5.29,29.18c-2.22,7.72-.12,16.74,6.84,18.13,5.78,1.16,12.18,.32,16.91-.43,7.23-1.16,7.08-11.59,7.08-13.01s-3.61-22.98,1.44-38.87c.34-1.08,.73-7.07-1.15-11.42Z"/><path class="go" d="M169.08,440.35c-4.62-24.38-16.23-111.55-19.65-132.95l-6.77-35.38s-33.68,2.27-41.11,2.27-53.68-8.26-53.68-8.26c0,0-11.31,31.61-11.56,31.38,0,0-10.89,30.24-9.91,43.77,1.5,20.67,6.71,65.93,8.37,77.49,1.65,11.56,24.98,207.09,24.98,207.09l16.52,4.83s11.56-1.65,16.52-4.95c0,0-22.54-282.4,.51-265.73l41.98,105.59,42.08,158.4,21.14,1.05,8.26-9.08s-33.16-151.72-37.66-175.51Z"/><path class="gn" d="M47.84,265.46s-6.74,17.41-7.31,19.69-13.65,38.95-13.86,50.94c-.36,20.52,12.9,116.42,33.08,289.68l16.52,4.83s-17.19-256.16-16.62-265.29c.57-9.13,5.75-53.27,11.17-96.06l-22.98-3.8Z"/><path class="gm" d="M198.48,624.94l8.26-9.08s-36.51-170.88-39.4-191.69c-9.03-65.04-15.18-108.9-16.76-115.61-3.42-14.55-10.68-45.03-10.68-45.03l-35.76,5.08s22.25,59.91,27.39,84.73c5.14,24.82,66.95,271.62,66.95,271.62Z"/><path class="gr" d="M46.55,265.53s8.49,1.35,42.18,4.88c7.53,.79,41.91-3.76,54.18-7.38l.61,15.41s-50.45,17.4-100.13,.43l3.17-13.34Z"/><path class="gk" d="M135.38,272.03s8.13,42.08,9.42,46.36c1.28,4.28,21.3,96.89,21.3,96.89,0,0-7.46-86.02-10.03-95.01-2.57-8.99-13.84-50.38-13.84-50.38l-6.85,2.14Z"/><path class="gj" d="M82.11,276.95s4.92,54.13,5.78,55.42c.86,1.28,9.84,7.7,9.84,7.7,0,0-11.13-5.99-12.41-6.42-1.28-.43-5.35-56.49-5.35-56.49l2.14-.21Z"/><path class="gi" d="M93.29,359.91s-6.29,11.49-6.29,20.9,3.23,143.8,5.78,244.83c0,0-3.09,2.17-9.44,3.54,0,0-7.04-109.58-7.9-116-.86-6.42-8.67-132.37,10.31-166.28,0,0,5.13,3.85,12.84,8.56,7.7,13.69,17.4,47.8,24.39,71.03,7.27,24.15,63.91,197.86,63.91,197.86l-9.54-.47L93.29,359.91Z"/><path class="gp" d="M47.38,265.46s-10.71,27.57-12.12,31.81c-.94,2.82-3.68,11.18-5.9,20.21-1.82,7.41-3.28,15.27-3.09,20.87,.36,10.6,4.62,42.59,7.48,70.58-1.91-37.04,.22-67.59,2.79-82.57,2.57-14.98,18.4-59.48,18.4-59.48l-7.56-1.43Z"/><path class="gu" d="M42.34,278.51s3.41,1.37,7.74,2.42c0,0,3.83-11.07,5.07-14.28-5.14-.65-8.54-1.56-8.54-1.56l-4.27,13.41Z"/></g><path class="gt" d="M81.07,283.85s11.05,25.58,11.92,26.45c.87,.87,53.84-23.52,53.84-23.52l-2.79-12.36-62.97,9.43Z"/><g><path class="gs" d="M159.66,274.18l-36.4-88.54-66.9,28.79-2.49,1.18s-2.88,1.05-2.05,2.04l1.24,.57,39.51,86.65,67.1-30.68Z"/><path class="gg" d="M52.83,217.65s-1.83,.59,.9-1.04c2.97-1.77,68.66-29.89,68.66-29.89l1.24,1.03,35.81,87.35-2.91,1.41-37.5-83.17-66.2,24.33Z"/><path class="ib" d="M51.69,217.43s.34,.58,2.76-.46c2.42-1.04,69.97-30.07,69.97-30.07l37.05,88.64-68.5,30.56-41.28-88.68Z"/></g><path class="gq" d="M71.62,260.27l-6.08-13.14s2.35-1.58,5.57-1.58,9.36-1.38,9.97-1.53c.61-.15,15.34,8.9,17.18,8.28,1.84-.61,20.11-4.02,46.49-16.75l12.67,30.33s-17.6,4.2-24.5,4.67c-5.2,.35-19.33,1.53-27.45,5.06-2.57,1.11-19.59,7.98-23.12,7.67l-10.72-23.01Z"/><g><path class="if" d="M118.59,250.17s-18.99,3.64-21.36,3.64-14.4-6.81-15.82-7.44c-1.42-.63-12.19,1.58-13.45,1.9-1.27,.32-3.96,7.6-4.75,9.34-.79,1.74,1.71,3.77,5.86,.32,1.9-1.58,2.69-3.01,3.48-3.8,1.36-1.36,5.3-.48,6.1-.17,.79,.32-5.15,2.86-7.68,4.12-2.81,1.4-5.54,2.69-5.85,3.8-.66,2.32,1.42,5.06,3.01,4.75-1.11,1.58-.83,2.91,0,4.11,1.43,2.06,1.9,1.58,3.01,1.9-.63,2.22,.3,3.12,.95,3.96,1.11,1.42,2.1,.99,3.37,1.15,.47,.06-.32,3.64,3.96,3.64,4.59,0,10.07-1.49,12.82-3.01,3.17-1.74,11.27-5.69,15.38-6.96,2.61-.8,17.33-3.06,17.33-3.06l-6.33-18.2Z"/><path class="ig" d="M65.32,252.62s-3.23,6.25-2.64,6.82c0,0,1.25,.75,2.98-2.52,1.72-3.27,.29-3.78-.34-4.29Z"/><path class="hk" d="M66.08,250.97s1.1-2.4,1.76-2.69c.72-.32,11.9-2.58,13.42-2.05,1.52,.54,6.28,3.36,6.28,3.36,0,0-4.81-2.11-6.77-2.55-1.96-.44-12,1.47-12.59,1.81-.59,.34-2.1,2.12-2.1,2.12Z"/><path class="hv" d="M88.87,250.29s6.84,3.42,8.41,3.41c1.58,0,18.22-2.94,21.31-3.54l1.11,3.2s-18.15,3.82-20.8,3.33c-2.65-.49-10.03-6.4-10.03-6.4Z"/><path class="hm" d="M82.88,256.11s-14.62,3.01-14.7,4.85c-.07,1.84,.88,3.82,1.84,4.12,.65,.2,1.89,.07,3.38-.23-1.28,.57-2.13,1.15-2.13,1.67,0,1.66,.89,3.4,1.84,3.71,.56,.19,1.27,.25,2.07,.22-.56,4.07,3.3,3.76,4.25,4.03,.08,.02,.17,.04,.27,.05-.03,.06-.04,.11-.05,.17-.07,1.84,.6,2.61,1.54,2.94,8.08,2.87,14.99-3.75,14.99-3.75l-13.3-17.78Z"/><path class="hl" d="M93.68,277.59s7.35-6.86,10.88-7.74c3.53-.88,19.69-3.38,19.69-3.38l.67,1.9s-15.95,2.95-18.6,3.69c-2.65,.73-12.64,5.54-12.64,5.54Z"/><path class="hs" d="M66.71,259.42c1.22-.48,3.49-2.02,4.78-3.93,1.29-1.91,2.35-2.24,4.52-1.98,2.17,.26,2.61,.44,2.57,.62-.04,.18-9.17,4.73-9.17,4.73,0,0,9.68-3.15,11.59-5.13,1.91-1.98-2.42-1.62-3.75-1.62s-5.22,1.65-5.92,1.73c0,0-3.27,4.92-4.63,5.58Z"/><path class="hr" d="M66.71,266.23c.17,.12,.76,.5,1.32,.45,0,0-.39,.47-.53,1.2,0,0,1.78-1.52,3.4-1.89,0,0-3.23,.5-4.19,.24Z"/><path class="hu" d="M69.51,272.23c.55,.32,1.59,.43,1.59,.43,0,0-.37,1.35-.12,2,0,0,.64-2.38,1.76-2.82,0,0-2.01,.54-3.23,.39Z"/><path class="ht" d="M73.3,277.54c.52,.17,1.37,.22,2.1,.24,0,0,.15,.75,.47,1.5,0,0-.31-1.42,1.35-2.45,0,0-1.39,.67-3.92,.71Z"/></g><path class="ia" d="M159.87,229.1c-1.55,.95-8.29,5.01-19.18,10.42-6.78,3.37-26.84,11.21-26.84,11.21l4.14,19.67s26.75-4.19,37.54-6.54c8.61-1.88,34.83-12.04,36.18-14.52,1.06-1.94-.02-8.69-1.69-16.03-9.49-4.34-20.33-6.31-30.15-4.21Z"/><polygon class="hq" points="111.8 251.4 114.63 250.89 120.57 269.21 117.12 269.82 111.8 251.4"/><path class="hx" d="M157.76,136.66c8.08,8.18,24.54,57.67,26.07,77.3,1.53,19.63-18.71-26.69-22.09-36.81-3.37-10.12-15.27-51.91-3.99-40.49Z"/><path class="hp" d="M141.56,266.5s20.8-1.68,47.57-15.37c0,0-45.18,13.52-48.86,12.39l1.28,2.97Z"/><path class="hn" d="M174.02,228.07c-13.41-6.32-21.47-28.22-23.31-40.18-1.84-11.96-.15-28.22-1.69-27.3-1.53,.92-5.48,29.33-5.48,29.33,.91,4.24,15.94,38.29,16.33,39.16l-23.5,12.46c10.89-3.86,48.39-8.41,37.65-13.47Z"/><path class="hy" d="M133.22,242.87s10.63-4.93,27.61-10.66c0,0,21.32-2.35,21.83,1.43,.51,3.78-46.83,16.51-46.83,16.51l-2.61-7.28Z"/><polygon class="hw" points="130.46 243.94 133.35 242.81 142.11 266.4 134.46 267.83 130.46 243.94"/><polygon class="ia" points="112.66 250.77 131.65 243.44 140.69 268.25 118 270.42 112.66 250.77"/><polygon class="ho" points="113.71 254.57 112.62 250.73 131.66 243.43 134.28 250.64 113.71 254.57"/></g></g></g></svg>