<?xml version="1.0" encoding="UTF-8"?><svg xmlns="http://www.w3.org/2000/svg" viewBox="0 0 929.96 929.96"><defs><style>.d{fill:none;stroke:#000;stroke-miterlimit:10;stroke-width:51.53px;}</style></defs><g id="a"/><g id="b"><g id="c"><g><path d="M726.49,735.92c-59.4-22.17-125.81-46.94-154.36-81.43-5.84-7.06-8.97-15.96-8.97-25.12l.04-43.48c.01-4.05,1.35-7.97,3.75-11.24,17.81-24.24,23.24-59.36,23.24-59.36,13.31,1.55,32.8-43.16,33.36-88.54,0-19.9-10.37-22.5-16.92-18.06,5.41-27.78,34.11-189.76-32.46-192.74,1.09-11.39-7.23-17.7-12.04-20.37-2-1.11-3.22-3.22-3.18-5.51v-.13c.06-4.06-3.56-7.18-7.56-6.53l-.15,.02c-1.91,.31-3.8-.9-4.16-2.8-.04-.23-.1-.47-.16-.72-.74-2.71-2.96-4.77-5.62-5.66-8.42-2.81-14.15-.17-14.15-.17,0,0-13.76-10.21-18.34-18.23-15.95,1.96-19.55,8.61-19.55,8.61,0,0-5.21-14.76-9.42-15.83-3.39,6.93-7.13,10.66-9.84,12.62-2.11,1.53-5.04,.9-6.33-1.36-2.15-3.74-4.19-10.13,.81-17.01-20.75,3.12-46.81,20.33-46.81,20.33,0,0-5.24-13.27-8.68-15.82-2.29,17.8-18.98,36.31-25.65,43.08-2.15,2.18-5.17,3.32-8.21,2.95-3.8-.46-8.34-2.55-9.19-9.7-16.49,26.94-20.36,49.12-20.36,49.12-9.03-9.61-8.72-13.58-8.72-13.58,0,0-3.61,2.87-5.26,20.22-.25,2.57-1.8,4.81-4.11,5.96-.97,.48-1.97,1.1-2.9,1.76-2.98,2.09-5.59,4.69-7.6,7.71-23.75,35.6-3.59,119.05,6.34,153.78-6.55-4.46-16.94-1.88-16.94,18.04,.56,45.37,20.05,90.09,33.36,88.54,0,0,5.43,35.12,23.24,59.36,2.4,3.27,3.74,7.19,3.75,11.24,0,0,.02,26.81,.04,43.49,.01,9.15-3.12,18.05-8.96,25.1-28.54,34.49-94.96,59.26-154.36,81.43-20.67,7.72-38.71,19.98-53.15,35.4-23.76,25.38,314.67,134.05,314.67,134.05,0,0,338.44-108.66,314.69-134.03-14.45-15.43-32.49-27.7-53.17-35.42Z"/><circle class="d" cx="464.98" cy="464.98" r="439.22"/></g></g></g></svg>