<?xml version="1.0" encoding="UTF-8"?><svg xmlns="http://www.w3.org/2000/svg" viewBox="0 0 929.96 929.96"><defs><style>.d{fill:none;stroke:#000;stroke-miterlimit:10;stroke-width:51.53px;}</style></defs><g id="a"/><g id="b"><g id="c"><g><path d="M726.51,694.72c-59.4-22.17-125.82-46.94-154.37-81.43-5.84-7.06-8.97-15.96-8.97-25.12v-39.2c0-2.28,.95-4.45,2.55-6.07,18.62-18.88,28.13-40.26,33.11-78,8.24-5.06,15.74-11.28,22.47-18.69,3.89-4.28,6.82-9.36,8.75-14.82,6.63-18.8,9.78-39.93,9.96-63.04,.05-6.65-5.31-12.42-11.95-12.22-3.29,.1-6.88,1.17-10.34,3.17,5.99-51.38,36.29-114.49-37.73-148.84,7.97-5.36,16.93-9.4,27.15-11.76-16.02-19.08-42.57-27.62-77.83-27.45,4.3-7.12,9.22-13.41,15.69-17.65-36.69-17.03-73.33-5.04-109.95,23.08,.25-7.99,1.8-15.74,5.43-23.08-27.72,3.92-49.17,22.49-66.52,50.68,0,0-4.98-18.1-4.52-32.13-31.67,19.91-44.34,71.95-44.34,71.95-2.71-3.17-10.41-10.86-10.86-19.91-38.31,33.42-9.49,116.72-3.03,134.6-7.08-3.67-14.49-3.81-18.73,1.29-1.77,2.12-2.55,4.92-2.53,7.68,.14,23.35,3.28,44.69,9.97,63.66,1.92,5.45,4.86,10.52,8.74,14.8,6.73,7.41,14.23,13.63,22.47,18.69,4.98,37.73,14.49,59.11,33.11,77.99,1.6,1.62,2.54,3.79,2.54,6.07,0,17.02,0,36.75,0,39.22,.01,9.15-3.12,18.05-8.96,25.1-28.54,34.49-94.97,59.26-154.37,81.43-27.34,10.21-50.08,28.37-65.97,51.27-15.9,22.91,128.23,158.2,327.5,158.2s345.04-130.01,331.86-151.52c-15.96-26.05-40.38-46.77-70.33-57.95Z"/><circle class="d" cx="464.98" cy="464.98" r="439.22"/></g></g></g></svg>