<?xml version="1.0" encoding="UTF-8"?><svg xmlns="http://www.w3.org/2000/svg" viewBox="0 0 929.96 929.96"><defs><style>.d{fill:none;stroke:#000;stroke-miterlimit:10;stroke-width:51.53px;}</style></defs><g id="a"/><g id="b"><g id="c"><g><path d="M714.04,724.42c-60.79-15.17-138.34-28.41-159.92-97.01-1.14-3.62-1.7-7.41-1.7-11.21v-21.05c0-2.01,.7-3.94,1.93-5.53,15.8-20.24,26.28-44.45,31.17-72.84l1.48-6.62c15.42,1.21,39.91-44,43.01-91,.88-16.88-6.71-22.3-13.8-21.52,20.23-83.09,12.9-152.66-66.79-186.78-4.82-2.06-9.58-4.27-14.21-6.73,16.73-52.29,2.1-88.01-52.07-96.93-6.01-.99-12.08-1.48-18.16-1.47-6.08,0-12.15,.48-18.16,1.47-54.17,8.92-68.8,44.64-52.07,96.93-4.63,2.46-9.39,4.67-14.21,6.73-79.68,34.11-87.02,103.69-66.79,186.78-7.09-.78-14.68,4.65-13.8,21.52,3.1,47,27.59,92.2,43.01,91l1.48,6.62c4.89,28.39,15.37,52.6,31.17,72.84,1.24,1.58,1.93,3.52,1.93,5.53v21.05c0,3.8-.57,7.59-1.7,11.21-21.58,68.61-99.13,81.84-159.92,97.01-27.92,6.97-50.12,26.36-61.34,51.38-5.17,11.53,132.22,128.4,310.4,128.4s315.58-116.83,310.42-128.34c-11.22-25.05-33.43-44.47-61.36-51.44Z"/><circle class="d" cx="464.98" cy="464.98" r="439.22"/></g></g></g></svg>