<?xml version="1.0" encoding="UTF-8"?><svg xmlns="http://www.w3.org/2000/svg" viewBox="0 0 929.96 929.96"><defs><style>.d{fill:none;stroke:#000;stroke-miterlimit:10;stroke-width:51.53px;}</style></defs><g id="a"/><g id="b"><g id="c"><g><path d="M720.1,746.66c-62.26-15.55-141.77-29.06-163.88-99.35-.81-2.58-1.32-5.25-1.57-7.94,16.42,2.29,35.85-3.72,44.03-8.66-7.86-2.78-16.35-9.41-16.7-19.47,29.19,10.99,49.7,5.13,74.99-14.92-10.87,.23-20.97-4.55-22.69-16.46,29.24-.39,46.64-14.39,48.37-46.41-35.84,11.46-49.68-18.63-44.7-69.91,17.09-144.12,.93-260.55-111.04-296.83-20.08-6.51-41-9.76-61.92-9.76s-41.84,3.25-61.92,9.76c-111.98,36.27-128.14,152.7-111.04,296.83,4.98,51.28-8.86,81.37-44.7,69.91,1.73,32.02,19.13,46.02,48.37,46.41-1.72,11.91-11.82,16.69-22.69,16.46,25.29,20.05,45.8,25.91,74.99,14.92-.35,10.06-8.83,16.69-16.7,19.47,8.17,4.93,27.6,10.95,44.03,8.66-.25,2.69-.75,5.36-1.57,7.94-22.11,70.29-101.62,83.81-163.88,99.35-20.82,5.2-38.5,17.17-51,33.21-12.53,16.08,120.14,124.38,306.12,124.38s318.66-108.25,306.16-124.32c-12.5-16.07-30.2-28.07-51.05-33.27Z"/><circle class="d" cx="464.98" cy="464.98" r="439.22"/></g></g></g></svg>