<?xml version="1.0" encoding="UTF-8"?><svg xmlns="http://www.w3.org/2000/svg" viewBox="0 0 929.96 929.96"><defs><style>.d{fill:none;stroke:#000;stroke-miterlimit:10;stroke-width:51.53px;}</style></defs><g id="a"/><g id="b"><g id="c"><g><path d="M706.49,753.03c-57.77-14.41-131.14-27.02-153.76-90.12-2.04-5.7-3.2-11.68-3.57-17.73-.13-2.07-.25-4.17-.33-5.72,15.02-11.14,24.22-24.15,32.1-37.67,1.13,13.2-1.48,21.59-6.65,36.02h0c1.02-.6,2.07-1.38,3.13-2.3,21.63-16,39.13-34.19,49.86-55.97,2.96,7.05,4.1,14.72,3.99,22.81,19.72-26.11,29.76-52.96,35.65-78.33,3.21,14,4.28,27.13,2.3,39.03,38.27-51.83,13.22-107.48-5.06-149.99-8.65-20.12-13.38-41.53-14.57-63.26-9.25-169.72-116.77-229.54-184.61-197.39-67.85-32.15-175.36,27.67-184.61,197.39-1.18,21.73-5.92,43.13-14.57,63.26-18.27,42.51-43.32,98.16-5.06,149.99-1.98-11.9-.91-25.03,2.3-39.03,5.89,25.37,15.93,52.22,35.65,78.33-.12-8.1,1.02-15.77,3.99-22.81,10.72,21.79,28.23,39.98,49.86,55.97,1.06,.92,2.11,1.7,3.13,2.29h0c-5.17-14.43-7.78-22.81-6.65-36.01,7.88,13.51,17.08,26.53,32.1,37.67-.08,1.55-.2,3.65-.33,5.72-.37,6.04-1.53,12.03-3.57,17.73-22.62,63.1-95.99,75.7-153.76,90.12-19.78,4.93-36.59,16.3-48.46,31.52-5.92,7.59,141.64,118.18,289.97,119.65,149.15,1.48,299.08-106.21,294.53-113.24-11.92-18.43-30.56-32.32-53.02-37.92Z"/><circle class="d" cx="464.98" cy="464.98" r="439.22"/></g></g></g></svg>