<?xml version="1.0" encoding="UTF-8"?><svg xmlns="http://www.w3.org/2000/svg" viewBox="0 0 929.96 929.96"><defs><style>.d{fill:none;stroke:#000;stroke-miterlimit:10;stroke-width:51.53px;}</style></defs><g id="a"/><g id="b"><g id="c"><g><path d="M726.51,707.97c-61.93-23.11-131.48-49.05-157.8-85.88-3.63-5.07-5.55-11.16-5.55-17.4l.02-44.95c0-2.05,.67-4.02,1.87-5.68,13.52-18.79,23.51-42.72,28.89-65.28,13.84,1.03,32.44-45.92,31.45-92.91-.67-20.09-10.96-22.8-17.63-18.47,11.35-42.86,12.44-76.32,10-117.44-.86-14.58-5.72-28.68-14.2-40.57-49.09-68.88-193.31-114.48-255.78-20.09-44.18,20.79-53.85,97.14-26.04,177.83-6.67-3.93-16.53-.91-17.19,18.74-.99,46.98,17.61,93.94,31.45,92.91,5.38,22.56,15.36,46.49,28.89,65.28,1.2,1.66,1.87,3.63,1.87,5.68,0,8.67,0,33.02,.02,44.95,0,6.24-1.92,12.32-5.54,17.39-26.32,36.83-95.87,62.76-157.8,85.88-26.98,10.07-49.47,27.88-65.33,50.36-16.29,23.08,150.04,145.86,326.86,145.86s343.4-122.04,327.5-144.95c-15.9-22.91-38.63-41.07-65.97-51.28Z"/><circle class="d" cx="464.98" cy="464.98" r="439.22"/></g></g></g></svg>