<?xml version="1.0" encoding="UTF-8"?><svg xmlns="http://www.w3.org/2000/svg" viewBox="0 0 929.96 929.96"><defs><style>.d{fill:none;stroke:#000;stroke-miterlimit:10;stroke-width:51.53px;}</style></defs><g id="a"/><g id="b"><g id="c"><g><path d="M726.51,698.45c-61.93-23.11-131.48-49.05-157.8-85.88-3.63-5.07-5.55-11.16-5.55-17.4l.02-44.95c0-2.05,.67-4.02,1.87-5.68,13.52-18.79,23.51-42.72,28.89-65.28,13.84,1.03,32.44-45.92,31.45-92.91-.6-18.05-8.96-22.05-15.49-19.54,6.13-52.53,22.53-95.57,21.08-127.98-3.44,1.78-10.79,2.68-16.7-.32,5.26-15.27,6.22-30.68,1.93-46.25-4.18,12.48-9.69,21.93-16.7,27.94-12.79-39.52-33.59-73.78-79.97-91.21,3.77,9.33,5.55,18.29,4.17,26.66-55.46-38.05-108.87-56.04-153.19-11.56,11.9-2.26,21.74-.32,29.87,5.14-39.78,12.21-70.33,30.21-80.93,60.7,8.38-4.49,16.62-6.53,24.57-3.85-56.8,41.36-29.83,99.22-22.45,161.45-6.67-3.79-16.37-.67-17.02,18.83-.99,46.98,17.61,93.94,31.45,92.91,5.38,22.56,15.36,46.5,28.89,65.28,1.2,1.66,1.87,3.63,1.87,5.68,0,8.67,0,33.02,.02,44.95,0,6.24-1.92,12.32-5.54,17.39-26.32,36.83-95.87,62.76-157.8,85.88-27.34,10.21-50.07,28.37-65.97,51.27-7.95,11.45,160.06,153.47,328.3,154.47,168.24,1,336.71-139,329.69-150-15.97-25.02-39.85-44.89-68.95-55.75Z"/><circle class="d" cx="464.98" cy="464.98" r="439.22"/></g></g></g></svg>